/* XPM */
static char *fe242a8bc2c04febb730d76372ad07e8SJCesgHB7gY1YLnE[] = {
/* columns rows colors chars-per-pixel */
"16 16 48 1 ",
"  c #008470",
". c #008774",
"X c #008B79",
"o c #009C8C",
"O c #00AC9F",
"+ c #00ADA0",
"@ c #00B2A6",
"# c #00B8AD",
"$ c #00BBB0",
"% c #00BDB3",
"& c #00BFB5",
"* c #00C1B7",
"= c #00C3B9",
"- c #00C4BA",
"; c #00C5BC",
": c #00C8BF",
"> c #05C9C1",
", c #0ACAC2",
"< c #0FCBC3",
"1 c #19CEC6",
"2 c #1ECFC7",
"3 c #23D0C8",
"4 c #28D1C9",
"5 c #2DD2CB",
"6 c #32D3CC",
"7 c #3CD5CF",
"8 c #41D6D0",
"9 c #46D7D1",
"0 c #4BD8D2",
"q c #50DAD4",
"w c #55DBD5",
"e c #5ADCD6",
"r c #5FDDD7",
"t c #64DED9",
"y c #69DFDA",
"u c #6EE0DB",
"i c #73E1DC",
"p c #78E2DE",
"a c #7DE3DF",
"s c #82E4E0",
"d c #87E5E1",
"f c #8CE7E3",
"g c #91E8E4",
"h c #96E9E5",
"j c #9BEAE6",
"k c #A0EBE8",
"l c #A5ECE9",
"z c #AAEDEA",
/* pixels */
". Xo+%*&%%=;,128",
"%ttusdssaassapi*",
"=fffgfffddfdpye&",
";ggffgjhgdssaaa&",
"-hfgdhggggsapii=",
"-jgyyssddddddaa=",
"-gdssissddsddau*",
"-jfsyyyyyuiasir&",
";hksjutuyyyyyw7$",
";hlshhghhhjjhfs*",
";lzzlkllkkjkjdt#",
">zzzzzzlkjjdr73@",
":zjklzzkhfpq1>:@",
";ljgkkkjfp952<<@",
";gfasdsapu6<-=*O",
"pue041;==>;;;=&#"
};
