/* XPM */
static char *e5508a0be56645f0a77a3121726e50b0SSoMSnOpIArquF5B[] = {
/* columns rows colors chars-per-pixel */
"16 16 113 2 ",
"   c #2FB34B",
".  c #30B64D",
"X  c #31BB4E",
"o  c #31B954",
"O  c #33BF54",
"+  c #32BC56",
"@  c #32BE56",
"#  c #33BF57",
"$  c #39BF58",
"%  c #2FC953",
"&  c #2FCB54",
"*  c #30C052",
"=  c #34C255",
"-  c #36C65F",
";  c #38C65A",
":  c #3DC55D",
">  c #3CC65D",
",  c #36C85C",
"<  c #39CB5B",
"1  c #39CB5C",
"2  c #39CB5F",
"3  c #3ACA5F",
"4  c #39CD5F",
"5  c #37D15F",
"6  c #38D05F",
"7  c #3FC562",
"8  c #3DC961",
"9  c #3CCA61",
"0  c #3BCD61",
"q  c #3CCC61",
"w  c #3ECE60",
"e  c #3CCE62",
"r  c #3FCF64",
"t  c #39D160",
"y  c #3AD061",
"u  c #3CD062",
"i  c #3CD063",
"p  c #3DD163",
"a  c #3ED465",
"s  c #3FD566",
"d  c #3ED86A",
"f  c #40D062",
"g  c #42D468",
"h  c #42D46B",
"j  c #45D56A",
"k  c #47D56C",
"l  c #44D66D",
"z  c #4BD76F",
"x  c #42D86D",
"c  c #46D86C",
"v  c #44D86E",
"b  c #48D86D",
"n  c #4DD771",
"m  c #47DD71",
"M  c #4BD970",
"N  c #4ADA73",
"B  c #4DD971",
"V  c #4ADC73",
"C  c #4BDF75",
"Z  c #53DF7B",
"A  c #48E073",
"S  c #4CE076",
"D  c #4DE177",
"F  c #4CE276",
"G  c #4DE377",
"H  c #4FE178",
"J  c #4FE379",
"K  c #4DE17A",
"L  c #4FE77A",
"P  c #50E279",
"I  c #51E37A",
"U  c #54E27C",
"Y  c #55E97F",
"T  c #56E87F",
"R  c #57E780",
"E  c #5CE282",
"W  c #59E781",
"Q  c #5BE783",
"!  c #5FE184",
"~  c #5DE784",
"^  c #57E980",
"/  c #59E982",
"(  c #5BE983",
")  c #5EE885",
"_  c #5CEA84",
"`  c #5FE986",
"'  c #62E286",
"]  c #61E987",
"[  c #61E988",
"{  c #63E989",
"}  c #62EA89",
"|  c #64EA8A",
" . c #67EB8C",
".. c #68EA8D",
"X. c #6BEB8F",
"o. c #6CEA90",
"O. c #6FEB92",
"+. c #70EC93",
"@. c #73EB95",
"#. c #75EB96",
"$. c #74EC96",
"%. c #7CE499",
"&. c #7BE99A",
"*. c #78EC99",
"=. c #83EDA1",
"-. c #84ECA2",
";. c #89EDA5",
":. c #88ECA7",
">. c #8CECA7",
",. c #89EDA8",
"<. c #8DEDA8",
"1. c #91EFAC",
"2. c #92EEAC",
/* pixels */
"1.1.=.@.O.% 1.1.1.% >.>.>.&.&.%.",
"1.J G m 1 1.-.Q T Q % ) I J R - ",
"=.J m 1 1.@.Q G F G k % Q C C . ",
"+.m 1 1.@.#.~ J m m j 1 % G N . ",
"+.1 1.#.@...~ G m m j f < % N   ",
"% 1.#.O.] } Q G m A j j j 1 %   ",
"1.^ } } } ] =.=.$. .x c g 6 t o ",
"1.^ ^ ) L L O.|  .Y x s s 5 6   ",
"-.Y Q T ( I ..| ) Y d a e p t   ",
"& ! ( E ( Q #.] ] ] f 8 8 8 t   ",
"1.& ' Q Q Z G n z q = : > @   7 ",
"1.>.& M M ! G n h q > ; X   ,.= ",
"*.O.X.& M M P h 0 0 ; @   >.C # ",
"' U H N & M n g t 1 O   :.J a + ",
"' U V V c & h s t 0   -.J J q o ",
"' - @ = @ @         7 @ @ + # o "
};
