/* XPM */
static char *ec000a33ca034b9bf5810618fe556bcdaX4QaUnOINrzHria[] = {
/* columns rows colors chars-per-pixel */
"16 16 116 2 ",
"   c #C4871F",
".  c #C9901F",
"X  c #C58B20",
"o  c #D5A423",
"O  c #DDB82C",
"+  c #E6B428",
"@  c #E6BC2F",
"#  c #E8BB2E",
"$  c #FABF30",
"%  c #E8C82F",
"&  c #EACE2F",
"*  c #F6CA2C",
"=  c #E8C333",
"-  c #E9CF32",
";  c #EBC937",
":  c #E9CE34",
">  c #ECC738",
",  c #E6C938",
"<  c #EACD38",
"1  c #EACC39",
"2  c #FBC331",
"3  c #FDC733",
"4  c #F3CB31",
"5  c #F5CB34",
"6  c #FFCC35",
"7  c #EAD03A",
"8  c #E8D43E",
"9  c #F7D236",
"0  c #F6D437",
"q  c #FCD736",
"w  c #FCD637",
"e  c #F4D639",
"r  c #FBD33C",
"t  c #F6DC3D",
"y  c #FAD838",
"u  c #FADA3A",
"i  c #FADC3A",
"p  c #FBDE3C",
"a  c #F7E935",
"s  c #FCE03E",
"d  c #FAF13B",
"f  c #FCF13B",
"g  c #E7C845",
"h  c #EAD441",
"j  c #E8D045",
"k  c #EAD544",
"l  c #EAD349",
"z  c #EAD54B",
"x  c #EDD949",
"c  c #EFDC4E",
"v  c #F8DE40",
"b  c #EAD352",
"n  c #EAD451",
"m  c #F0DD52",
"M  c #FCE040",
"N  c #FFE742",
"B  c #F9E447",
"V  c #FBE747",
"C  c #FFEC45",
"Z  c #FEE84A",
"A  c #FEEF4C",
"S  c #FCED4F",
"D  c #FEF342",
"F  c #FDF740",
"G  c #FFF144",
"H  c #FDF546",
"J  c #FDF646",
"K  c #FBFB41",
"L  c #FDF846",
"P  c #FEF649",
"I  c #FFF34E",
"U  c #FFF74F",
"Y  c #F9FB49",
"T  c #FFF94A",
"R  c #F9FD48",
"E  c #FFF94C",
"W  c #FDFB4C",
"Q  c #FDFB4F",
"!  c #FFFE4E",
"~  c #F8E35A",
"^  c #FFEE5B",
"/  c #FEEA5F",
"(  c #FEF151",
")  c #FFF351",
"_  c #FDF751",
"`  c #FEF757",
"'  c #FCFC50",
"]  c #FDFD51",
"[  c #FDFC52",
"{  c #FAFA54",
"}  c #FFF957",
"|  c #FBFC55",
" . c #FFFC55",
".. c #FFF35A",
"X. c #FCF459",
"o. c #FEF658",
"O. c #FBFA58",
"+. c #FDFA5A",
"@. c #FBFC5A",
"#. c #FDFD5B",
"$. c #FEFE5A",
"%. c #FFF85C",
"&. c #FDEA64",
"*. c #FBFB61",
"=. c #FFF860",
"-. c #FDFD62",
";. c #FDF865",
":. c #FDFF65",
">. c #FDFA69",
",. c #FEFE69",
"<. c #FEFC6B",
"1. c #FFFF6F",
"2. c #FFFC73",
"3. c #FFFE72",
"4. c #FFFE74",
"5. c #FFFD78",
/* pixels */
"X   . o O , 7 < ; > h k x c m ~ ",
"g &./ ^ ` +.` o.o...o.o.` ( I 1 ",
"j =.%.} { | |  .O.O.} W P F d & ",
"j }  .[ ! [  .} +.} U L P H F - ",
"j  .[ [ W ! ! [ +.+.W H G H H 7 ",
"k $.[ G D T T W P W [ W W T Y 7 ",
"h @.{ T T H T T W [ Y Y W P F : ",
"8 -.+.T G G D C G G K K K F f : ",
"h %.:.T 3.G G G G G F G G d a % ",
"l >.3.T %.-.%.$.$.$.$. .} } W < ",
"n 4.4.3.3.,.,.:.:.:.%.-.$.` A = ",
"b 4.5.5.4.3.3.1.<.>.-.o.S B v @ ",
"n 4.4.>.3.3.1.>.>.;...Z t e 0 # ",
"z :.*.*.-.:.:.-.%.o.V s p y w # ",
"h $.+.) ) } ( o.o.( v q 4 * * + ",
"P D C N i u 9 4 5 r 6 6 6 3 2 $ "
};
