/* XPM */
static char *c868e6c8cfc640b2e6157dba2447a851ljyOaDcm1fO9vMwz[] = {
/* columns rows colors chars-per-pixel */
"16 16 17 1 ",
"  c None",
". c #1B7F1B",
"X c #31BA18",
"o c #278B27",
"O c #299629",
"+ c #38C11F",
"@ c #39C220",
"# c #49D230",
"$ c #48E828",
"% c #5CFC3C",
"& c #66F248",
"* c #A98B22",
"= c #BD9B26",
"- c #C09E27",
"; c #DEC25F",
": c #E1C870",
"> c #ECDCA5",
/* pixels */
"@$o$$$ .o% &$.%@",
"@$oo$$  .  &$.%@",
"@$o$  o%  o%$.%$",
"@$o%$ @%+$ $.*$$",
"$ $%$ %#@$ *;;.$",
"  $%$ &#@$ *;;..",
"  @@  $@#$ $.   ",
"o$  *-X$#X $$ ..",
"o$@=>:.$X. $  @$",
" $@*:;  . .. $@$",
" $@*;;.ooO%$.%@$",
" $@$..o&%o%@.$$@",
" .$.  o%$o$@. $$",
"   $@$o$$o$$. ..",
"..$$@$o$.$..%$  ",
"%$ $$$o .$. %$.$"
};
