/* XPM */
static char *_594944598991[] = {
/* columns rows colors chars-per-pixel */
"64 64 256 2 ",
"   c black",
".  c #0000A8",
"X  c #00A800",
"o  c #00A8A8",
"O  c #A80000",
"+  c #A800A8",
"@  c #A85400",
"#  c gray66",
"$  c gray33",
"%  c #5454FC",
"&  c #54FC54",
"*  c #54FCFC",
"=  c #FC5454",
"-  c #FC54FC",
";  c #FCFC54",
":  c gray99",
">  c #ECECEC",
",  c gainsboro",
"<  c #D0D0D0",
"1  c #C0C0C0",
"2  c #B4B4B4",
"3  c gray66",
"4  c #989898",
"5  c gray55",
"6  c #7C7C7C",
"7  c gray44",
"8  c #646464",
"9  c gray33",
"0  c #484848",
"q  c gray22",
"w  c #2C2C2C",
"e  c #202020",
"r  c #FC0000",
"t  c #EC0000",
"y  c #E00000",
"u  c #D40000",
"i  c #C80000",
"p  c #BC0000",
"a  c #B00000",
"s  c #A40000",
"d  c #980000",
"f  c #880000",
"g  c #7C0000",
"h  c #700000",
"j  c #640000",
"k  c #580000",
"l  c #4C0000",
"z  c #400000",
"x  c #FCD8D8",
"c  c #FCB8B8",
"v  c #FC9C9C",
"b  c #FC7C7C",
"n  c #FC5C5C",
"m  c #FC4040",
"M  c #FC2020",
"N  c #FC0000",
"B  c #FCA85C",
"V  c #FC9840",
"C  c #FC8820",
"Z  c #FC7800",
"A  c #E46C00",
"S  c #CC6000",
"D  c #B45400",
"F  c #9C4C00",
"G  c #FCFCD8",
"H  c #FCFCB8",
"J  c #FCFC9C",
"K  c #FCFC7C",
"L  c #FCF85C",
"P  c #FCF440",
"I  c #FCF420",
"U  c #FCF400",
"Y  c #E4D800",
"T  c #CCC400",
"R  c #B4AC00",
"E  c #9C9C00",
"W  c #848400",
"Q  c #706C00",
"!  c #585400",
"~  c #404000",
"^  c #D0FC5C",
"/  c #C4FC40",
"(  c #B4FC20",
")  c #A0FC00",
"_  c #90E400",
"`  c #80CC00",
"'  c #74B400",
"]  c #609C00",
"[  c #D8FCD8",
"{  c #BCFCB8",
"}  c #9CFC9C",
"|  c #80FC7C",
" . c #60FC5C",
".. c #40FC40",
"X. c #20FC20",
"o. c #00FC00",
"O. c #00FC00",
"+. c #00EC00",
"@. c #00E000",
"#. c #00D400",
"$. c #04C800",
"%. c #04BC00",
"&. c #04B000",
"*. c #04A400",
"=. c #049800",
"-. c #048800",
";. c #047C00",
":. c #047000",
">. c #046400",
",. c #045800",
"<. c #044C00",
"1. c #044000",
"2. c #D8FCFC",
"3. c #B8FCFC",
"4. c #9CFCFC",
"5. c #7CFCF8",
"6. c #5CFCFC",
"7. c #40FCFC",
"8. c #20FCFC",
"9. c #00FCFC",
"0. c #00E4E4",
"q. c #00CCCC",
"w. c #00B4B4",
"e. c #009C9C",
"r. c #008484",
"t. c #007070",
"y. c #005858",
"u. c #004040",
"i. c #5CBCFC",
"p. c #40B0FC",
"a. c #20A8FC",
"s. c #009CFC",
"d. c #008CE4",
"f. c #007CCC",
"g. c #006CB4",
"h. c #005C9C",
"j. c #D8D8FC",
"k. c #B8BCFC",
"l. c #9C9CFC",
"z. c #7C80FC",
"x. c #5C60FC",
"c. c #4040FC",
"v. c #2024FC",
"b. c #0004FC",
"n. c #0000FC",
"m. c #0000EC",
"M. c #0000E0",
"N. c #0000D4",
"B. c #0000C8",
"V. c #0000BC",
"C. c #0000B0",
"Z. c #0000A4",
"A. c #000098",
"S. c #000088",
"D. c #00007C",
"F. c #000070",
"G. c #000064",
"H. c #000058",
"J. c #00004C",
"K. c #000040",
"L. c #282828",
"P. c #FCE034",
"I. c #FCD424",
"U. c #FCCC18",
"Y. c #FCC008",
"T. c #FCB400",
"R. c #B420FC",
"E. c #A800FC",
"W. c #9800E4",
"Q. c #8000CC",
"!. c #7400B4",
"~. c #60009C",
"^. c #500084",
"/. c #440070",
"(. c #340058",
"). c #280040",
"_. c #FCD8FC",
"`. c #FCB8FC",
"'. c #FC9CFC",
"]. c #FC7CFC",
"[. c #FC5CFC",
"{. c #FC40FC",
"}. c #FC20FC",
"|. c #FC00FC",
" X c #E000E4",
".X c #C800CC",
"XX c #B400B4",
"oX c #9C009C",
"OX c #840084",
"+X c #6C0070",
"@X c #580058",
"#X c #400040",
"$X c #FCE8DC",
"%X c #FCE0D0",
"&X c #FCD8C4",
"*X c #FCD4BC",
"=X c #FCCCB0",
"-X c #FCC4A4",
";X c #FCBC9C",
":X c #FCB890",
">X c #FCB080",
",X c #FCA470",
"<X c #FC9C60",
"1X c #F0945C",
"2X c #E88C58",
"3X c #DC8854",
"4X c #D08050",
"5X c #C87C4C",
"6X c #BC7848",
"7X c #B47044",
"8X c #A86840",
"9X c #A0643C",
"0X c #9C6038",
"qX c #905C34",
"wX c #885830",
"eX c #80502C",
"rX c #744C28",
"tX c #6C4824",
"yX c #5C4020",
"uX c #543C1C",
"iX c #483818",
"pX c #403018",
"aX c #382C14",
"sX c #28200C",
"dX c #600064",
"fX c #006464",
"gX c #006060",
"hX c #00001C",
"jX c #00002C",
"kX c #302410",
"lX c #480048",
"zX c #500050",
"xX c #000034",
"cX c gray11",
"vX c #4C4C4C",
"bX c gray36",
"nX c gray25",
"mX c gray19",
"MX c #343434",
"NX c #D8F4F4",
"BX c #B8E8E8",
"VX c #9CDCDC",
"CX c #74C8C8",
"ZX c #48C0C0",
"AX c #20B4B4",
"SX c #20B0B0",
"DX c #00A4A4",
"FX c #009898",
"GX c #008C8C",
"HX c #008484",
"JX c #007C7C",
"KX c #007878",
"LX c #007474",
"PX c #007070",
"IX c #006C6C",
"UX c #980088",
/* pixels */
"pXpXpXpXpXpXpXpXpXpXpXpXpXpXpXpXpXpXpXpXpXpXpXpXpXpXpXpXpXpXpXpXpXpXpXpXpXpXpXpXpXpXpXpXpXpXpXpXpXpXpXpXpXpXpXpXpXpXpXpXpXpXpXpX",
"tXtXtXtXtXtXtXtXtXtXtXtXtXtXtXtXtXtXtXtXtXtXtXtXtXtXtXtXtXtXtXtXtXtXtXtXtXtXtXtXtXtXtXtXtXtXtXtXtXtXtXtXtXtXtXtXtXtXtXtXtXtXtXtX",
"qXqXqXqXqXqXqXqXqXqXqXqXqXqXqXqXqXqXqXqXqXqXqXqXqXqXqXqXqXqXqXqXqXqXqXqXqXqXqXqXqXqXqXqXqXqXqXqXqXqXqXqXqXqXqXqXqXqXqXqXqXqXqXqX",
"uXuXuXuXuXuXuXaXuXsXaXuXuXuXuXuXuXuXuXuXuXuXuXuXuXaXuXsXaXuXuXuXuXaXuXsXaXuXuXuXuXuXuXaXuXsXaXuXuXuXuXuXuXuXuXuXuXuXaXuXsXaXuXuX",
"iXiXtXrXrXrXrXuXqXsXuXqXyXiXiXiXiXrXrXiXtXiXtXiXiXuXqXsXuXqXrXiXrXuXqXsXuXqXyXiXiXiXyXuXqXsXuXqXiXrXiXiXrXiXrXiXrXrXuXqXsXuXqXtX",
"iXiXtXrXrXrXyXuXqXsXuXqXtXiXiXiXuXrXrXiXtXiXtXiXiXuXqXsXuXqXrXiXrXuXqXsXuXqXrXyXiXyXrXuXqXsXuXqXiXrXiXiXrXiXrXiXrXrXuXqXsXuXqXtX",
"iXiXyXrXrXG J U U U U U U U U U U U U U U U U U U U U U U U U U U U U U U U U U U U U U U U U U U U U U U U U U U U B F sXuXqXtX",
"uXiXuXtXrXJ U B B B B B B B B B B B B B B B B B B B B B B B B B B B B B B B B B B B B B B B B B B B B B B B B B B B Z aXsXuXqXtX",
"tXiXiXyXrXU B F F F F F F F F F F F F F F F F F F F F F F F F F F F F F F F F F F F F F F F F F F F F F F F F F F Z A aXsXuXqXuX",
"tXiXuXiXyXU B F w mXe e L.e e e e w e w e w w w w w w w w kXw kXmXaXw aXw MXaXw w w w w w w w w w w w w w e aXaXe B A aXsXuXqXuX",
"rXuXiXiXuXU B F e e e e e w w e w w e w w e e mXmXw w w w w e kXe e sXaXw mXw mXmXmXw kXw w w w w w w w e kXe kXw B A aXsXuXqXuX",
"rXuXiXiXiXU B F e w e e e e e e w e e e w e w mXmXw w w w kXaXaXaXw w mXw mXmXmXw w w w w w w w w w sXe e kXw e e B A aXsXuXqXiX",
"tXrXiXiXiXU B F e L.L.e e e e e e sXe w w e w w e e sXe w e kXaXw w w mXe w w w e w q e e sXe w w e w w w e e e e B A aXsXuXqXiX",
"tXrXuXiXiXU B F e e e e e e e e e e e w e e w w w w e w e sXaXmXw mXmXaXsXkXkXw aXkXaXaXw aXe w w w w w w e e e e B A aXsXuXqXiX",
"yXrXrXiXuXU B F e w e e e e e e e e e w e e w e sXe sXsXaXaXiXiXuXtXeXqXrXtXiXaXaXaXsXMXw w w w w e w w w e e e e B A aXsXuXqXiX",
"uXrXrXrXuXU B F e e w e e w w e kXw w w w w w w aXw w kXnX0 yXeXqX7X6X4X4XB >X3X8XiXaXw w e w w e e w w w e e e e B A aXsXuXqXuX",
"iXtXrXrXyXU B F e sXsXe e e e e kXkXkXkXw kXw e e w aXq vXvXvXtXwX8X5X3X2X,X>X>X>X1X3XiXw mXw w w w w L.L.L.e e e B A aXsXuXqXuX",
"iXtXrXrXrXU B F e kXkXe e kXw w kXw kXw kXw w kXw w w nXvXyXyXtXwX7X6X3X1X,X2X>X1X1X1X6XnXmXw w w w w L.L.e e e e B A aXsXuXqXuX",
"iXyXtXrXrXU B F e kXe e e e w w kXw kXw kXw w e w aXaXaX$ vXiXvXeX9X6X4X3X1X2X>X>X1X,X>X8XpXw w w w w L.L.e e e e B A aXsXuXqXtX",
"iXuXtXrXrXU B F e sXe e e e w w e w aXw w e e w aXkXw iXyXvXyXnXrX9X7X4X3X3X2X2X1X3X1X3X>XtXaXw e w e e e e e e e B A aXsXuXqXtX",
"iXiXyXrXrXU B F w e kXw e w e kXkXkXw w w w w kXe w aXaXnXvXyXyXyXqX7X7X5X4X3X3X3XB 3X2X3X6XmXaXw w e w e e e e e B A aXsXuXqXtX",
"iXiXuXrXrXU B F e w e e e e e kXw w w w w kXkXe w aXw w nXyXyX0 yXeXqX6X5X4X3X1X3X3X3X3X3X3XnXaXaXe e e e e e e e B A aXsXuXqXtX",
"uXiXuXyXuXU B F e w w e w w w w w w w kXMXw w w w kXw mXnXyXnXnXyXtXrX8X3X4X5X4X,X,X3X,X,X:XrXaXaXe sXw e e e e e B A aXsXuXqXtX",
"uXiXiXuXiXU B F w w w w w e w w kXw e w w w aXw aXaXw q nXnXnXmXiXbX9X7X7X5X4X4X4X3X1X3X1X>X3XaXw e w sXw e L.e e B A aXsXuXqXtX",
"uXiXiXiXiXU B F w w sXsXmXw mXw e w w w e w sXw w w aXmXq iXiXnXq nXiXtX8XeXrXwXqX6X2X4X7XqXrXaXw e w w w e e e e B A aXsXuXqXyX",
"tXiXiXiXiXU B F w sXw w w w aXw w kXw w mXmXw mXmXw mXq iXiXiXq nXiXvXrXeXqXqXqXiX4X>X9XrXrX9XiXq aXw e w L.e e e B A aXsXuXqXuX",
"tXiXiXiXiXU B F w sXw sXw mXaXw w w w sXiXnXaXmXmXsXaXiXiXiXiXnXnXyXvXiXuX7X9XeXiXrX,XqXuXyXeXaXw e kXw w w e e e B A aXsXuXqXuX",
"tXuXiXiXiXU B F w sXw e w w w w w aXsX$ yXyXbXmXmXw mXnXnXnXyXyXyXuXuXeX7X4X2XuXiX9X3X6XeXrXuXaXkXw w w e e e e e B A aXsXuXqXiX",
"yXuXiXiXiXU B F w w sXw w w w w w aXaX7 tXw 0 q mXmXq nXiXyXtXqXyXuXrX9X5X4X4XtXiXrX3X6X3X3XtXaXMXe w w e mXmXmXw B A aXsXuXqXiX",
"uXtXiXiXiXU B F w w w w w w w w w aXiX9XtX$ q iXmXmXmXiXiXnXrX0X9XrXrX8X3X4X8XuXyXyX7X6X1X1XeXsXMXe w w w e e e e B A aXsXuXqXiX",
"uXtXuXiXiXU B F w aXw w w w w w w aXaXeXtX$ w MXq q iXnXiXyXyXeX5X3X4X5X4X6X8XyX0 yXyX4X6X,X9XaXw e w w w e e w mXB A aXsXuXqXiX",
"iXyXuXiXtXU B F w w sXmXaXw e w e w aXuXeX$ iXiXiXiXiXmXnXiXyXeX6X3X3X3X4X4X9XyXnXiXuX4X3X,X6XkXaXkXw aXw e e e e B A aXsXuXqXiX",
"iXuXtXuXtXU B F w w w aXsXw mXaXw aXiXuXqXtXiXiXiXiXnXiXiXiXyXrX7X7X6X5X4X4XyXpXyXyXtX5X3X3XeXaXkXw e e kXe e e w B A aXsXuXqXiX",
"iXuXtXuXtXU B F w w w w sXsXmXmXmXmXiXnXrXrXrXwXiXiXmXaXiXq tXwX9XqX8X7X3X9XyXuXtXyXtX6X3X3XuXw e w w w w w w e e B A aXsXuXqXiX",
"iXiXyXtXyXU B F w w w w w w mXmXiXiXmXyXiXrXqXtXq iXiXq iXiXtXqXwXeX0X7X5XrXpXyXrXiXuXwX6X4XiXiXw mXw w w w mXsXsXB A aXsXuXqXuX",
"iXiXuXyXuXU B F sXw mXmXmXw mXmXiXuXyXyXyXyXtX$ iXiXnXaXiXyXuXqXqXrX8X7X7XtXaXmXmXmXnXiX4X4XaXmXw mXw w e sXe e e B A aXsXuXqXuX",
"iXiXiXuXiXU B F w aXw mXmXmXw iXuXyXyXtXtXiXiXiXmXnXnXmXnXiXtXwX9XqX6X6XqXuXe mXmXw sXkX7X4XaXmXkXaXsXe e w e e w B A aXsXuXqXyX",
"iXiXiXiXiXU B F w w mXmXmXmXmXnXnXyXtXeXeXuXaXiXiXiXiXnXiXq yXrXqX0X6X9XtXyXmXaXiXiXyXeX2X0XaXaXw sXw e e w e e e B A aXsXuXqXtX",
"iXiXiXiXiXU B F mXw mXmXiXw iXq nXtXrXrXqXyXaXiXnXiXnXaXmXq yXrXqXqX7XqXwXyXq iXyXeXqX8X4XrXaXaXaXsXe e e w w w w B A aXsXuXqXtX",
"uXiXiXiXiXU B F mXaXmXiXiXiXiXiXnXyXrXeXeXiXmXmXiXnXiXmXnXMXyXrXwXrX9X9X9XyXnXtX9X4X3X4X3XyXiXiXaXaXmXw e w w w mXB A aXsXuXqXtX",
"uXiXiXiXiXU B F mXiXiXq mXmXiXnXnXtXeXwXeXiXmXiXiXiXiXiXnXmXiXrXtXyXwX6X9XrXuXrX8X6X0X4X4XyXiXiXaXaXmXw w e e w mXB A aXsXuXqXuX",
"tXuXiXiXiXU B F q iXiXiXiXiXiXnXyXrXqXqXtXiXiXaXiXiXaXiXnXmXiXyXvXiXeX5X0XqXeXqX8X7X6X3X5XtXyXiXiXiXmXmXw e w w mXB A aXsXuXqXuX",
"tXuXiXiXiXU B F MXMXMXnXiXiXiXyXrXwXqXqXyXmX0 aXaXiXiXiXiXmXiXnXnXnXuX8X7X9X7X8X7X3X2X2X9XtXyXuXiXw mXmXw e e e w B A aXsXuXqXiX",
"tXyXuXiXuXU B F MXiXiXiXiXiXuXtXrXqX0XrXiXaXyXwXtXaXiXyXuXiXnXnXnXnXuXrX8X7X5X6X5X3X,X2XqXeXtXyXiXw mXw w w w w mXB A aXsXuXqXiX",
"tXtXuXuXuXU B F iXiXiXiXyXtXrXrXwXwXtXiXaXmXmXiX6 # 5 bXiXyX$ tXtXtXyXuXrXeX0X8X4X3X,X7XqXeX$ yXq iXMXmXmXw e e e B A aXsXuXqXiX",
"yXtXyXuXyXU B F iXiXyXyXtXtXrXeXrXtXiXiXiXw w sXiX5 1 &X2 6 nXeXwXeXeXeXwXqXqX8X6X3X4X0XqXqXtXtXiXiXiXMXmXe e e sXB A aXsXuXqXiX",
"uXtXtXyXtXU B F iXuXyXtXtXrXrXrXvXnXiXaXaXw MXw mXyX# c &X< < # 8 wX9X9X9X8X8X6X4X8X8XqXqX0XrXtXnXiXiXw mXw w mXw B A aXsXuXqXiX",
"uXtXtXyXtXU B F nXyXyXtXtXeXtXyXnXiXaXmXmXw MXw q w rXc *X&X%X$X%X=X6X8X5X4X5X>X7X8X8X0XqX0XrXtXnXq iXw mXw mXmXaXB A aXsXuXqXiX",
"iXtXrXrXrXU B F nXuXyXtXtXyXnXnXmXmXMXq q q q q mX0 uX9X&X%X%X$X$X$X$X=X3X3X;X-XqX7X8X0X0XqXrXuXyXiXiXw mXaXmXmXmXB A aXsXuXqXiX",
"iXyXrXrXrXU B F 0 yXyXnXvXnXmXq q MXq q q mXq w nXiXyXuX1 =X%X&X$X$X$X%X=X>X%X;X8X0X8X0X0XwXrXuXyXq mXw mXw e sXw B A aXsXuXqXiX",
"iXuXtXrXrXU B F nXnXnXq q iXiXq q mXmXmXmXq q q q nXq q wX=X&X$X$X$X$X$X&X5X-X7X0X8X8X0X0XqXrXtXq q iXmXmXmXmXmXmXB A aXsXuXqXiX",
"iXuXtXrXrXU B F tXvX0 0 iXiXnXyXnXq nXiXyX$ nXiXiXnXnXiXyXyX;X%X$X$X$X$X;X4X4X6XwX9X0X0X0XqXrXtXyXq iXw w mXmXe mXB A aXsXuXqXuX",
"iXiXyXrXtXU B F tXvXvX$ tXvXrXrXvXiXiXiXyX$ rXvXvX0 0 yXyXyXeXc $X$X$X%X6 9X6X;XtX9XqX0X0XqXrXyXyXq iXiXw mXaXw sXB A aXsXuXqXuX",
"iXiXuXtXtXU B F rXrXrXwXrXrXrXwX$ vXyXyXiXwXrX$ rXrXvXyXyXyXtX8 $X&X$X%XtXeX6 &XtX9XqXrXeXrXtXyX0 nXmXw aXw w w w B A aXsXuXqXyX",
"iXiXuXtXyXU B F wXwXqXqXeXqX$ wX$ rXvXyXyXrXqXeXrXeXrX$ rXrXrXyX5 $X*X%XwXuXeX2 tX8X8X9XrXyXyXnXiXq mXe w w w mXmXB A aXsXuXqXyX",
"iXiXiXyXyXU B F wXqXqX9XqX9XqXqXwX$ $ $ vXtX7 qXqX9XqXqXwXrXrXwXtX# %X&X5 iXtX6 qXrX6X9XqXwXtXuXiXq mXw e e e e e B A aXsXuXqXtX",
"iXiXiXuXuXU B F rXwXqX9X9X8XqXqXwXqXwX$ rXtXqX8X8X8X8X9X9XqXqXrXwXtX=X&X6 nXyX9X6XrX6X9X8X9X9XqXyXiXmXmXmXmXmXmXmXB A aXsXuXqXtX",
"uXiXiXiXiXU B F yXwXqX9X8X8X9XqX9X9X9XqXeXrXrX8X7X9X7X8X8X8X9X9XwXeXqX=XvXnXiXwX# wX6X7X7X6X7X8X9X9XyXsXmXw e w w B A aXsXuXqXrX",
"uXiXiXiXiXU B Z B B B B B B B B B B B B B B B B B B B B B B B B B B B B B B B B B B B B B B B B B B B B B B B B B B A aXsXuXqXrX",
"yXiXiXiXiXU B A A A A A A A A A A A A A A A A A A A A A A A A A A A A A A A A A A A A A A A A A A A A A A A A A A A A aXsXuXqXrX",
"yXuXiXiXiXB aXaXaXaXaXaXaXaXaXaXaXaXaXaXaXaXaXaXaXaXaXaXaXaXaXaXaXaXaXaXaXaXaXaXaXaXaXaXaXaXaXaXaXaXaXaXaXaXaXaXaXaXaXaXsXuXqXrX",
"tXuXiXiXiXuXtXaXyXsXuXyXaXaXaXaXaXaXaXaXaXaXaXaXaXaXyXsXuXyXaXaXaXaXyXsXuXyXaXaXaXaXaXaXyXsXuXyXaXaXaXaXaXaXaXaXaXaXaXyXsXuXqXrX",
"tXyXiXiXiXuXtXuXqXsXuXqXiXiXiXiXyXiXiXiXiXtXrXrXyXuXqXsXuXqXtXyXiXuXqXsXuXqXiXiXiXiXiXuXqXsXuXqXyXiXrXyXiXiXiXiXiXiXuXqXsXuXqXrX",
"yXyXyXyXyXyXyXuXqXsXuXqXyXiXiXiXiXiXiXiXyXyXyXyXyXuXqXsXuXqXyXiXiXuXqXsXuXqXyXiXiXiXyXuXqXsXuXqXyXiXyXyXiXiXiXiXiXiXuXqXsXuXqXyX"
};
