/* XPM */
static char *_594945793848[] = {
/* columns rows colors chars-per-pixel */
"128 128 57 1 ",
"  c #131313",
". c gray9",
"X c #1B1B1B",
"o c gray12",
"O c #1E371E",
"+ c #232323",
"@ c gray15",
"# c #282828",
"$ c #282F28",
"% c #2B2E2D",
"& c #2E2C2E",
"* c #322D22",
"= c #223322",
"- c #273C27",
"; c #2B3827",
": c #263328",
"> c #3D3626",
", c #363228",
"< c #2F3B3C",
"1 c #2F3F3F",
"2 c #303032",
"3 c #323737",
"4 c #35353B",
"5 c #3A3A3A",
"6 c #423629",
"7 c #453F2A",
"8 c #4F3F2B",
"9 c #43333F",
"0 c #2D4025",
"q c #344D2D",
"w c #3D5935",
"e c #5B4326",
"r c #53472C",
"t c #3D3D43",
"y c #434343",
"u c #4E4E4E",
"i c #444450",
"p c #4B4B55",
"a c gray34",
"s c #6D4858",
"d c #446343",
"f c #4D6E4E",
"g c #527456",
"h c #555560",
"j c #5E5E6D",
"k c gray39",
"l c gray43",
"z c #676774",
"x c #777777",
"c c #72727F",
"v c #7A7A89",
"b c #848484",
"n c #878795",
"m c #939393",
"M c #91919F",
"N c #A2A2A2",
"B c #A5A5AE",
/* pixels */
"u#8t757y6555uautikkhallkkxvblb-525y=5y=5uaat=kklaau3kauyyuyyytlaaltyyyuyyuak3uaalkk=taau5=y5=y525-blbvxkkllahkkituau5556y757t8#u",
"to58y847&5&4yuy@@tuytuuayakllb=4&25=ty=5tuat=uuaaayikkuuty&,&&appa&&,&ytuukkiyaaauu=taut5=yt=52&4=bllkayauutyut@@yuy4&5&748y85ot",
"4oX@*@*+@@@+@&@o+##&@@@&#&25ta=&@@%=#&:&@&#&#&#&#&&&&5y4#&@++#5tt5#++@&#4y5&&&&#&#&#&#&@&:&#=%@@&=at52&#&@@@&##+o@&@+@@@+*@*@Xo4",
"&#@@@44#&*#*#&&&&#&&@@+@&&45ty=4&2&5yt&%&&&&&#&&&&&@@@+@&#&#&#&22&#&#&#&@+@@@&&&&&#&&&&&%&ty5&2&4=yt54&&@+@@&&#&&&&#*#*&#44@@@#&",
"@2tpuauyiuaut55$;;:#@##@$2;$$3=#####&2;;0####@@@@@@@@++@###@########@###@++@@@@@@@@####0;;2&#####=3$$;2$@##@#:;;$55tuauiyuaupt2@",
"&ulvmbbvbbmbgdw-0q-++@@;0qq-;;;@2#@@:0qqq$@@@@@@@+o++o++@=++@@@++@@@++=@++o++o+@@@@@@@$qqq0:@@#2@;;;-qq0;@@++-q0-wdgbmbbvbbmvlu&",
"2alnbmnbbxnmgwq-u0=++#@0qqq@O-=2&&#@=qdq$@@@@@@@@@@++o++#=@@@@@@@@@@@@=#++o++@@@@@@@@@@$qdq=@#&&2=-O@qqq0@#++=0u-qwgmnxbbnmbnla2",
"&ylxlxxhauuzaq0yl-#+@2$wwww=##&####@@-wO#@@@@@@@@@@+oX+@2$#@@@@@@@@@@#$2@+Xo+@@@@@@@@@@#Ow-@@####&##=wwww$2@+#-ly0qazuuahxxlxly&",
"#2akkllkuyauu0-km==+@2@0q00@@=@@@##@o=q&@++@@@+++@@@oX+@2$#@@@@@@@@@@#$2@+Xo@@@+++@@@++@&q=o@##@@@=@@00q0@2@+==mk-0uuayukllkka2#",
"@otu4uai59kay--bm$#+#4&=00=@@@@@@@@@o+0&#@@@@++oo+++oX+#4&#@@@@@@@@@@#&4#+Xo+++oo++@@@@#&0+o@@@@@@@@@=00=&4#+#$mb--yak95iau4uto@",
"@+puauyt4ykxu3=bByXo@2&#O0@@@@+@@@@+Xo-#@@@@++oXo+@@+Xo@2&#@@@@@@@@@@#&2@oX+@@+oXo++@@@@#-oX+@@@@+@@@@0O#&2@oXyBb=3uxky4tyuaup+@",
"@2aallkpuulcky=xmkXo@&&@O-@@@+@@+@@@oo-@#@@@++ooo+++oXo@&&@@@@@@@@@@@@&&@oXo+++ooo++@@@#@-oo@@@+@@+@@@-O@&&@oXkmx=ykcluupkllaa2@",
"@5kaxbkkykcbla=amlXo@##@@=++++@+@@@+ooO@#@@@@+oooo++oXo@##@@@++oo++@@@##@oXo++oooo+@@@@#@Ooo+@@@+@++++=@@##@oXlma=albckykkbxak5@",
"+2aaalkkualkxk5pbkXo@##++=oooo++++++ooO&&@@@@+oooooooXo@##++oooXXooo++##@oXooooooo+@@@@&&Ooo++++++oooo=++##@oXkbp5kxklaukklaaa2+",
"o@tuiayauukklxulkao@&&#++ooXXooooo$oXo=2&@+@@+oXXXoooo@&&#$$$oXXXXo$$$#&&@ooooXXXo+@@+@&2=oXo$oooooXXoo++#&&@oakluxlkkuuayaiut@o",
"o+uyuptytuahkaahuyo@==@@@@==@+XXX@=@ o=2@$:@@+oXXXo$;;$&&=0d0@XXXX@0d0=&&$;;$oXXXo+@@:$@2=o @=@XXX+@==@@@@==@oyuhaakhautytpuyu+o",
"o+#&&&&&@&&&%&2445=-q0-===0==@+oo:0:o+$2Odw<@+$=::00dd0;$@dfw3@oo@3wfd@$;0dd00::=$+@<wdO2$+o:0:oo+@==0===-0q-=5442&%&&&@&&&&&#+o",
"oX@+#&&2&&&$&4555t-qdd00=qqww-=@=-q0@@$qwwdw;$:;0qwdffdwqqqqq3@oo@3qqqqqwdffdwq0;:$;wdwwq$@@0q-=@=-wwqq=00ddq-t5554&$&&&2&&#+@Xo",
"@5aulkakalmmblkapy-dww0a0qq000q=00-O&#&ydqwdq@$==0qddww0:@O=$@oooo@$=O@:0wwddq0==$@qdwqdy&#&O-00=q000qq0a0wwd-ypaklbmmlakaklua5@",
"@ykkxbxvxbmmNnblkk-qd0yl-quuy-0#-==@#@@0wqqdq$#2#:-qw0=@@@+++ooXXoo+++@@@=0wq-:#2#$qdqqw0@@#@==-#0-yuuq-ly0dq-kklbnNmmbxvxbxkky@",
"+5k5uuuxlukklluaaa=-w-ab=0kku===@@@@@@@;q0-wd;@&#@O=q=@@@+++++oXXo+++++@@@=q=O@#&@;dw-0q;@@@@@@@===ukk0=ba-w-=aaaullkkulxuuu5k5+",
"+rapuatkbjuaaaauaa3=q3lvy-bnkwO@@@@@@@@:0:-qw00&#++=0=@@+++++oXXXXo+++++@@=0=++#&00wq-:0:@@@@@@@@Owknb-yvl3q=3aauaaaaujbktaupar+",
"+ulapuyalkut5uttyyy50ukla=vbzq==@@@@@@@$-+=0q-0&#@+@--+++o+++oXXXXo+++o+++--@+@#&0-q0=+-$@@@@@@@==qzbv=alku05yyyttu5tuklayupalu+",
"+ylauyyuaauiyut5&5uu-kkzl=xxk+#&@@@@@@@=O@@-0O@2#@@@-O++++++++XXXX++++++++O-@@@#2@O0-@@O=@@@@@@@&#+kxx=lzkk-uu5&5tuyiuaauyyualy+",
"+ulatu&yakuyauy&#4uk=lzlkylml+@#@@@@@@@$=+@-O+#2#@@+O@++++ooooXXXXoooo++++@O+@@#2#+O-@+=$@@@@@@@#@+lmlyklzl=ku4#&yuayukay&utalu+",
"o&au55&#tauraayyyyah$lxcxkkbl$@@@@+@@@@+$++OO+@&#@++=o+++oo+ooXXXXoo+oo+++o=++@#&@+OO++$+@@@@+@@@@$lbkkxcxl$hayyyyaaruat#&55ua&o",
"+@yyyy55tuauuupahuty3lxxvnxbv=++@@o+++oooooO@+@&@++o=o+++ooooXXXXXXoooo+++o=o++@&@+@Oooooo+++o@@++=vbxnvxxl3ytuhapuuuaut55yyyy@+",
"+&4t585y55uyypaytu&&tjxvxbbmko@;wq@XXXXXXXX=@+@#@ooXXXXXXXXXXXXXXXXXXXXXXXXXXoo@#@+@=XXXXXXXX@qw;@okmbbxvxjt&&utyapyyu55y585t4&+",
"+56t>455t&&&&445&y5&tuaxxlzka@0qwq:oooXXX++=+@##++ooo@:0qw0XXXXXXXXXX0wq0:@ooo++##@+=++XXXooo:qwq0@akzlxxaut&5y&544&&&&t554>t65+",
"@@@@++#@#@oo@+@+@+&@&%45uttuy$wwdw=+++++@@@$@#&#@+@++@;dwq:@@@@++@@@@:qwd;@++@+@#&#@$@@@+++++=wdww$yuttu54%&@&+@+@+@oo@#@#++@@@@",
"@@#&#&#@++oo@&@&@&#&5tuyu4y3&@0qw0@@@@@#&22$###@@@Odw<$www;=@@@@@@@@=;www$<wdO@@@###$22&#@@@@@0wq0@&3y4uyut5&#&@&@&@oo++@#&#&#@@",
"@uaaauuaaklxlzayt3w0%@&##@@@@@;0q=@@$&3532&@@@@+++=0q;@;000@@@@@@@@@@000;@;q0=+++@@@@&2353&$@@=q0;@@@@@##&@%0w3tyazlxlkaauuaaau@",
"&ulvmbbvbbmbgdw-0q-++@@@;wq-0-;;2#@@:qqqq$@@@@@@@+o+:$+$::++@@@++@@@++::$+$:+o+@@@@@@@$qqqq:@@#2;;-0-qw;@@@++-q0-wdgbmbbvbbmvlu&",
"2alnbmnbbxnmgwq-u0=++#@0qdq@O;=2&&#@=qdq$@@@@@@@@@@++++@@=@@@@@@@@@@@@=@@++++@@@@@@@@@@$qdq=@#&&2=;O@qdq0@#++=0u-qwgmnxbbnmbnla2",
"&ylxlxxhauuzaq0yl-#+@2$wwww=#$&####@@-wO#@@@@@@@@@@++o+@$$#@@@@@@@@@@#$$@+o++@@@@@@@@@@#Ow-@@####&$#=wwww$2@+#-ly0qazuuahxxlxly&",
"#2akkllkuyauu0-km==+@2@0q00@@@@@@##@o=q&@++@@@+++@@@oo+@&$#@@@@@@@@@@#$&@+oo@@@+++@@@++@&q=o@##@@@@@@00q0@2@+==mk-0uuayukllkka2#",
"@otu4uai59kay--bm$#+#4&=00=@@@@@@@@@o+0&#@@@@++oo++++o+@&&#@@@@@@@@@@#&&@+o++++oo++@@@@#&0+o@@@@@@@@@=00=&4#+#$mb--yak95iau4uto@",
"@+puauyt4ykxu3=bByXo@2&#O0@@@@+@@@@+Xo-#@@@@++oXo+@@+oo@&&#@@@@@@@@@@#&&@oo+@@+oXo++@@@@#-oX+@@@@+@@@@0O#&2@oXyBb=3uxky4tyuaup+@",
"@2aallkpuulcky=xmkXo@&&@O-@@@+@@+@@@oo-@#@@@++ooo+++ooo@&&@@@@@@@@@@@@&&@ooo+++ooo++@@@#@-oo@@@+@@+@@@-O@&&@oXkmx=ykcluupkllaa2@",
"@5kaxbkkykcbla=amlXo@##@@=++++@+@@@+ooO@#@@@@+oooo++ooo@##@@@++oo++@@@##@ooo++oooo+@@@@#@Ooo+@@@+@++++=@@##@oXlma=albckykkbxak5@",
"+2aaalkkualkxk5pbkXo@##++=oooo++++++ooO&&@@@@+ooooooooo@##++oooXXooo++##@ooooooooo+@@@@&&Ooo++++++oooo=++##@oXkbp5kxklaukklaaa2+",
"o@tuiayauukklxulkao@&&#++ooXXooooo$oXo=2&@+@@+oXXXooo+@&&#$$$oXXXXo$$$#&&@+oooXXXo+@@+@&2=oXo$oooooXXoo++#&&@oakluxlkkuuayaiut@o",
"o+uyuptytuahkaahuyo@==@@@@==@+XXX@=@ o=2@$:@@+oXXXo$;;$&&=0d0@XXXX@0d0=&&$;;$oXXXo+@@:$@2=o @=@XXX+@==@@@@==@oyuhaakhautytpuyu+o",
"o+#&&&&&@&&&%&2445=-q0-===0==@+oo:0:o+$2Odw<@+$=::00dd0;$@dfw3@oo@3wfd@$;0dd00::=$+@<wdO2$+o:0:oo+@==0===-0q-=5442&%&&&@&&&&&#+o",
"oX@+#&&2&&&$&4555t-qdd00=qqww-=@=-q0@@$qwwdw;$:;0qwdffdwqqqqq3@oo@3qqqqqwdffdwq0;:$;wdwwq$@@0q-=@=-wwqq=00ddq-t5554&$&&&2&&#+@Xo",
"@5aulkakalmmblkapy-dww0a0qq000q=00-O&#&ydqwdq@$==0qddww0:@O=$@oooo@$=O@:0wwddq0==$@qdwqdy&#&O-00=q000qq0a0wwd-ypaklbmmlakaklua5@",
"@ykkxbxvxbmmNnblkk-qd0yl-quuy-0#-==@#@@0wqqdq$#2#:-qw0=@@@+++ooXXoo+++@@@=0wq-:#2#$qdqqw0@@#@==-#0-yuuq-ly0dq-kklbnNmmbxvxbxkky@",
"+5k5uuuxlukklluaaa=-w-ab=0kku===@@@@@@@;q0-wd;@&#@O=q=@@@+++++oXXo+++++@@@=q=O@#&@;dw-0q;@@@@@@@===ukk0=ba-w-=aaaullkkulxuuu5k5+",
"+rapuatkbjuaaaauaa3=q3lvy-bnkwO@@@@@@@@:0:-qw00&#++=0=@@+++++oXXXXo+++++@@=0=++#&00wq-:0:@@@@@@@@Owknb-yvl3q=3aauaaaaujbktaupar+",
"+ulapuyalkut5uttyyy50ukla=vbzq==@@@@@@@$-+=0q-0&#@+@--+++o+++oXXXXo+++o+++--@+@#&0-q0=+-$@@@@@@@==qzbv=alku05yyyttu5tuklayupalu+",
"+ylauyyuaauiyut5&5uu-kkzl=xxk+#&@@@@@@@=O@@-0O@2#@@@-O++++++++XXXX++++++++O-@@@#2@O0-@@O=@@@@@@@&#+kxx=lzkk-uu5&5tuyiuaauyyualy+",
"+ulatu&yakuyauy&#4uk=lzlkylml+@#@@@@@@@$=+@-O+#2#@@+O@++++ooooXXXXoooo++++@O+@@#2#+O-@+=$@@@@@@@#@+lmlyklzl=ku4#&yuayukay&utalu+",
"o&au55&#tauraayyyyah$lxcxkkbl$@@@@+@@@@+$++OO+@&#@++=o+++oo+ooXXXXoo+oo+++o=++@#&@+OO++$+@@@@+@@@@$lbkkxcxl$hayyyyaaruat#&55ua&o",
"+@yyyy55tuauuupahuty3lxxvnxbv=++@@o+++oooooO@+@&@++o=o+++ooooXXXXXXoooo+++o=o++@&@+@Oooooo+++o@@++=vbxnvxxl3ytuhapuuuaut55yyyy@+",
"+&4t585y55uyypaytu&&tjxvxbbmko@;wq@XXXXXXXX=@+@#@ooXXXXXXXXXXXXXXXXXXXXXXXXXXoo@#@+@=XXXXXXXX@qw;@okmbbxvxjt&&utyapyyu55y585t4&+",
"+56t>455t&&&&445&y5&tuaxxlzka@0qwq:oooXXX++=+@##++ooo@:0qw0XXXXXXXXXX0wq0:@ooo++##@+=++XXXooo:qwq0@akzlxxaut&5y&544&&&&t554>t65+",
"@@@@++#@#@oo@+@+@+&@&%45uttuy$wwdw=+++++@@@$@#&#@+@++@;dwq:@@@@++@@@@:qwd;@++@+@#&#@$@@@+++++=wdww$yuttu54%&@&+@+@+@oo@#@#++@@@@",
"@@#&#&#@++oo@&@&@&#&5tuyu4y3&@0qw0@@@@@&222$###@@@Odw<$www;=@@@@@@@@=;www$<wdO@@@###$222&@@@@@0wq0@&3y4uyut5&#&@&@&@oo++@#&#&#@@",
"@uaaauuaaklxlzayt3w0%@&##@@@@@=0q=@@@@#242&@@@@+++=0dw@0q00@@@@@@@@@@00q0@wd0=+++@@@@&242#@@@@=q0=@@@@@##&@%0w3tyazlxlkaauuaaau@",
"@5lkaauupakkjasaktdqq&2##@@@@@@O0@@@++@24&#@@@++o+=-wdq=00=#@@@@@@@@#=00=qdw-=+o++@@@#&42@++@@@0O@@@@@@##2&qqdtkasajkkapuuaakl5@",
"@&aauuy644&5uiaakk0qwq3##@@@@@@O-@#@+@#22#@@@@++oo+$qdq$O0@#@@@@@@@@#@0O$qdq$+oo++@@@@#22#@+@#@-O@@@@@@##3qwq0kkaaiu5&446yuuaa&@",
"#&uuuks595@@4tauaa-qdd3#@@@@@@@@-@@@@@#&&@@@@@+oooo@-wq;O-@@@@@@@@@@@@-O;qw-@oooo+@@@@@&&#@@@@@-@@@@@@@@#3ddq-aauat4@@595skuuu&#",
"#5lkklxu555&@@yykk:0qw3@@@@@@@@@O@@@@@#&#@@@@++ooooo-qw0@=@@@@@@@@@@@@=@0wq-ooooo++@@@@#&#@@@@@O@@@@@@@@@3wq0:kkyy@@&555uxlkkl5#",
"#5kkaaaay4t5@&utkk=:-d0@@@++@@@@O@+@+@@&#@++++oXXoo+=0d-0=@@@++++++@@@=0-d0=+ooXXo++++@#&@@+@+@O@@@@++@@@0d-:=kktu&@5t4yaaaakk5#",
"@&yaytyuuyy74%yyla0==w;@+++++@@@=@@++@&&#@+ooooXoo+o@-wO@@@++++oo++++@@@Ow-@o+ooXoooo+@#&&@++@@=@@@+++++@;w==0alyy%47yyuuytyay&@",
"@2yyiyuuuy8y8tuyka;o@q;@++++@@@@=@@@@@--@$$$$$oXXXoo@Oq@#@@++++oo++++@@#@qO@ooXXXo$$$$$@--@@@@@=@@@@++++@;q@o;akyut8y8yuuuyiyy2@",
"&puuuuaau7tryyyyka$=@0$@@@+o+@##$@@#####$300q-:@@o+++O0@#@@@@++@@++@@@@#@0O+++o@@:-q003$#####@@$##@+o+@@@$0@=$akyyyyrt7uaauuuup&",
"#uaauakauyyuyyytiy@@$-$@@@oX+@&&$#&22&##@;qwww0;$$++@=-@@@@@@o++++o@@@@@@-=@++$$;0wwwq;@##&22&#$&&@+Xo@@@$-$@@yityyyuyyuakauaau#",
"+5aayikkuuty&,&&5500qO=@++oXo@&2#&&2&#@#&@==:00:@+++@$-@@+@++oXXXXo++@+@@-$@+++@:00:==@&#@#&2&&#2&@oXo++@=Oq0055&&,&ytuukkiyaa5+",
"o+#&&&&5y4#&@++=-q0qdq-=oooXo@&2#&&&#@@@###@@$-@@+o+@@O++++oooXXXXooo++++O@@+o+@@-$@@###@@@#&&&#2&@oXooo=-qdq0q-=++@&#4y5&&&&#+o",
"o#&&&@@@+@&#&#&-qd0dqq++o=o=-qd00=@@@@@@@@@@++=@@ooo+@O++++oooXXXXooo++++O@+ooo@@=++@@@@@@@@@@=00dq-=o=o++qqd0dq-&#&#&@+@@@&&&#o",
"X2uabmmmxxxklxb-dw0qdqya0wd=dggwq-@@@@@++@@@oX=+@oooo+=+++ooooX  Xoooo+++=+oooo@+=Xo@@@++@@@@@-qwggd=dw0ayqdq0wd-bxlkxxxmmmbau2X",
"+4havmNmnbvbcbn-qd=qq0alwd0=wwgww-q@@@@@@@@+oX=@@++ooo=++@+++oXXXXo+++@++=ooo++@@=Xo+@@@@@@@@q-wwgww=0dwla0qq=dq-nbcbvbnmNmvah4+",
"@5y4uhlvbxxvlzx=-w=00=kfdw;$0wwdq=@@@@@@$$@--X@@@@++++$+++o$;$oooo$;$o+++$++++@@@@X--@$$@@@@@@=qdww0$;wdfk=00=w-=xzlvxxbvlhu4y5@",
"+#3&5ukxvbxbxxvy=qy--=twdqyt-ddw0==O$O-qd00:-o@@@+++++$++o:1q-$XX$-q1:o++$+++++@@@o-:00dq-O$O==0wdd-tyqdwt=--yq=yvxxbxbvxku5&3#+",
"@2t@taalxxxvxlxay0a=;y;qw-ah:qwq-@-O-0dffwq;++##@+oooo+oo:1wdd;oo;ddw1:oo+oooo+@##++;qwffd0-O-@-qwq:ha-wq;y;=a0yaxlxvxxxlaat@t2@",
"#45&ukklxlxxxbxca-l=5y-wq-xxyqq0=@=@@0wwg0w;@#&&&@@+oo+@@qwfd0;++;0dfwq@@+oo+@@&&&#@;w0gww0@@=@=0qqyxx-qw-y5=l-acxbxxxlxlkku&54#",
"&yyukkllbbxvbvbcc=lyua0d05xxay0-=@@@@;0wd0q2222&&#@@++@@#Oqwq0:@@:0qwqO#@@++@@#&&2222q0dw0;@@@@=-0yaxx50d0auyl=ccbvbvxbbllkkuyy&",
"&uukkkkkxmbnvbxxc$xaayyw-uxlka-=@@@@+$-dd002&&#####@@++#&@0000@@@@0000@&#++@@#####&&200dd-$+@@@@=-aklxu-wyyaax$cxxbvnbmxkkkkkuu&",
"&uakkhajxxbvbcxlxyxlkaaq=klkak-=@@@+o@;qw--$&##@@@@@+o+@22;--@@@@@@--;22@+o+@@@@@##&$--wq;@o+@@@=-kaklk=qaaklxyxlxcbvbxxjahkkau&",
"#5zlauiajxclzljulullkuz0=kjaua=#++++oX$-0OO$@@@+@@@@+o+@&&$O@@@@@@@@O$&&@+o+@@@@+@@@$OO0-$Xo++++#=auajk=0zukllulujlzlcxjaiualz5#",
"@@aky@&yyauuuiyttuaptia-=uytuu=2++++oX+O-$=##@+++@+@+oo@&&#=@@@@@@@@=#&&@oo+@+@+++@##=$-O+Xo++++2=uutyu=-aitpauttyiuuuayy&@yka@@",
"@+#t4q++@0w02&4+--%&#&2-#&#@#&=@@@++oX+@-$$@@+ooo+@@+oo@##@=@@@@@@@@=@##@oo+@@+ooo+@@$$-@+Xo++@@@=&#@#&#-2&#&%--+4&20w0@++q4t#+@",
"o@&-0w0=4wgw5$-0ww00-d##t5&$&&@$++++oo@#&@@++oooo+++oXo+#@@+++oooo+++@@#+oXo+++oooo++@@&#@oo++++$@&&$&5t##d-00ww0-$5wgw4=0w0-&@o",
"+5=0qq0dawqqqqwwggX++$wwwwq;ooo++++++o@#&#@+oooooo+ooXo+$;:@+ooXXoo+@:;$+oXoo+oooooo+@#&#@o++++++ooo;qwwww$++Xggwwqqqqwad0qq0=5+",
"@55y0-wlkuzacgwwwdo@+@0qd00:oo++++@@@@##&#@@:@+oooXooo@:0qw0ooXooXoo0wq0:@oooXooo+@:@@#&##@@@@++++oo:00dq0@+@odwwwgcazuklw-0y55@",
"++yu--azlkkhkjayqw++@@=0w=-=+@@@@@@@@@#&22$0q0:+++o+++@;dfq:++oooo++:qfd;@+++o+++:0q0$22&#@@@@@@@@@+=-=w0=@@++wqyajkhkklza--uy++",
"++,a=-llllclalptww@@@@@Oq@O@+@&&#@##&&&&&&=wdw-@@++++@@=qf0=@+oooo+@=0fq=@@++++@@-wdw=&&&&&&##@#&&@+@O@qO@@@@@wwtplalcllll-=a,++",
"+#&u3-lzkxbclka55q@@@@@O0@=+o@22&###&2&##@--qw:@#@@@@@@=0d0@@+oXXo+@@0d0=@@@@@@#@:wq--@##&2&###&22@o+=@0O@@@@@q55aklcbxkzl-3u&#+",
"@5uuy-lkclcxlxc5;0@@@+@@-@$oo@&2&####&&#@@O:-0=@@@+++@@=-w-@@oXXXXo@@-w-=@@+++@@@=0-:O@@#&&####&2&@oo$@-@@+@@@0;5cxlxclckl-yuu5@",
"#ylphylzxcbbxlxy--@@@+@@O+oXX+&42&#@@###@@++=0$@@@+++@@@Oqq@+oXXXXo+@qqO@@@+++@@@$0=++@@###@@#&24&+XXo+O@@+@@@--yxlxbbcxzlyhply#",
"+axlkallxlvbxkxu:==+++@@=+o. +&42&#@###@@@@++O$@@+ooo+++@00@+o    o+@00@+++ooo+@@$O++@@@@###@#&24&+ .o+=@@+++==:uxkxbvlxllaklxa+",
"+uxkklkllcblkaxky&+ooo++$oo  +#2&#@@@@@@@+++oO$@@+oo++ooo-++oo    oo++-ooo++oo+@@$Oo+++@@@@@@@#&2#+  oo$++ooo+&ykxaklbcllklkkxu+",
"X5xauaaaalxkkuklutoooooo+oX@@@&&@@@@@@@+++@++=$@@oooooooo-+ooX    Xoo+-oooooooo@@$=++@+++@@@@@@@&&@@@Xo+ooooootulkukkxlaaaauax5X",
".#t5&&&445uy54tyuuooooooXoo0q;@2#@@@@$$:@@@++o@@@+oo+ooooO@XooX  XooX@Ooooo+oo+@@@o++@@@:$$@@@@#2@;q0ooXoooooouuyt45yu544&&&5t#.",
"+&5554555tyyt=##yaoooo--o@@-=q0@&@@@$0fqO$@@@+@@@+oooooooO+o++oXXo++o+Oooooooo+@@@+@@@$Oqf0$@@@&@0q=-@@o--ooooay##=tyyt5554555&+",
"+XoooO-@oo+#=qg0y===00dd0-<q--w42qdddwfdq$@@@@@@@+o++o++@=++@@@++@@@++=@++o++o+@@@@@@@$qdfwdddq24w--q<-0dd00===y0gq=#+oo@-OoooX+",
"#iy2+@#2uu&#;dgwd--qwdggw#%0w0#4wwwqqq0q$@@@@@@@@@@++o++#=@@@@@@@@@@@@=#++o++@@@@@@@@@@$q0qqqwww4#0w0%#wggdwq--dwgd;#&uu2#@+2yi#",
"@yp53&&&hu4&5qdqw=30qddwq03-dqq#0q00@-wqq@@@@@@@@@@+oX+@2$#@@@@@@@@@@#$2@+Xo+@@@@@@@@@@qqw-@00q0#qqd-30qwddq03=wqdq5&4uh&&&35py@",
"#yaaaaytuayuyqw-qayq-qw0;55#0qwq@00=o=q0=++@@@+++@@@oX+@2$#@@@@@@@@@@#$2@+Xo@@@+++@@@++=0q=o=00@qwq0#55;0wq-qyaq-wqyuyautyaaaay#",
"#ulallzklkakayq50uaay-q=$@5=-qdd@O0@o+0&#@@@@++oo+++oX+#4&#@@@@@@@@@@#&4#+Xo+++oo++@@@@#&0+o@0O@ddq-=5@$=q-yaau05qyakaklkzllalu#",
"#pxlxlbxxzkkla0y-kaku30=2&#@30qw@O-+Xo-#@@@@++oXo+@@+Xo@2&#@@@@@@@@@@#&2@oX+@@+oXo++@@@@#-oX+-O@wq03@#&2=03ukak-y0alkkzxxblxlxp#",
"@ulkjkzlllzkka-u-kaaay--t5#&50-d0@=@oo-@#@@@++ooo+++oXo@&&@@@@@@@@@@@@&&@oXo+++ooo++@@@#@-oo@=@0d-05&#5t--yaaak-u-akkzlllzkjklu@",
"+5aaaakzllkaah-u=aytuu-=y7,%u55w-@=+ooO@#@@@@+oooo++oXo@##@@@++oo++@@@##@oXo++oooo+@@@@#@Ooo+=@-w55u%,7y=-uutya=u-haakllzkaaaa5+",
"o4akhkkkklkaka=a=uiyuu=y8y5tuyuq+++=ooO&&@@@@+oooooooXo@##++oooXXooo++##@oXooooooo+@@@@&&Ooo=+++quyut5y8y=uuyiu=a=akaklkkkkhka4o",
"+5aakhakakkzkk=zuuuuaa=7tryyyyk0oo$qXo=2&@+@@+oXXXoooo@&&#$$$oXXXXo$$$#&&@ooooXXXo+@@+@&2=oXq$oo0kyyyyrt7=aauuuuz=kkzkkakahkaa5+",
"+2tyu55uuakaak=laauaka3yyuyyytk-X@$w o=2@$:@@+oXXXo$;;$&&=0d0@XXXX@0d0=&&$;;$oXXXo+@@:$@2=o w$@X-ktyyyuyy3akauaal=kaakauu55uyt2+",
"+&5tty45tuattu$aaayikk5uty&,&&a=o:0wo+$2Odw<@+$=::00dd0;$@dfw3@oo@3wfd@$;0dd00::=$+@<wdO2$+ow0:o=a&&,&ytu5kkiyaaa$uttaut54ytt5&+",
"++%&#&@#@&#&#&#&#&&&&5y4#&@++#5==-=q@@$qwwdw;$:;0qwdffdwqqqqq3@oo@3qqqqqwdffdwq0;:$;wdwwq$@@q=-==5#++@&#4y5&&&&#&#&#&#&@#@&#&%++",
"o&&5yt&#&&&&&##&&&#@#@@0wwg=@0&-00O0&#&ydqwdq@$==0qddww0:@O=$@oooo@$=O@:0wwddq0==$@qdwqdy&#&0O00-&0@=gww0@@#@#&&&##&&&&&#&ty5&&o",
"+5lkkaaaakkklkuy4@@@@@@;0wd=0=@#@0=@#@@0wqqdq$#2#:-qw0=@@@+++ooXXoo+++@@@=0wq-:#2#$qdqqw0@@#@=0@#@=0=dw0;@@@@@@4yuklkkkaaaakkl5+",
"+yxzlklkkzkcblkhi#+@@@+$-dd;-O@@@@O@@@@;q0-wd;@&#@O=q=@@@+++++oXXo+++++@@@=q=O@#&@;dw-0q;@@@@O@@@@O-;dd-$+@@@+#ihklbckzkklklzxy+",
"+&kxclzlkkhkjkzxk4+@@++@;qw:@OO@@@@@@@@:0:-qw00&#++=0=@@+++++oXXXXo+++++@@=0=++#&00wq-:0:@@@@@@@@OO@:wq;@++@@+4kxzkjkhkklzlcxk&+",
"+*kzxzlllclalhavk&++++o+$-0= +==@@@@@@@$-+=0q-0&#@+@--+++o+++oXXXXo+++o+++--@+@#&0-q0=+-$@@@@@@@==+ =0-$+o++++&kvahlalclllzxzk*+",
"+@iazlzkxbclklhxa&+++++++O-@ +#&@@@@@@@=O@@-0O@2#@@@-O++++++++XXXX++++++++O-@@@#2@O0-@@O=@@@@@@@&#+ @-O+++++++&axhlklcbxkzlzai@+",
"+5uhllkclcxlxcxbk4o++++oo@-  +@#@@@@@@@$=+@-O+#2#@@+O@++++ooooXXXXoooo++++@O+@@#2#+O-@+=$@@@@@@@#@+  -@oo++++o4kbxcxlxclckllhu5+",
"+5paxlzxcbbxlxvmxto+++oo+oX  o@@@@+@@@@+$++OO+@&#@++=o+++oo+ooXXXXoo+oo+++o=++@#&@+OO++$+@@@@+@@@@o  Xo+oo+++otxmvxlxbbcxzlxap5+",
"@ylkxllxlvbxkxbmb5o+++oooo   o++@@o+++oooooO@+@&@++o=o+++ooooXXXXXXoooo+++o=o++@&@+@Oooooo+++o@@++o   oooo+++o5bmbxkxbvlxllxkly@",
"@yyklkllcblkaxxbc5-wq+ooXX  Xo@;wq@XXXXXXXX=@+@#@ooXXXXXXXXXXXXXXXXXXXXXXXXXXoo@#@+@=XXXXXXXX@qw;@oX  XXoo+qw-5cbxxaklbcllklkyy@",
"+y5uaaaalxkkuklxk0qdq=oX    X@0qwq=oo=XXX++=+@##++o$o@:0qw0XXXXXXXXXX0wq0:@o$o++##@+=++XXX=oo=qwq0@X    Xo=qdq0kxlkukkxlaaaau5y+",
"@@5&&&445uy54tyyawwww=@@++++@0qw00q+0q0=@=0qq0&#@+=q+@;dwq:@@@@++@@@@:qwd;@+q=+@#&0qq0=@=0q0+q00wq0@++++@@=wwwwayyt45yu544&&&5@@",
"22554555tyytyyyua0q00y5225yu-dgq=wd=wdw-u-dwq=5220qdq=2wqq2&52555525&2qqw2=qdq0225=qwd-u-wdw=dw=qgd-uy5225y00q0auyyytyyt55545522",
"i&hkbxxaaaaalxblxu00ykuytuak=qg0=-q--qw=k=qd0=yy#wwww=552#&2uyauuayu2&#255=wwww#yy=0dq=k=wq--q-=0gq=kautyuky00uxlbxlaaaaaxxbkh&i",
"k2yyuakxkjkkbMmbbk-0axkaukkl=0d0$5-==-w=l=0d0jkka0q00ayyy2##uuxxxxuu##2yyya00q0akkj0d0=l=w-==-5$0d0=lkkuakxa0-kbbmMbkkjkxkauyy2k",
"a2r55taaakllxbbbbxy-zkklaual5-w-$y5q=5q=xy-q-aaakq00=ay4t5@&utkkkktu&@5t4ya=00qkaaa-q-yx=q5=q5y$-w-5laualkkz-yxbbbbxllkaaat55r2a",
"u,y75tukauklmnbxbxa=zkxlkaukuyqq#iy0=u0=lay00huyuy-0yuuyy74%yylaalyy%47yyuuy0-yuyuh00yal=0u=0yi#qqyukuaklxkz=axbxbnmlkuakut57y,u",
"u&8t7yuuyuykbnbkllktllxlxlkkkk00&ya-=h-=klu-0ahuyu3-uuuy8y8tuykaakyut8y8yuuu-3uyuha0-ulk=-h=-ay&00kkkklxlxlltkllkbnbkyuyuuy7t8&u",
"u*yettyyyytukllkakkuxxxlbbbxkb-62tu-3u-3aka5-klzuuy=aau7tryyyykaakyyyyrt7uaa=yuuzlk-5aka3-u3-ut26-bkxbbblxxxukkakllkutyyyyttey*u"
};
