/* XPM */
static char *_594944582682[] = {
/* columns rows colors chars-per-pixel */
"64 64 256 2 ",
"   c black",
".  c #0000A8",
"X  c #00A800",
"o  c #00A8A8",
"O  c #A80000",
"+  c #A800A8",
"@  c #A85400",
"#  c gray66",
"$  c gray33",
"%  c #5454FC",
"&  c #54FC54",
"*  c #54FCFC",
"=  c #FC5454",
"-  c #FC54FC",
";  c #FCFC54",
":  c gray99",
">  c #ECECEC",
",  c gainsboro",
"<  c #D0D0D0",
"1  c #C0C0C0",
"2  c #B4B4B4",
"3  c gray66",
"4  c #989898",
"5  c gray55",
"6  c #7C7C7C",
"7  c gray44",
"8  c #646464",
"9  c gray33",
"0  c #484848",
"q  c gray22",
"w  c #2C2C2C",
"e  c #202020",
"r  c #FC0000",
"t  c #EC0000",
"y  c #E00000",
"u  c #D40000",
"i  c #C80000",
"p  c #BC0000",
"a  c #B00000",
"s  c #A40000",
"d  c #980000",
"f  c #880000",
"g  c #7C0000",
"h  c #700000",
"j  c #640000",
"k  c #580000",
"l  c #4C0000",
"z  c #400000",
"x  c #FCD8D8",
"c  c #FCB8B8",
"v  c #FC9C9C",
"b  c #FC7C7C",
"n  c #FC5C5C",
"m  c #FC4040",
"M  c #FC2020",
"N  c #FC0000",
"B  c #FCA85C",
"V  c #FC9840",
"C  c #FC8820",
"Z  c #FC7800",
"A  c #E46C00",
"S  c #CC6000",
"D  c #B45400",
"F  c #9C4C00",
"G  c #FCFCD8",
"H  c #FCFCB8",
"J  c #FCFC9C",
"K  c #FCFC7C",
"L  c #FCF85C",
"P  c #FCF440",
"I  c #FCF420",
"U  c #FCF400",
"Y  c #E4D800",
"T  c #CCC400",
"R  c #B4AC00",
"E  c #9C9C00",
"W  c #848400",
"Q  c #706C00",
"!  c #585400",
"~  c #404000",
"^  c #D0FC5C",
"/  c #C4FC40",
"(  c #B4FC20",
")  c #A0FC00",
"_  c #90E400",
"`  c #80CC00",
"'  c #74B400",
"]  c #609C00",
"[  c #D8FCD8",
"{  c #BCFCB8",
"}  c #9CFC9C",
"|  c #80FC7C",
" . c #60FC5C",
".. c #40FC40",
"X. c #20FC20",
"o. c #00FC00",
"O. c #00FC00",
"+. c #00EC00",
"@. c #00E000",
"#. c #00D400",
"$. c #04C800",
"%. c #04BC00",
"&. c #04B000",
"*. c #04A400",
"=. c #049800",
"-. c #048800",
";. c #047C00",
":. c #047000",
">. c #046400",
",. c #045800",
"<. c #044C00",
"1. c #044000",
"2. c #D8FCFC",
"3. c #B8FCFC",
"4. c #9CFCFC",
"5. c #7CFCF8",
"6. c #5CFCFC",
"7. c #40FCFC",
"8. c #20FCFC",
"9. c #00FCFC",
"0. c #00E4E4",
"q. c #00CCCC",
"w. c #00B4B4",
"e. c #009C9C",
"r. c #008484",
"t. c #007070",
"y. c #005858",
"u. c #004040",
"i. c #5CBCFC",
"p. c #40B0FC",
"a. c #20A8FC",
"s. c #009CFC",
"d. c #008CE4",
"f. c #007CCC",
"g. c #006CB4",
"h. c #005C9C",
"j. c #D8D8FC",
"k. c #B8BCFC",
"l. c #9C9CFC",
"z. c #7C80FC",
"x. c #5C60FC",
"c. c #4040FC",
"v. c #2024FC",
"b. c #0004FC",
"n. c #0000FC",
"m. c #0000EC",
"M. c #0000E0",
"N. c #0000D4",
"B. c #0000C8",
"V. c #0000BC",
"C. c #0000B0",
"Z. c #0000A4",
"A. c #000098",
"S. c #000088",
"D. c #00007C",
"F. c #000070",
"G. c #000064",
"H. c #000058",
"J. c #00004C",
"K. c #000040",
"L. c #282828",
"P. c #FCE034",
"I. c #FCD424",
"U. c #FCCC18",
"Y. c #FCC008",
"T. c #FCB400",
"R. c #B420FC",
"E. c #A800FC",
"W. c #9800E4",
"Q. c #8000CC",
"!. c #7400B4",
"~. c #60009C",
"^. c #500084",
"/. c #440070",
"(. c #340058",
"). c #280040",
"_. c #FCD8FC",
"`. c #FCB8FC",
"'. c #FC9CFC",
"]. c #FC7CFC",
"[. c #FC5CFC",
"{. c #FC40FC",
"}. c #FC20FC",
"|. c #FC00FC",
" X c #E000E4",
".X c #C800CC",
"XX c #B400B4",
"oX c #9C009C",
"OX c #840084",
"+X c #6C0070",
"@X c #580058",
"#X c #400040",
"$X c #FCE8DC",
"%X c #FCE0D0",
"&X c #FCD8C4",
"*X c #FCD4BC",
"=X c #FCCCB0",
"-X c #FCC4A4",
";X c #FCBC9C",
":X c #FCB890",
">X c #FCB080",
",X c #FCA470",
"<X c #FC9C60",
"1X c #F0945C",
"2X c #E88C58",
"3X c #DC8854",
"4X c #D08050",
"5X c #C87C4C",
"6X c #BC7848",
"7X c #B47044",
"8X c #A86840",
"9X c #A0643C",
"0X c #9C6038",
"qX c #905C34",
"wX c #885830",
"eX c #80502C",
"rX c #744C28",
"tX c #6C4824",
"yX c #5C4020",
"uX c #543C1C",
"iX c #483818",
"pX c #403018",
"aX c #382C14",
"sX c #28200C",
"dX c #600064",
"fX c #006464",
"gX c #006060",
"hX c #00001C",
"jX c #00002C",
"kX c #302410",
"lX c #480048",
"zX c #500050",
"xX c #000034",
"cX c gray11",
"vX c #4C4C4C",
"bX c gray36",
"nX c gray25",
"mX c gray19",
"MX c #343434",
"NX c #D8F4F4",
"BX c #B8E8E8",
"VX c #9CDCDC",
"CX c #74C8C8",
"ZX c #48C0C0",
"AX c #20B4B4",
"SX c #20B0B0",
"DX c #00A4A4",
"FX c #009898",
"GX c #008C8C",
"HX c #008484",
"JX c #007C7C",
"KX c #007878",
"LX c #007474",
"PX c #007070",
"IX c #006C6C",
"UX c #980088",
/* pixels */
"q q q q q q q q q q q q q q q q q q q q q q q q q q q q q q q q q q q q q q q q q q q q q q q q q q q q q q q q q q q q q q q q ",
"0 0 0 0 0 0 $ 0 0 0 0 $ 0 0 0 $ q $ 0 0 0 0 $ 0 0 q q 0 0 0 $ $ $ $ $ 0 0 0 0 0 0 $ $ $ $ $ 0 0 0 0 0 0 $ 0 0 0 0 $ 0 0 0 $ q $ ",
"9X9X9X9X9X7X$ 0 eX9X7 7 7 7 7 7 7 7 7 7 7 7 7 7 7 7 7 7 7 7 7 7 7 7 7 7 7 7 7 6 6 6 6 6 6 6 6 6 6 6 6 6 6 0 eX9X9X9X9X9X9X9X9X9X",
"eXuXeXyXyX9X$ L.iXuXe e e e e e e e e e e e e e e e q q q q q q q q q q q q q q q q q q 0 0 0 0 0 0 0 0 6 L.iXuXeXuXeXyXeXeXeXyX",
"eXuXyXeXwX9X$ L.kXpXe $ 4 4 4 4 4 4 4 4 4 4 4 4 4 4 4 4 4 4 4 4 4 4 4 4 4 4 4 4 4 4 4 4 4 4 4 4 4 4 4 0 6 L.kXpXuXeXrXuXeXyXeXyX",
"eXuXuXeXyXwX0 L.kXpXe $ 4 4 4 4 4 4 4 4 4 4 4 4 4 4 4 4 4 4 4 4 4 4 4 4 4 4 4 4 4 4 4 4 4 4 4 4 4 4 4 0 6 L.kXpXrXuXeXuXeXyXeXyX",
"uXuXkXuXuXrX$ L.kXuXe $ 4 4 4 4 4 4 4 4 4 4 4 4 4 4 4 4 4 4 4 4 4 4 4 4 4 4 4 4 4 4 4 4 4 4 4 4 4 4 4 0 6 L.kXuXuXpXuXpXyXeXyXyX",
"e e L.L.L.0 $ L.e e e $ 4 4 4 4 4 4 4 4 4 4 4 4 4 4 4 5 6 0 0 0 0 0 0 0 8 6 4 4 4 4 4 4 4 4 4 4 4 4 4 0 6 L.e e L.L.L.L.L.L.L.L.",
"q 0 0 0 0 0 q q q q e 8 4 4 4 4 4 4 4 4 4 4 4 4 6 0 0 e e e e e e e e e 0 0 $ 4 4 4 4 4 4 4 4 4 4 4 4 0 6 q q q q 0 0 0 q q q $ ",
"9X9X9X7X$ q wXwXwXwXe 8 4 4 4 4 4 4 4 4 4 4 4 4 0 e e e q q q q q $ q q e e 0 $ 4 4 4 4 4 4 4 4 4 4 4 0 6 wXwXwXwXwXwXwXwXwXwX9X",
"yXeXwX9X0 L.kXeXeXyXe 8 4 4 4 4 4 4 4 4 4 4 4 e e q q $ 0 q $ 6 5 $ $ q q q 7 5X3X4 4 4 4 4 4 4 4 4 4 0 6 eXeXyXyXeXyXyXyXyXeXyX",
"yXeXuX9X0 L.kXiXeXiXe 8 4 4 4 4 4 4 4 4 4 4 0 e L.q 8 7 8 L.8 5 6 7 6X5X7 >X>X>X<X4 4 4 4 4 4 4 4 4 4 0 6 iXeXiXeXyXyXyXyXyXyXeX",
"yXeXwX9X$ L.kXeXeXyXe 8 4 4 4 4 4 4 4 4 4 8 e e L.0 0 $ 0 L.q $ $ 6X4X7 >X;X:X:X>X3X4 4 4 4 4 4 4 4 4 q 6 eXeXyXeXiXyXyXuXiXeXuX",
"pXyXeXwX$ L.kXuXrXpXe 8 4 4 4 4 4 4 4 4 4 0 e e L.q q q q L.q q q q 4X7 >X-X:X:X>X<X4 4 4 4 4 4 4 4 4 q 6 uXrXpXrXuXuXyXkXiXwXuX",
"L.L.q 0 q q L.e L.L.e 8 4 4 4 4 4 4 4 4 4 L.e e L.q q q q L.q q q q 1X>X>X>X-X:X>X>X<X4 4 4 4 4 4 4 4 q 6 e L.L.e e L.L.L.L.L.L.",
"q nX0 0 $ 0 q q q 0 e 8 4 4 4 4 4 4 4 4 4 L.e e e L.q q q eXwX0X0X7X>X>X>X>X-X,X6X8X5X4 4 4 4 4 4 4 4 q 6 q q 0 q $ $ 0 q 0 $ $ ",
"wXwXwXwXwXwXwXwXwX9Xe 7 4 4 4 4 4 4 4 4 4 L.L.e e e q eX8X8X8X8X1X,X:X>X>X-X6XwXaXaX4 4 4 4 4 4 4 4 4 q 6 wXwX9X9X9X9X9X9X7X7X$ ",
"yXiXeXuXeXyXeXrXyXeXe 7 4 4 4 4 4 4 4 4 4 0 L.e e e yXqX8X1X1X3X1X1X,X-X>X1X,X6X0 5X:X4 4 4 4 4 4 4 4 q 6 rXyXeXyXuXeXrXeXwX7Xq ",
"iXyXiXeXyXyXyXyXuXyXe 7 4 4 4 4 4 4 4 4 4 7 0 L.e e yXyX1X8XyX<X2X1X1X,X>X>X>X,X3X>X*X:X4 4 4 4 4 4 4 q 6 yXuXyXyXuXeXkXeXwXwX0 ",
"yXiXiXyXeXiXyXiXeXpXe 7 4 4 4 4 4 4 4 4 4 4 7 L.e e yXyX,XeX4X,X3X2X1X1X,X>X:X3X<X,X-X*X-X4 4 4 4 4 4 q 6 iXeXuXiXeXyXkXeXuXwX$ ",
"yXrXiXyXeXyXrXiXyXrXe 7 4 4 4 4 4 4 4 4 4 4 4 0 L.e yXyX6X1X8X4X3X3X2X<X<X<X3X<X5X6X6X6X2X4 4 4 4 4 4 q 6 wXeXyXwXyXyXyXeXuXwX$ ",
"kXkXkXkXkXiXiXiXiXiXe 7 4 4 4 4 4 4 4 4 4 4 4 7 L.e yXyXrX4X,X<X5X3X2X1X<X<X,X3X,XyXe 4 4 4 4 4 4 4 4 q 6 iXiXiXiXiXiXiXiXrXeX0 ",
"L.q q L.L.L.L.L.L.L.e 7 4 4 4 4 4 4 4 4 4 4 4 4 0 yXyXrXrXrXwX4X8X6X5X2X1X,X1X,X>X0XyX4 4 4 4 4 4 4 4 q 6 L.L.L.L.L.L.L.L.q 0 0 ",
"wXwX9X9X9X9X9X$ q 0 e 7 4 4 4 4 4 4 4 4 4 4 4 4 7 yXyXrXqXqX3X6X0X8X8X5X1X1X,X>X<X<X:X4 4 4 4 4 4 4 4 q 6 $ q 0 wXwXwXwXwXwXwXwX",
"yXeXeXeXuXiX9Xq 0 q e 7 4 4 4 4 4 4 4 4 4 4 4 4 4 yXyXwX6X3X,X7X0X0X8X5X2X<X,X>X1X,X4X4 4 4 4 4 4 4 4 q 6 q 0 q eX9XwX9XrXeXwXeX",
"uXrXyXeXyXeX9X$ 0 L.e 7 4 4 4 4 4 4 4 4 4 4 4 4 rXrX8X6X1X,X,X,X7X0XqX0X6X3X<X3X,X:X,X4 4 4 4 4 4 4 4 q 6 $ 0 L.uXyXyXeXrXyXyXeX",
"yXrXyXeXyXiX9X$ 0 q e 7 4 4 4 4 4 4 4 4 4 4 5 6 rXrXeXqX6X6X,X,X3X7X0XqXqX0X8X6X3X,X1X4 4 4 4 4 4 4 4 q 6 $ 0 q uXyXrXeXrXyXyXeX",
"yXyXeXrXpXeX9X0 0 q e 7 4 4 4 4 4 4 4 4 5 7 rXrXuXeXeXqXqXqX6X6X,X3X7X0XwXwXwX0X4 4 4 4 4 4 4 4 4 4 4 q 6 0 0 q uXeXyXeXyXyXyXeX",
"iXiXiXiXiXiXiX0 0 L.e 7 4 4 4 4 4 4 5 7 rXrXrXeXeXuXrXwXqX0XqXqX6X,X7X7X0X7X4 4 4 4 4 4 4 4 4 4 4 4 4 q 6 0 0 L.pXkXkXkXkXkXpXpX",
"q q L.e e e L.$ 0 L.e 7 4 4 4 4 5 7 rXwXeXqXqX9X9X9XeXuXrX0X0X0XqXqX,X4X7X7X4X5 4 4 4 4 4 4 4 4 4 4 4 q 7 $ 0 L.L.L.L.L.L.L.L.L.",
"wXwXwXwXwXwXwXwXwXwXe 7 4 4 4 7 rXwX0X0X7X7X7X7X7X7X7X9XeXuXrX7X7X0X0X7X4X4X6X4X5 5 4 4 4 4 4 4 4 4 4 e 7 wXwXwXwX9X9X9X9X9X7Xq ",
"iXeXeXyXeXeXyXeXyXeXe 7 4 4 6 rXwX0X7X7X7X7X7X7X7X7X7X7X7X9XeXuXwX7X7X9X5X4X6X4X4X7 5 4 4 4 4 4 4 4 4 e 7 eXyXeXyXeXiXeXyXeX9X$ ",
"kXeXpXyXyXiXeXyXyXeXe 7 4 6 rXeX0X7X7X7X7X7X0X0XeX0X8X7X7X7X7X0XuXrX7X5X5X4X4X9X4XrX7 5 4 4 4 4 4 4 4 e 7 yXyXeXeXiXyXiXeXyX9X0 ",
"rXpXyXpXeXeXyXeXyXeXe 7 4 rXeXwXwXwXwXwX0X0X0X0XeXeX9X8X7X7X7X7X9XrXrX7X5X4X4X9X4XrXeX7 4 4 4 4 4 4 4 e 7 eXyXeXyXyXiXyXeXeX9Xq ",
"kXeXpXyXyXrXeXyXyXeXe 7 4 rXwXwXwXwX0X0X0XwX0X0XeXrXqX9X7X7X7X7X7X7XrXrX7X4X9XeX4XrXeXeX5 4 4 4 4 4 4 e 7 yXyXeXrXyXyXiXeXeX9Xq ",
"kXkXkXkXkXkXkXkXkXkXe 7 4 yXeXeXwX0X0X7X7X7X7X7XyXyXeXqX8X7X7X7X7X7X7X9XuXrX9XrX0XrXqXqX7 4 4 4 4 4 4 e 7 kXkXkXiXiXiXiXiXiXeX$ ",
"e L.L.e e e L.q q L.e 7 4 iXrXrX0X7X0X7X7X7X4X7X7XyXyXeX9X7X7X7X7X7X7X7XqX9X9XrXeXrXqXqX0X4 4 4 4 4 4 e 7 q q L.L.L.L.L.L.L.0 q ",
"9X7X0 $ 0 wXwXwXwXwXe 7 4 iXyXrX0X7XqX0X4X7X7X4X7X7XyXeX8X8X7X7X7X7X7X7X7X9X9XwXrXyXqXqX0X5 4 4 4 4 4 e 7 wXwXwXwXwXwXwX9X9X9X9X",
"eX9X0 0 L.eXyXiXeXyXe 7 4 iXyXrXwX7XqX0X7X4X7X7X4X7XyXyXeX0X7X7X7X7X5X5X6X6X9X9XrXrXqXqX0X7 4 4 4 4 4 e 7 iXeXyXyXeXrXiXeXpXeXyX",
"yX9XnX0 L.yXrXyXeXpXe 7 4 iXyXrXwX7X9XqX0X4X7X7X7X0X0XyXyXwX0XrX6X6X6X5X5X6X6X9XwXrXqXqX0X9X4 4 4 4 4 e 7 yXeXpXeXyXrXyXeXpXyXeX",
"kX9XnX0 L.iXeXuXyXpXe 7 4 $ iXyXeX7X7XqX9X7X4X4X0X, , 4 yXwXwX0XrX6X6X6X5X6X6X9X9XrXrXqX9X9X5 4 4 4 4 e 7 uXyXpXyXeXyXyXiXyXrXyX",
"kXeX$ 0 L.yXyXiXeXpXe 7 4 7 iXyXrX7X7XqX0XrX4Xu , $ L.L.4 yXyXwXrX6X6XiXiXrXqX9X9XrXqXqXqX9X7 4 4 4 4 e 7 iXeXpXyXyXyXiXiXpXrXyX",
"mXq $ 0 L.L.L.L.L.L.e 7 4 6 iXyXrX7X7X0XqXrXu , , , < L., L.4 yXwXrXrXiXiX6X6X7X9XwXrXqXqX0X0X5 4 4 4 e 7 L.L.L.L.L.L.L.L.L.L.L.",
"$ $ $ $ 0 0 0 $ $ 0 e 7 4 4 yXiXrX7X7XqXd d O 1 $ L.L.L.L.$ 4 g yXwXwX8XeX5X6X6X9X9XrXqX8X8X8X7 4 4 4 e 7 $ $ 0 0 0 q q q q $ q ",
"9X9X9X9X7X$ q wXwXwXe 7 4 4 yXiXrXwXqXf f d O 4 L., L., , , r s g wXwX8XqX5X6X6X7X9XrXrX8X8X0X0X4 4 4 e 7 eXwXwXwXwXwXwXwXwXwXwX",
"eXyXeXwX9X0 L.uXeXeXe 7 4 4 yXyXiXrXh g f f d 6 4 , $ L.L.4 u d d 0XyXwX8X6X6X6X7X9XeXrXqXqX8X7X4 4 4 e 7 uXeXeXyXyXeXyXyXyXyXeX",
"iXyXeXuX9X0 L.eXiXeXe 7 4 4 yXyXiXrXj h g f f d 6 4 1 1 4 u uXeX5X6X2XyXwX6X6X6X7X9XqX9XqX8XqX7X4 4 4 e 7 eXiXeXiXeXyXyXyXyXyXyX",
"yXyXeXwX9X$ L.eXeXeXe 7 4 4 rXyXyXl j j h g f f d d O u u uXeX5X5X2X9X5X2X6XwXwXwX0X0X7XrXqX7X5X3X4 4 e 7 eXeXeXyXeXiXyXyXuXiXeX",
"rXpXyXeXwX$ L.tXuXrXe 7 4 4 rXrXyXyXl j j h g f f d d uXuX7X7X6X2X9X9X2X2X2X0X0X0X0X0X7X7X7X5X4X3X4 4 e 7 tXuXrXpXrXuXuXyXkXiXwX",
"L.L.L.q 0 q q L.e L.e 7 4 4 wXrXyXyXyXl j j h g f f uXuX0X0X7X2X2X6X2X5X2X2X5X5X0X0X0X3X3X4X4X3X4 4 4 e 7 L.e L.L.e e L.L.L.L.L.",
"q q nX0 0 $ 0 q q q e 7 4 4 0XwXwXyXyXyXl j j h g f uXrX0X0X5X2X2X2X5X6X6X2X2X6X7X7X3X3X4 3X3X4 4 4 4 e 7 q q q 0 q $ $ 0 q 0 $ ",
"wXwXwXwXwXwXwXwXwXwXe 7 4 4 7X0XwXrXyXyXyXyXl j h uXuXtXwX0X5X5X5X0X0X8X8X6X2X7X5X5X4 4 4 4 4 4 4 4 4 e 7 wXwXwXwX9X9X9X9X9X7Xq ",
"iXeXeXyXeXeXyXeXyXeXe 7 4 4 5X7X0XqXwXrXrXyXyXl j tXrXrXrXwXeXeXeXeX8X8X7X7X6X5X5X1X4 4 4 4 4 4 4 4 4 e 7 eXyXeXyXeXiXeXyXeX9X$ ",
"kXeXpXyXyXiXeXyXyXeXe 7 4 4 <X5X5X7X0XqXwXrXrXyXl wXwXwXwXwXwX8X7X7X6X5X5X5X5X5X1X4 4 4 4 4 4 4 4 4 4 e 7 yXyXeXeXiXyXiXeXyX9X0 ",
"rXpXyXpXeXeXyXeXyXeXe 7 4 4 4 <X<X5X5X7X0XqXwXwXrX0X0X0X8X5X5X3X3X3X3X3X3X3X1X4 4 4 4 4 4 4 4 4 4 4 4 e 7 eXyXeXyXyXiXyXeXeX9Xq ",
"kXeXpXyXyXrXeXyXyXeXe 7 4 4 4 4 4 4 <X<X5X5X4X4X4X4X4X1X1X1X1X1X1X1X1X1X4 4 4 4 4 4 4 4 4 4 4 4 4 4 4 e 7 yXyXeXrXyXyXiXeXeX9Xq ",
"kXkXkXkXkXkXkXkXkXkXe 7 4 4 4 4 4 4 4 4 2X2X2X2X2X2X2X4 4 4 4 4 <X<X<X4 4 4 4 4 4 4 4 4 4 4 4 4 4 4 4 e 7 kXkXkXiXiXiXiXiXiXeX$ ",
"e L.L.e e e L.q q L.e 7 4 4 4 4 4 4 4 4 4 4 4 4 4 4 4 4 4 4 4 4 4 4 4 4 4 4 4 4 4 4 4 4 4 4 4 4 4 4 4 e 7 q q L.L.L.L.L.L.L.0 q ",
"9X7X0 $ 0 wXwXwXwXwXe 7 7 7 7 7 7 7 7 7 7 7 7 7 7 7 7 7 7 7 7 7 7 7 7 7 7 7 7 8 8 8 8 8 8 8 $ $ $ $ $ e 7 wXwXwXwXwXwXwX9X9X9X9X",
"eX9X0 0 L.eXyXiXeXyXe e e e e e e e e e e e e e e e e e e e e e e e e e e e e e e e e e e e e e e e e e 7 iXeXyXyXeXrXiXeXpXeXyX",
"yX9XnX0 L.yXrXyXeXpXe q q q q q q L.L.L.L.e e e e e e e e e e e e e e e e e e e e e e e e L.L.e L.q q q q yXeXpXeXyXrXyXeXpXyXeX",
"kX9XnX0 L.iXeXuXyXpXyXeXeXyXiXpXrXyXuXiXuXeXuXyXeXiXeX9X0 L.iXrXuXyXeXeXiXyXiXeXiXyXeXeXyXeXiX9XnX0 L.iXeXuXyXpXyXeXyXyXiXyXrXyX",
"eX9X0 0 L.rXiXiXeXyXiXrXrXrXiXyXeXiXeXiXuXeXuXpXuXeXiX9Xq L.yXpXeXeXiXeXiXyXkXyXiXkXyXyXyXeXeX9X0 0 L.rXiXiXeXyXiXrXrXrXyXyXeXiX",
"iXiX0 0 L.iXkXkXiXiXkXiXiXiXkXiXiXkXiXkXiXiXkXkXiXiXkXiXq L.iXkXiXiXkXiXkXiXkXiXkXkXkXiXiXiXiXiX0 0 L.iXkXkXiXkXkXkXiXiXkXiXiXkX"
};
