/* XPM */
static char *cb900b5e4b324bb9c785709d591aa140z7JUfVEnLasrVZ6N[] = {
/* columns rows colors chars-per-pixel */
"39 35 256 2 ",
"   c black",
".  c gray19",
"X  c #4C4C4C",
"o  c gray33",
"O  c #7C7C7C",
"+  c #FC0000",
"@  c #FC8820",
"#  c #980088",
"$  c #C0C0C0",
"%  c gray99",
"&  c black",
"*  c black",
"=  c black",
"-  c black",
";  c black",
":  c black",
">  c black",
",  c black",
"<  c black",
"1  c black",
"2  c black",
"3  c black",
"4  c black",
"5  c black",
"6  c black",
"7  c black",
"8  c black",
"9  c black",
"0  c black",
"q  c black",
"w  c black",
"e  c black",
"r  c black",
"t  c black",
"y  c black",
"u  c black",
"i  c black",
"p  c black",
"a  c black",
"s  c black",
"d  c black",
"f  c black",
"g  c black",
"h  c black",
"j  c black",
"k  c black",
"l  c black",
"z  c black",
"x  c black",
"c  c black",
"v  c black",
"b  c black",
"n  c black",
"m  c black",
"M  c black",
"N  c black",
"B  c black",
"V  c black",
"C  c black",
"Z  c black",
"A  c black",
"S  c black",
"D  c black",
"F  c black",
"G  c black",
"H  c black",
"J  c black",
"K  c black",
"L  c black",
"P  c black",
"I  c black",
"U  c black",
"Y  c black",
"T  c black",
"R  c black",
"E  c black",
"W  c black",
"Q  c black",
"!  c black",
"~  c black",
"^  c black",
"/  c black",
"(  c black",
")  c black",
"_  c black",
"`  c black",
"'  c black",
"]  c black",
"[  c black",
"{  c black",
"}  c black",
"|  c black",
" . c black",
".. c black",
"X. c black",
"o. c black",
"O. c black",
"+. c black",
"@. c black",
"#. c black",
"$. c black",
"%. c black",
"&. c #740000",
"*. c #A2C014",
"=. c #9C0000",
"-. c black",
";. c #9F85E0",
":. c #684FF9",
">. c #0891AB",
",. c #B3272B",
"<. c #000004",
"1. c #00001F",
"2. c #140000",
"3. c #110000",
"4. c #410000",
"5. c #740075",
"6. c #6F0068",
"7. c #000072",
"8. c black",
"9. c black",
"0. c black",
"q. c black",
"w. c black",
"e. c black",
"r. c black",
"t. c black",
"y. c black",
"u. c black",
"i. c black",
"p. c black",
"a. c black",
"s. c black",
"d. c black",
"f. c black",
"g. c black",
"h. c black",
"j. c black",
"k. c black",
"l. c black",
"z. c black",
"x. c black",
"c. c black",
"v. c black",
"b. c black",
"n. c black",
"m. c black",
"M. c black",
"N. c black",
"B. c black",
"V. c black",
"C. c black",
"Z. c black",
"A. c black",
"S. c black",
"D. c black",
"F. c black",
"G. c black",
"H. c black",
"J. c black",
"K. c black",
"L. c black",
"P. c black",
"I. c black",
"U. c black",
"Y. c black",
"T. c black",
"R. c black",
"E. c black",
"W. c black",
"Q. c black",
"!. c black",
"~. c black",
"^. c black",
"/. c black",
"(. c black",
"). c black",
"_. c black",
"`. c black",
"'. c black",
"]. c black",
"[. c black",
"{. c black",
"}. c black",
"|. c black",
" X c black",
".X c black",
"XX c black",
"oX c black",
"OX c black",
"+X c black",
"@X c black",
"#X c black",
"$X c black",
"%X c black",
"&X c black",
"*X c black",
"=X c black",
"-X c black",
";X c black",
":X c black",
">X c black",
",X c black",
"<X c black",
"1X c black",
"2X c black",
"3X c black",
"4X c black",
"5X c black",
"6X c black",
"7X c black",
"8X c black",
"9X c black",
"0X c black",
"qX c black",
"wX c black",
"eX c black",
"rX c black",
"tX c black",
"yX c #740000",
"uX c #A3D94C",
"iX c #9C0000",
"pX c #000001",
"aX c #9F85E0",
"sX c #684FF9",
"dX c #0891AB",
"fX c #B3272B",
"gX c #000002",
"hX c #00001F",
"jX c #140000",
"kX c #110000",
"lX c #540000",
"zX c #740069",
"xX c #65006C",
"cX c black",
"vX c black",
"bX c black",
"nX c black",
"mX c black",
"MX c black",
"NX c black",
"BX c black",
"VX c black",
"CX c black",
"ZX c black",
"AX c black",
"SX c black",
"DX c black",
"FX c black",
"GX c black",
"HX c black",
"JX c black",
"KX c black",
"LX c black",
"PX c black",
"IX c black",
"UX c white",
/* pixels */
"# # @ # # # # # @ # # # # # # # # # # # # # # # # # # # # # # # # # # # # # # ",
"# @ # # # % # # # @ # # # # # # # # # # # # # # # # # # # # # # # # # # # # # ",
"@ # # # # # # # # # @ # # # # # # # # # # # # # # # # # # # # # # # # # # # # ",
"@ # # % # % # % # # @ # # # # # # # # # # # # # # # # # # # # # # # # # # # # ",
"@ # # # # # # # # # @ # # # # # # # # # # # # # # # # # # # # # # # # # # # # ",
"# @ # # # % # # # @ # # # # # # # # # # # # # # # # # # # # # # # # # # # # # ",
"# # @ # # # # # @ # # # # # # # # # # # # # # # # # # # # # # # # # # # # # # ",
"# # # # # # # # # # # # # # # # # # # # # # # # # # # # # # # # # # # # # # # ",
"# # # # # # # # # # # # # # # # # # # # # # # # # # # # # # # # # # # # # # # ",
"# # # # # # # # # # # # # # # # # # # # # # # # # # # # # # # # # # # # # # # ",
"# # # # # # # # # # # # # # # # # # # # # # # # # # # # # # # # # # # # # # # ",
"# # # # # # # # # # # # # # # # # # # # # # # # # # # # # # # # # # # # # # # ",
"# # # # # # # # # # # # # # # # # # # # # # # # # # # # # # # # # # # # # # # ",
"# # # # # # # # # # # # # # # # # # # # # # # # # # # # # # # # # # # # # # # ",
"# # # # # # # # # # # # # # # # # # # # # # # # # # # # # # # # # # # # # # # ",
"# # # # # # # # # # # # # # # # # # # # # # # # # # # # # # # # # # # # # # # ",
"# # # # # # # # # X o # # # . . . . . # # # # # # # # # # # # # # # # # # # # ",
"# # # # # # # # X o X X . . . . X X . . . # # # # # # # # # # # # # # # # # # ",
"# # # # # # # # # X o . . o o . . . X X X . . # # # # # # . . . . # # # # # # ",
"# # # # # # # # # # X . o X X X o . . . . X X . . # # # . . . # . . # # # # # ",
"# # # # # # # # # # . . O o o X X o o o . . . X X . . . . . # + . . # # # # # ",
"# # # # # # # # # # . X $ O O o o X X X o o . . X . . . . . . # . . # # # # # ",
"# # # # # # # # # # . X X $ $ O O o o X X X o . . . . . . . . . . # # # # # # ",
"# # # # # # # # # # . X X X X $ $ O O o o X . . o o . . . . X X . . . # # # # ",
"# # # # # # # # # # # . X X X X X $ $ O O . . X X X o o . . . . X X . . . # # ",
"# # # # # # # # # #   . . .   X X X X $ . . X X X X X X o o o . . . X X . . # ",
"# # # # # # # # #               X X X X . X X X X X X X X X X o o . . . . . # ",
"# # # # # # # #     . . . o .   . . X X . X X X X X X X X     X X . o X X X . ",
"# # # # # # # #     X X X o .   # . . X . X X X X X X X X     X X . o X X X . ",
"# # # # # # # #   . X X X X .   # # . . . X X X X X X X X X X X X . o X X X . ",
"# # # # # # # #   . . X X X X   # # . # . . X X X X X X X X X X X . o X X X . ",
"# # # # # # # .   o . o X X .   # # .     . X X X X X X X X X X . . o X X X . ",
"# # # # # # . . . . . . o .     # #   X X   . . X X X X X X X X . o X X X X . ",
"# # # # # . . X X X X X .     # # #       # . . . . X X X X X X . o X X X X . ",
"# # # # #   . . X X o X X X . # # # # # . .       . . . X X X X . o X X X X . "
};
