/* XPM */
static char *e029f0033b9543688a845fe8ad52debbkcofmTsDE3bbNZgf[] = {
/* columns rows colors chars-per-pixel */
"100 162 88 1 ",
"  c black",
". c #070707",
"X c #0B0B0B",
"o c #170F07",
"O c #0F1700",
"+ c #0B1707",
"@ c #171F07",
"# c #1F170B",
"$ c #131313",
"% c #1B1B1B",
"& c #2F1B0B",
"* c #2B230F",
"= c #372313",
"- c #332B13",
"; c #3F2F17",
": c #3F2B1B",
"> c #232323",
", c #272727",
"< c #2F2F2F",
"1 c #373F27",
"2 c #373737",
"3 c gray23",
"4 c #432F1B",
"5 c #43331B",
"6 c #4B371B",
"7 c #533F1F",
"8 c #473323",
"9 c #4F3B23",
"0 c #4F3B27",
"q c #4F3B2B",
"w c #533F2F",
"e c #5F4323",
"r c #5B472B",
"t c #574333",
"y c #6B4727",
"u c #774F2B",
"i c #7F532F",
"p c #675333",
"a c #775F3F",
"s c #434343",
"d c gray28",
"f c #4B4B4B",
"g c gray31",
"h c gray34",
"j c gray39",
"k c gray42",
"l c #6F6F6F",
"z c #777777",
"x c gray50",
"c c #875733",
"v c #8F5F37",
"b c #9B633B",
"n c #A36B3F",
"m c #836B4B",
"M c #8F7753",
"N c #AB6F43",
"B c #B37347",
"V c #BF7B4B",
"C c #937B63",
"Z c #CB7F4F",
"A c #9F8363",
"S c #9F876F",
"D c #A78F77",
"F c #AF977F",
"G c #CF8353",
"H c #D78B5B",
"J c #DF9363",
"K c #E79B6B",
"L c #EFA373",
"P c #F7AB7B",
"I c cyan",
"U c #8B8B8B",
"Y c #939393",
"T c #9F9F9F",
"R c #B79F87",
"E c #BFA78F",
"W c #A7A7A7",
"Q c gray70",
"! c gray75",
"~ c #EB9797",
"^ c #FFB383",
"/ c #FFBB93",
"( c #FFBF9B",
") c #F3A3A3",
"_ c #FFC7A7",
"` c #FFCFB3",
"' c LightGray",
"] c #EFEFEF",
/* pixels */
"IIIIIIIIIIIIIIIIIIIIIIIIIIIIIIIIIIIIIIIIIIIIIIIIIIIIIIIIIIIIIIIIIIIIIIIIIIIIIIIIIIIIIIIIIIIIIIIIIIII",
"IIIIIIIIIIIIIIIIIIIIIIIIIIIIIIIIIIIIIIIIIIIIIIIIIIIIIIIIIIIIIIIIIIIIIIIIIIIIIIIIIIIIIIIIIIIIIIIIIIII",
"IIIIIIIIIIIIIIIIIIIIIIIIIIIIIIIIIIIIIIIIIIIIIIIIIIIIIIIIIIIIIIIIIIIIIIIIIIIIIIIIIIIIIIIIIIIIIIIIIIII",
"IIIIIIIIIIIIIIIIIIIIIIIIIIIIIIIIIIIIIIIIIIIIIIIIIIIIIIIIIIIIIIIIIIIIIIIIIIIIIIIIIIIIIIIIIIIIIIIIIIII",
"IIIIIIIIIIIIIIIIIIIIIIIIIIIIIIIIIIIIIIIIIIIIIIIIIIIIIIIIIIIIIIIIIIIIIIIIIIIIIIIIIIIIIIIIIIIIIIIIIIII",
"IIIIIIIIIIIIIIIIIIIIIIIIIIIIIIIIIIIIIIIIIIIIIIIIIIIIIIIIIIIIIIIIIIIIIIIIIIIIIIIIIIIIIIIIIIIIIIIIIIII",
"IIIIIIIIIIIIIIIIIIIIIIIIIIIIIIIIIIIIIIIIIIIIIIIIIIIIIIIIIIIIIIIIIIIIIIIIIIIIIIIIIIIIIIIIIIIIIIIIIIII",
"IIIIIIIIIIIIIIIIIIIIIIIIIIIIIIIIIIIIIIIIIIIIIIIIIIIIIIIIIIIIIIIIIIIIIIIIIIIIIIIIIIIIIIIIIIIIIIIIIIII",
"IIIIIIIIIIIIIIIIIIIIIIIIIIIIIIIIIIIIIIIIIIIIIIIIIIIIIIIIIIIIIIIIIIIIIIIIIIIIIIIIIIIIIIIIIIIIIIIIIIII",
"IIIIIIIIIIIIIIIIIIIIIIIIIIIIIIIIIIIIIIIIIIIIIIIIIIIIIIIIIIIIIIIIIIIIIIIIIIIIIIIIIIIIIIIIIIIIIIIIIIII",
"IIIIIIIIIIIIIIIIIIIIIIIIIIIIIIIIIIIIIIIIIIIIIIIIIIIIIIIIIIIIIIIIIIIIIIIIIIIIIIIIIIIIIIIIIIIIIIIIIIII",
"IIIIIIIIIIIIIIIIIIIIIIIIIIIIIIIIIIIIIIIIIIIIIIIIIIIIIIIIIIIIIIIIIIIIIIIIIIIIIIIIIIIIIIIIIIIIIIIIIIII",
"IIIIIIIIIIIIIIIIIIIIIIIIIIIIIIIIIIIIIIIIIIIIIIIIIIIIIIIIIIIIIIIIIIIIIIIIIIIIIIIIIIIIIIIIIIIIIIIIIIII",
"IIIIIIIIIIIIIIIIIIIIIIIIIIII>#o>,<IIIIIIIIIIIIIIIIIIIIIIIIIIIIIIIIIIIIIIIIIIIIIIIIIIIIIIIIIIIIIIIIII",
"IIIIIIIIIIIIIIIIIIIIIIIIII.%oooooos2IIIIIIIIIIIIIIIIIIIIIIIIIIIIIIIIIIIIIIIIIIIIIIIIIIIIIIIIIIIIIIII",
"IIIIIIIIIIIIIIIIIIIIIIIIIXsoooooooo>lIIIIIIIIIIIIIIIIIIIIIIIIIIIIIIIIIIIIIIIIIIIIIIIIIIIIIIIIIIIIIII",
"IIIIIIIIIIIIIIIIIIIIIIIII,%oooooooo<>gIIIIIIIIIIIIIIIIIIIIIIIIIIIIIIIIIIIIIIIIIIIIIIIIIIIIIIIIIIIIII",
"IIIIIIIIIIIIIIIIIIIIIIIIX>%oooooooo>fsIIIIIIIIIIIIIIIIIIIIIIIIIIIIIIIIIIIIIIIIIIIIIIIIIIIIIIIIIIIIII",
"IIIIIIIIIIIIIIIIIIIII,,,>%$+ooooooo>gsIIIIIIIIIIIIIIIIIIIIIIIIIIIIIIIIIIIIIIIIIIIIIIIIIIIIIIIIIIIIII",
"IIIIIIIIIIIIIIIIIIIII%oo*%ooooooooo#2gIIIIIIIIIIIIIIIIIIIIIIIIIIIIIIIIIIIIIIIIIIIIIIIIIIIIIIIIIIIIII",
"IIIIIIIIIIIIIIIIIIIIIIIo,%oooooooooo2fIIIIIIIIIIIIIIIIIIIIIIIIIIIIIIIIIIIIIIIIIIIIIIIIIIIIIIIIIIIIII",
"IIIIIIIIIIIIIIIIIIIIIII%>%ooooooooo>2fIIIIIIIIIIIIIIIIIIIIIIIIIIIIIIIIIIIIIIIIIIIIIIIIIIIIIIIIIIIIII",
"IIIIIIIIIIIIIIIIIIIIIII,o%ooooooooo>2fII..$ $ IIIIIIIIIIIIIIIIIIIIIIIIIIIIIIIIIIIIIIIIIIIIIIIIIIIIII",
"IIIIIIIIIIIIIIIIIIIIIIIIo%ooooooooo#3fIXoo>%>%%IIIIIIIIIIIIIIIIIIIIIIIIIIIIIIIIIIIIIIIIIIIIIIIIIIIII",
"IIIIIIIIIIIIIIIIIIIIIIIIo%ooooooooo#2d%+>>><><<%IIIIIIIIIIIIIIIIIIIIIIIIIIIIIIIIIIIIIIIIIIIIIIIIIIII",
"IIIIIIIIIIIIIIIIIIIIIIIIo%ooooo+oooo2, >%>>sg<<2>IIIIIIIIIIIIIIIIIIIIIIIIIIIIIIIIIIIIIIIIIIIIIIIIIII",
"IIIIIIIIIIIIIIIIIIIIIIIIo%ooooooooo>2%#>%>%>,s%2sIIIIIIIIIIIIIIIIIIIIIIIIIIIIIIIIIIIIIIIIIIIIIIIIIII",
"IIIIIIIIIIIIIIIIIIIIIIIIo%oooooooooo2$+oo#%>,<>s2sIIIIIIIIIIIIIIIIIIIIIIIIIIIIIIIIIIIIIIIIIIIIIIIIII",
"IIIIIIIIIIIIIIIIIIIIIIIIo%ooooooooo>2>.ooo%>,<2<j3IIIIIIIIIIIIIIIIIIIIIIIIIIIIIIIIIIIIIIIIIIIIIIIIII",
"IIIIIIIIIIIIIIIIIIIIIIIIo%ooooooooo>2,  +ooo,<22s$IIIIIIIIIIIIIIIIIIIIIIIIIIIIIIIIIIIIIIIIIIIIIIIIII",
"IIIIIIIIIIIIIIIIIIIIIII>o%ooooooooo#2, $$ooo$%<d2kIIIIIIIIIIIIIIIIIIIIIIIIIIIIIIIIIIIIIIIIIIIIIIIIII",
"IIIIIIIIIIIIIIIIIIIIIII>o%oooooooooo2,   ooo#>>>ssIIIIIIIIIIIIIIIIIIIIIIIIIIIIIIIIIIIIIIIIIIIIIIIIII",
"IIIIIIIIIIIIIIIIIIIIIII>o%ooooooooo>2,  ooooo>2>>sIIIIIIIIIIIIIIIIIIIIIIIIIIIIIIIIIIIIIIIIIIIIIIIIII",
"IIIIIIIIIIIIIIIIIIIIIII>o%ooooooooo>2,  +oooo>d2 >IIIIIIIIIIIIIIIIIIIIIIIIIIIIIIIIIIIIIIIIIIIIIIIIII",
"IIIIIIIIIIIIIIIIIIIIIIIo%%ooo+ooooo>2, o+oooo>3ks>IIIIIIIIIIIIIIIIIIIIIIIIIIIIIIIIIIIIIIIIIIIIIIIIII",
"IIIIIIIIIIIIIIIIIIIIIIIo%%ooooooooo>2<  +oooo>2zj.IIIIIIIIIIIIIIIIIIIIIIIIIIIIIIIIIIIIIIIIIIIIIIIIII",
"IIIIIIIIIIIIIIIIIIIIIIIo%%ooooooooo#22 o+oooo><Ul.IIIIIIIIIIIIIIIIIIIIIIIIIIIIIIIIIIIIIIIIIIIIIIIIII",
"IIIIIIIIIIIIIIIIIIIIIIIo%%oo+o+oooo>32 o+oooo><xx.IIIIIIIIIIIIIIIIIIIIIIIIIIIIIIIIIIIIIIIIIIIIIIIIII",
"IIIIIIIIIIIIIIIIIIIIIIIo%%ooooooooo>32  +oooo><lx.IIIIIIIIIIIIIIIIIIIIIIIIIIIIIIIIIIIIIIIIIIIIIIIIII",
"IIIIIIIIIIIIIIIIIIIIIIIo%oo++++++oo*32  ooooo><jz IIIIIIIIIIIIIIIIIIIIIIIIIIIIIIIIIIIIIIIIIIIIIIIIII",
"IIIIIIIIIIIIIIIIIIIIIIIo%ooo+++ooooo32  +oooo><dh IIIIIIIIIIIIIIIIIIIIIIIIIIIIIIIIIIIIIIIIIIIIIIIIII",
"IIIIIIIIIIIIIIIIIIIIIII>o%ooooooooo2h<o#55665u;,< IIIIIIIIIIIIIIIIIIIIIIIIIIIIIIIIIIIIIIIIIIIIIIIIII",
"IIIIIIIIIIIIIIIIIIIIIII>o%ooooooooo<g<o#----5uHi< IIIIIIIIIIIIIIIIIIIIIIIIIIIIIIIIIIIIIIIIIIIIIIIIII",
"IIIIIIIIIIIIIIIIIIIIIII>o%oo+oo+ooo<h,o#***-;-8*N7IIIIIIIIIIIIIIIIIIIIIIIIIIIIIIIIIIIIIIIIIIIIIIIIII",
"IIIIIIIIIIIIIIIIIIIIIII>o%oo+oo+ooo<f,o#***;;*q8CRaIIIIIIIIIIIIIIIIIIIIIIIIIIIIIIIIIIIIIIIIIIIIIIIII",
"IIIIIIIIIIIIIIIIIIIIIII>o%oo+oo+ooo<s,o#***;;*0wAF)VIIIIIIIIIIIIIIIIIIIIIIIIIIIIIIIIIIIIIIIIIIIIIIII",
"IIIIIIIIIIIIIIIIIIIIII>%$%ooooooooo<3,o#**-;;*0wCF~PBIIIIIIIIIIIIIIIIIIIIIIIIIIIIIIIIIIIIIIIIIIIIIII",
"IIIIIIIIIIIIIIIIIIIIII%%%%ooooooooo,<>o#****--9tCFEPZJIIIIIIIIIIIIIIIIIIIIIIIIIIIIIIIIIIIIIIIIIIIIII",
"IIIIIIIIIIIIIIIIIIIIII%%%%ooooooooo+>#o#*****-8wMFEPGKLIIIIIIIIIIIIIIIIIIIIIIIIIIIIIIIIIIIIIIIIIIIII",
"IIIIIIIIIIIIIIIIIIIIII%%%%oo+oo+ooo+++o#******6wMDJPGKLVIIIIIIIIIIIIIIIIIIIIIIIIIIIIIIIIIIIIIIIIIIII",
"IIIIIIIIIIIIIIIIIIIIII%%%%ooooooooo+++o#******59mAKPVKLVbvIIIIIIIIIIIIIIIIIIIIIIIIIIIIIIIIIIIIIIIIII",
"IIIIIIIIIIIIIIIIIIIIII%o%%ooOooOooo+++o#******;4aBJuciuuuuiciIIIIIIIIIIIIIIIIIIIIIIIIIIIIIIIIIIIIIII",
"IIIIIIIIIIIIIIIIIIIIII%o%%oo+oo+ooo#++o#*******;inJy6eee76;-7cnnIIIIIIIIIIIIIIIIIIIIIIIIIIIIIIIIIIII",
"IIIIIIIIIIIIIIIIIIIIII%o%%oo+oo+ooo>++o#******#*evJ7*;;;;--**7cvvNIIIIIIIIIIIIIIIIIIIIIIIIIIIIIIIIII",
"IIIIIIIIIIIIIIIIIIIIII%o%%oo+oo+ooo#++o#**-***#+7cKZo*******-*eieevIIIIIIIIIIIIIIIIIIIIIIIIIIIIIIIII",
"IIIIIIIIIIIIIIIIIIIIII%o%oooooooooo++oo#**-***o#6yBVZo*****;6675-*6yavIIIIIIIIIIIIIIIIIIIIIIIIIIIIII",
"IIIIIIIIIIIIIIIIIIIIII%o%%ooooooooo++o+#**-***ooo +7bB#--57ee7**ooo#6eIIIIIIIIIIIIIIIIIIIIIIIIIIIIII",
"IIIIIIIIIIIIIIIIIIIIIX%%%$oOoooo+ooO+oo#+*--**ooX*ybbnBBVBBBBBnc;oooo*6IIIIIIIIIIIIIIIIIIIIIIIIIIIII",
"IIIIIIIIIIIIIIIIIIIII$%%%$o+OooO+oo.+oo +*-;**oo=cNcicBNbcvnBJLJny#.o+*IIIIIIIIIIIIIIIIIIIIIIIIIIIII",
"IIIIIIIIIIIIIIIIIIIII$%%%ooo+$$$ooo.+oo +*-;**#+6c7667yuuuuuvBHJHVby#+*IIIIIIIIIIIIIIIIIIIIIIIIIIIII",
"IIIIIIIIIIIIIIIIIIIII$%%%%oooooooooX+oo +*;;**#+*6;56666666eyvNVGZZHZ;*IIIIIIIIIIIIIIIIIIIIIIIIIIIII",
"IIIIIIIIIIIIIIIIIIIII$%%%$o+oooo+oo.+oo.+*;;**#+o********-;;97yyuvnNHKNIIIIIIIIIIIIIIIIIIIIIIIIIIIII",
"IIIIIIIIIIIIIIIIIIIII$o%%oo+Oooo+ooO oo +*;;***#+.ooo*;567e76**--;eyvVHZIIIIIIIIIIIIIIIIIIIIIIIIIIII",
"IIIIIIIIIIIIIIIIIIIII$o%%o+oOoooo+oO+oo.+*;;***#+ *#6ycbnBHGVv+o#*55ecnZGRIIIIIIIIIIIIIIIIIIIIIIIIII",
"IIIIIIIIIIIIIIIIIIIII$o%%$o+Oooo+ooO+oo#+*;;***#++#5iuubBbGHGVb-.o***;5uNVHRIIIIIIIIIIIIIIIIIIIIIIII",
"IIIIIIIIIIIIIIIIIIIII$o%%oo+Oooo+oo. ooo+*;;***#++*uu7euu7yvnGHJu#o****;7cNVJGIIIIIIIIIIIIIIIIIIIIII",
"IIIIIIIIIIIIIIIIIIIII$o%%%o+Oooo+ooO oo++*;;***#++#76-----;6ycVJ^Gr=&###5einBZJBIIIIIIIIIIIIIIIIIIII",
"IIIIIIIIIIIIIIIIIIIII$o%%o+++oo+++oo++o++**;***#o+@*######**;7yvZJJGBy6=-*;eunNuIIIIIIIIIIIIIIIIIIII",
"IIIIIIIIIIIIIIIIIIIII$$%%o.+oo+++ooo++o++#**####+oX###oX..o**;56ecvBGVZBbvue66657IIIIIIIIIIIIIIIIIII",
"IIIIIIIIIIIIIIIIIIIIX>%>$o oo++ooooo+oo+++oooooo++ +-67ubbbe**;;;5eivbnBGGGGJJHVcIIIIIIIIIIIIIIIIIII",
"IIIIIIIIIIIIIIIIIIIIX>%>%o o++ooooo*,oo+++oooooo++ 5yiccnGGVVb6#;;;;67uvNVZNnBHJJGIIIIIIIIIIIIIIIIII",
"IIIIIIIIIIIIIIIIIIII.%%>$o o++oooooo,$o++#*****#+++7767yvNNBZZVbe6**--5eycbvuyiNGVHKIIIIIIIIIIIIIIII",
"IIIIIIIIIIIIIIIIIIII.%$>%o +oo+oooo#,%++o**;;;**#++5555;67yvNBZGGVby5#*-;eicu76eivBHJHIIIIIIIIIIIIII",
"IIIIIIIIIIIIIIIIIIII.#$>$o +oo+oooo>,%+++;*;;;**##++******56euvnBZVHZn6#*;77765;7eyivnuIIIIIIIIIIIII",
"IIIIIIIIIIIIIIIIIIII.#$>%o.+oo+oooo>,% ++;*;;;**#o+oooooooo**56eubnBZHGNy-****;;;;666;*IIIIIIIIIIIII",
"IIIIIIIIIIIIIIIIIIII.#$>$o.++++oooo><% ++**;;;**#++oooooo###;55657yubNBZHGVbcuu6;-***#+IIIIIIIIIIIII",
"IIIIIIIIIIIIIIIIIIII.#$>$o.+oo+oooo><%.++o****oooooo.+o++@@@*-556677eivvbbNVGJJGVBvy-@+IIIIIIIIIIIII",
"IIIIIIIIIIIIIIIIIIII.#$>%o.oooooooo><%X+Xoo****ooo+oo+++++o+++@*-5556ycvvvcicbVZJLKJGc@IIIIIIIIIIIII",
"IIIIIIIIIIIIIIIIIIII.$$>$o.oooooooo><>$+X+**;***oooooo+++++++++++++-;67uciuyyuvvBBZJLKvIIIIIIIIIIIII",
"IIIIIIIIIIIIIIIIIIII%%%>$o.+oo+oooo>,%$+X+*;;;***##o+oX ++++o++++++++++**-56777uvvvvnZnIIIIIIIIIIIII",
"IIIIIIIIIIIIIIIIIIII>%%>%o.+oo+oooo>>oX+X+*;5;****##oo+.  +X+++++++######*;6766eeuiiuye6IIIIIIIIIIII",
"IIIIIIIIIIIIIIIIIIII>%%>$o.+oo+oooo>>$$+X+*;5;**5-*o##ooX   ..++++o+oo++@-675;6667euy7;-IIIIIIIIIIII",
"IIIIIIIIIIIIIIIIIIII>%%>$o.+oo+oooo>>$$+X+*;5;*+pBy++###oo    .++++++++++@@@*-;;;;7e75-.IIIIIIIIIIII",
"IIIIIIIIIIIIIIIIIIII>%>%%o.oooooooo>>o$+X+*;5;*+AKA7**###oo.      ++++++++++*****-67;--.IIIIIIIIIIII",
"IIIIIIIIIIIIIIIIIIII>%%%%o.oooooooo>>X%+X+*;5;* D`EMy6*####o.       .++++++###+##-:*%*;.IIIIIIIIIIII",
"IIIIIIIIIIIIIIIIIII2>%>%$oXoooooooo#%$%+X+*;5;* D`(Jnv6-####o..       + +++++++##*%%o--+IIIIIIIIIIII",
"IIIIIIIIIIIIIIIIIII>>%>%%o.oooooooo+$o% X+;;5;* S`_KNGv6#o####o.      . .++++++++oo##5*+IIIIIIIIIIII",
"IIIIIIIIIIIIIIIIIII>>%>%$oX+oo+oooo+$$%+ +;;5;* A`_KNJLc5##ooo+o.          ++++++@**;;>oIIIIIIIIIIII",
"IIIIIIIIIIIIIIIIIII.$o>%%.ooooooooo++X%+X+;55;* A`_KNKLNy;*###o+.            . +++o#;;#oIIIIIIIIIIII",
"IIIIIIIIIIIIIIIIIII>o$>%%oo+oo+oooo++X$ X+;565*+M`_KNKLVve-**##o.          @X+++#--55;##IIIIIIIIIIII",
"IIIIIIIIIIIIIIIIIII>o$>%oo+oooo+ooo+XX.XX+5665* m`_KNKLVbvy-**#oo         .;*+++#-;66;X>IIIIIIIIIIII",
"IIIIIIIIIIIIIIIIIII>o$>%ooo+oo+oooo#oX.XX+5675* a^(KNKLVbvue;**#o         #-++++ooo*;;X<IIIIIIIIIIII",
"IIIIIIIIIIIIIIIIIII>o$%%oo+oooo+ooo>%X.XX+6675*+pK/KNKLVbvcuye;*#        # +++o#**;66;X<IIIIIIIIIIII",
"IIIIIIIIIIIIIIIIIII>o$>%oo++oo++ooo#%X.Xo+6776*+yVPKNKLVbvccuie;*.  .  .++++@*-;;57e7*XsIIIIIIIIIIII",
"IIIIIIIIIIIIIIIIIII>o$%%oo+oooo+oooo#X.oX+6777**yvLJVJLVbvvcciu7;-   ++o####o+Xo**-6e*XIIIIIIIIIIIII",
"IIIIIIIIIIIIIIIIIII>o$%%ooooooooooo+++oo++7eiyee7yBVGHLVbvvcciuy75  +++o#---**##oo#*5*.IIIIIIIIIIIII",
"IIIIIIIIIIIIIIIIIII>o%,,ooooooooooo+++o+++65*++## +7bVHVbvccciuye5 .++o#-;;;;-***#+#**oIIIIIIIIIIIII",
"IIIIIIIIIIIIIIIIIII>>3,%oooooooo+ooo++oo++*+    ++  ;cHBbvccciuye5  .++o*****;;;;*#+#*oIIIIIIIIIIIII",
"IIIIIIIIIIIIIIIIII<%%>%%o++oooo++ooo++oo++ +  ++**+  #7avvccciuye55 .++++++++#-55;-#++oIIIIIIIIIIIII",
"IIIIIIIIIIIIIIIIII>%%>%oo$+oooo+oooo +oo+         +++  ;yvccciuye55 +++++++@@++;65;--o IIIIIIIIIIIII",
"IIIIIIIIIIIIIIIIII>%%>%ooo+$$$$$oooo +oo+ +        ++*+ -7ycciuye55 .+++@*#;;-*@67e75*.IIIIIIIIIIIII",
"IIIIIIIIIIIIIIIIII>%%>%%oo+oooo+oooo++oo+ +          +*+ +-yyiuye55 .++*-;;;;55;*;7ee=oIIIIIIIIIIIII",
"IIIIIIIIIIIIIIIIII>%%>%%oooooooooooo +oo+ +           +**+ +5euye55+.+++@****-;;;-;77*%IIIIIIIIIIIII",
"IIIIIIIIIIIIIIIIII>%%>%oo++oooo++ooo +o#o   + +        ++*+  *7ye55+X+++++*-;--#:6-55*IIIIIIIIIIIIII",
"IIIIIIIIIIIIIIIIII>o%>%oo++oooo++ooo+ oo+                +++  *6e55++++#*;55555-#=76*$IIIIIIIIIIIIII",
"IIIIIIIIIIIIIIIIII>o%>%o+o+oooo+o+oo++oo+                  +++ +-55***-;5556665;*#-7*IIIIIIIIIIIIIII",
"IIIIIIIIIIIIIIIIII>o%>%%o++oooo++ooo++oo+*                   ++ +*5*;;5556667755;#o5;IIIIIIIIIIIIIII",
"IIIIIIIIIIIIIIIIII>o%>%ooo+oooo+oooo++o#+o                    ++  #*;555667ee655;*o*1IIIIIIIIIIIIIII",
"IIIIIIIIIIIIIIIIII>o%>%oo++oooo++ooo  o#+o                     ++ o-;5677eee6555;;#+1IIIIIIIIIIIIIII",
"IIIIIIIIIIIIIIIIII>o%>%%o++oooo++ooo+ o#o+                       +*;567eyy76666;**o+1IIIIIIIIIIIIIII",
"IIIIIIIIIIIIIIIIII>o%>%o++++oo++++oo+++#++   .   .                ;;67eyye655;55*oo+5IIIIIIIIIIIIIII",
"IIIIIIIIIIIIIIIIII>o%>%o+++oooo+++ooo++#++   ..  ....            *;5667776655;*;;o++IIIIIIIIIIIIIIII",
"IIIIIIIIIIIIIIIIII%%>%%o +oooooo+o+oo++#++   ..  ......          ;;556666655;-*o;#+IIIIIIIIIIIIIIIII",
"IIIIIIIIIIIIIIIII2%%>%$o oooooooo+o+++o#++   .. ........       .*-5555555;5;-#oo#@@IIIIIIIIIIIIIIIII",
"IIIIIIIIIIIIIIIII<%%>%%o o+oooo+oo+##+o#++   X. ....Xo$X.    oooo***-;;;;;-*ooooo*IIIIIIIIIIIIIIIIII",
"IIIIIIIIIIIIIIIII>%%>%$o oooooooooo><>oo++   X. .XXXX$,$.     ooooo#******#ooooo+ IIIIIIIIIIIIIIIIII",
"IIIIIIIIIIIIIIIII>%%>%$o +oo++oo++ sj2+o++   X. .XXXo%2>.   ==&oooooooooooooooo+X%IIIIIIIIIIIIIIIIII",
"IIIIIIIIIIIIIIIII>o%>%%o ++oooo++ +kWh +++   X. .XXXo%3,. 66:=*&o#oooooooooooo.oIIIIIIIIIIIIIIIIIIII",
"IIIIIIIIIIIIIIIII>o%>%$o o+oooo+o +U]x +++   X. .XXXX%s,. ;44:=&&##oooooooooo.oIIIIIIIIIIIIIIIIIIIII",
"IIIIIIIIIIIIIIIII>o%>%%o oooooooo  W]Y  ++   X...XXXX%s<X =;4:==*&###oooooo++XIIIIIIIIIIIIIIIIIIIIII",
"IIIIIIIIIIIIIIIII>o%>%%o +o+oo+o+  W]W2 ++   X...XXXX%32X ;==:4==&###o+oo+++.IIIIIIIIIIIIIIIIIIIIIII",
"IIIIIIIIIIIIIIIII>o%>%$o oo+oo+oo  Y]]h ++   X...XXXX%32X 4;*=4::=####ooooX.IIIIIIIIIIIIIIIIIIIIIIII",
"IIIIIIIIIIIIIIIII>o%>%$o +oooooo+  x]]k ++   XX..XXXX%22$ *:;*=::=&###o#o..IIIIIIIIIIIIIIIIIIIIIIIII",
"IIIIIIIIIIIIIIIII>o%>%%o +oo++oo+  x]]k ++   X...XXXX%22$ #*;**=::=###oo#.IIIIIIIIIIIIIIIIIIIIIIIIII",
"IIIIIIIIIIIIIIIII>o%>%$o oooooooo  x]]k ++   XX..XXXX$<<$ ;*=6**===&#&#ooIIIIIIIIIIIIIIIIIIIIIIIIIII",
"IIIIIIIIIIIIIIIII%%%>%$o oooooooo  x]]k>++   XX..XXXXo%>$ 7-*4;**&==#&*IIIIIIIIIIIIIIIIIIIIIIIIIIIII",
"IIIIIIIIIIIIIIII>%%%>%%o oooooooo  x]]k>++   XX..XXXXX+$X y6;;7;##&=&&IIIIIIIIIIIIIIIIIIIIIIIIIIIIII",
"IIIIIIIIIIIIIIII>%%%>%%o oooooooo  x]]k>++   .X...XXXXX+X.5ee466=##***IIIIIIIIIIIIIIIIIIIIIIIIIIIIII",
"IIIIIIIIIIIIIIII>%%%>%oo oooooooo  x]]k2++   .X...XXXXX+$%X=ee776*##-#IIIIIIIIIIIIIIIIIIIIIIIIIIIIII",
"IIIIIIIIIIIIIIII>%%%>%oo ooo++ooo  x]]zs++   .X...XXXo$$$$X*;7y77;*#IIIIIIIIIIIIIIIIIIIIIIIIIIIIIIII",
"IIIIIIIIIIIIIIII>%%>>%%o oo+oo+oo  x]]zf++   .X...XXXo$$$. 6*;7e7;&IIIIIIIIIIIIIIIIIIIIIIIIIIIIIIIII",
"IIIIIIIIIIIIIIII>%%>>%%o o++oo++o +x]]zh++   .X...XXXXo$%X b6-;ye7IIIIIIIIIIIIIIIIIIIIIIIIIIIIIIIIII",
"IIIIIIIIIIIIIIII>%%>>%%o +oooooo+ ox]]zj++   .$...XXXXX$>%XKi;*77IIIIIIIIIIIIIIIIIIIIIIIIIIIIIIIIIII",
"IIIIIIIIIIIIIIII>%%>%%oo  oooooo   x]]xj++    $XX.XXXXXX%%$LBe*76eIIIIIIIIIIIIIIIIIIIIIIIIIIIIIIIIII",
"IIIIIIIIIIIIIIII>%%>%%%o  oooooo   x]]xj++    X...XXXXX.XX.PGi;6yIIIIIIIIIIIIIIIIIIIIIIIIIIIIIIIIIII",
"IIIIIIIIIIIIIIII>%%>>%%o oooooooo  x]]xj+     ....XXXXX.XX./Jv;6yyIIIIIIIIIIIIIIIIIIIIIIIIIIIIIIIIII",
"IIIIIIIIIIIIIIII>%%>%%oo oooooooo  x]]xj++    ....XXXXX.XX./Kn75eIIIIIIIIIIIIIIIIIIIIIIIIIIIIIIIIIII",
"IIIIIIIIIIIIIIII%o%>>%%  oooooooo  x]]xj++    ....XXXXX.XX./KNe6eIIIIIIIIIIIIIIIIIIIIIIIIIIIIIIIIIII",
"IIIIIIIIIIIIIII>oo%>%%%  #oooooo#  x]]xj++    ....XXXXX.XX. LBc6IIIIIIIIIIIIIIIIIIIIIIIIIIIIIIIIIIII",
"IIIIIIIIIIIIIII>oo%>>%% o#oo++oo#o z]]xj+ >>+%....XXXXXXXXX LBeIIIIIIIIIIIIIIIIIIIIIIIIIIIIIIIIIIIII",
"IIIIIIIIIIIIIII>oo%>%%% oo+    +oo k]]Uj+>kTh>%+o++XXXX..oX KHIIIIIIIIIIIIIIIIIIIIIIIIIIIIIIIIIIIIII",
"IIIIIIIIIIIIIII>oo%>>%o #o      o# k]]Uj+>f]W<>%+++++XX..oX PIIIIIIIIIIIIIIIIIIIIIIIIIIIIIIIIIIIIIII",
"IIIIIIIIIIIIIII>oo%>%%o oo++++++oo j]]Uj+ %ss2<>%+++++XXXoX LIIIIIIIIIIIIIIIIIIIIIIIIIIIIIIIIIIIIIII",
"IIIIIIIIIIIIIII>oo%>>%% oooooooooo s!]Yj+ +>222<>%++o++XXXX PIIIIIIIIIIIIIIIIIIIIIIIIIIIIIIIIIIIIIII",
"IIIIIIIIIIIIIII>oo%>%%o oooooooooo +T'Yj+ +o<<<>*>%++oo+XoX _IIIIIIIIIIIIIIIIIIIIIIIIIIIIIIIIIIIIIII",
"IIIIIIIIIIIIIII>oo%>>%% oooooooooo  kWxk+%+o><<>>*>%+++##XX.IIIIIIIIIIIIIIIIIIIIIIIIIIIIIIIIIIIIIIII",
"IIIIIIIIIIIIIII>oo%>>%%oooo$$$$$oo+ <hjh+% o><<>%%**%oo>*#..IIIIIIIIIIIIIIIIIIIIIIIIIIIIIIIIIIIIIIII",
"IIIIIIIIIIIIIII>oo%>><>>%$%%$oo+ooo+$2ss<>>o*2<>>>>%>%o>***#IIIIIIIIIIIIIIIIIIIIIIIIIIIIIIIIIIIIIIII",
"IIIIIIIIIIIIIII>o><<2>%%%#>o>># oooo$>222<>*<2>>%>>>%%>*****#IIIIIIIIIIIIIIIIIIIIIIIIIIIIIIIIIIIIIII",
"IIIIIIIIIIIIIII>>2s>%>>>%<<o#>> oooo$><<>><s2<>%>%>>>>%>>%***#IIIIIIIIIIIIIIIIIIIIIIIIIIIIIIIIIIIIII",
"IIIIIIIIIIIIIII22>%#%>>>%<<>o#>ooooo$%<<>%>><>>%%>%>%>%>>>>%**#IIIIIIIIIIIIIIIIIIIIIIIIIIIIIIIIIIIII",
"IIIIIIIIIIIIII2<>%oo%>>>%#>>o>fooooo$%>2>%%>%>>>>%>%>o>>>>#>%>>#IIIIIIIIIIIIIIIIIIIIIIIIIIIIIIIIIIII",
"IIIIIIIIIIIIII<>%ooo%><>%o#o Q]s%ooo$%<f2>%>%>>>%>>>%>%>>$>>>>>*#IIIIIIIIIIIIIIIIIIIIIIIIIIIIIIIIIII",
"IIIIIIIIIIIII<>%oo++%><>%o        ooo%%2s<>%>%>>%>>>%>>>%%>%>>%#*#IIIIIIIIIIIIIIIIIIIIIIIIIIIIIIIIII",
"IIIIIIIIIIIII2>oo#o+%>2>%o        oo$$$%<<%>>>%>%>%%%%%>$%>%>>>%%>oIIIIIIIIIIIIIIIIIIIIIIIIIIIIIIIII",
"IIIIIIIIIIIII<%ooooo%>s<%+          $$%%>>>>%%>>%>>>%>>>%>>>>>>>>>%%IIIIIIIIIIIIIIIIIIIIIIIIIIIIIIII",
"IIIIIIIIIIIII>oooo o%>s2>+      ....$$%$>>>>%%>%>%>>%>%>>%%>>>>>>>>%%IIIIIIIIIIIIIIIIIIIIIIIIIIIIIII",
"IIIIIIIIIIIII>oooo o%>s2>+      ....$$%$%>>>%%%>>>%>%%>>>%>>>%>%>>>%*%IIIIIIIIIIIIIIIIIIIIIIIIIIIIII",
"IIIIIIIIIIII2>ooo# o%<j2>+      ....$$%$%>%>%>%>%>>>%%%%%>#%>>>>%>>>**%IIIIIIIIIIIIIIIIIIIIIIIIIIIII",
"IIIIIIIIIIII2o*ooooo%<Qs>+      ....$$%$%>>>%>%>%>>>%>%>%%>>$>%>%>>%%**#IIIIIIIIIIIIIIIIIIIIIIIIIIII",
"IIIIIIIIIIII<o#oo  o%>s<<+      ....$$%$%<>%>%>>>>>>%>%>%%%>>>>>>%%%>%*%IIIIIIIIIIIIIIIIIIIIIIIIIIII",
"IIIIIIIIIIII>o#o# $%<<h22<      ....$$%%%<%>>>%>>>o>>%>>>>>>>>>%>%%>>>*%+IIIIIIIIIIIIIIIIIIIIIIIIIII"
};
