/* XPM */
static char *_594930159425[] = {
/* columns rows colors chars-per-pixel */
"128 128 65 1 ",
"  c #131313",
". c gray9",
"X c #1B1B1B",
"o c gray12",
"O c #23170B",
"+ c #2F1F0F",
"@ c #1E371E",
"# c #3A3319",
"$ c #232323",
"% c gray15",
"& c #282828",
"* c #282F28",
"= c #2E2C2E",
"- c #322D22",
"; c #392B27",
": c #223322",
"> c #273C27",
", c #2B3827",
"< c #3D3626",
"1 c #363228",
"2 c #303032",
"3 c #323737",
"4 c #35353B",
"5 c #3A3A3A",
"6 c #423629",
"7 c #453F2A",
"8 c #4F3F2B",
"9 c #2D4025",
"0 c #334B23",
"q c #344D2D",
"w c #355722",
"e c #3D5935",
"r c #5B4326",
"t c #53472C",
"y c #704628",
"u c #604C33",
"i c #6D5536",
"p c #7B5C3C",
"a c #416225",
"s c #4C6C2A",
"d c #547630",
"f c #3D3D43",
"g c #434343",
"h c #4E4E4E",
"j c #444450",
"k c gray34",
"l c #555560",
"z c gray39",
"x c gray43",
"c c #777777",
"v c #72727F",
"b c #814F30",
"n c #8C5637",
"m c #985D3F",
"M c #866741",
"N c #976E45",
"B c #A76743",
"V c #A0764A",
"C c #AD7F4E",
"Z c #B3734F",
"A c #8F5E61",
"S c #B78C58",
"D c #C49A69",
"F c #7A7A89",
"G c #848484",
/* pixels */
"ou7uuuipMNNVVCSSSDSVt66upMNNwq:uX<<uu7uuuuiNNpppiuuuuuuuuuuipCCCCCCpiuuuuuuuuuuipppNNiuuuu7uu<<Xu:qwNNMpu66tVSDSSSCVVNNMpiuuu7uo",
"Xu7uuu7uipMMNVVVCCCDVX ;8uMM&0@u.<uu77uuut77<<7utttttttut77ipNVCCVNpi77tutttttttu7<<77tuuu77uu<.u@0&MMu8; XVDCCCVVVNMMpiu7uuu7uX",
"X<ipppiipppppppppp7iM8oo;88p,DD7XX&uVVVVVpiittippppppppppiippppVVppppiippppppppppittiipVVVVVu&XX7DD,p88;oo8Mi7ppppppppppiipppi<X",
"$oXooooXXXX..........        .........................oooo%o=X*&&*X=o%oooo.........................        ..........XXXXooooXo$",
"kh<<<<<%%X<25525&&&&%&&%%%%%%%%%%::&%%%%%%%%%%%%%%%%%X$o***===*==*===***o$X%%%%%%%%%%%%%%%%%&::%%%%%%%%%%&&%&&&&52552<X%%<<<<<hk",
"kh8777<<7%%g7u8t66<&&&&&%%%&2::::@:2,::<&&&&&&&&&&&%%X$%$**=ghzggzhg=**$%$X%%&&&&&&&&&&&<::,2:@::::2&%%%&&&&&<66t8u7g%%7<<7778hk",
"kiu7877<7&%78ttut8t77787&%2:,u8,,,:7:,,,9&&<<66&&&&%%X%%%====gkhhkg====%%%X%%&&&&66<<&&9,,,:7:,,,8u,:2%&78777t8tutt87%&7<7787uik",
"lh77u7<7u<7ttuuuuut8tt886%&:78t9999t@9:8u&2uuut86&&&%X%%$====ghhhhg====$%%X%&&&68tuuu2&u8:9@t9999t87:&%688tt8tuuuuutt7<u7<7u77hl",
"ipipppiii7ipVVNNpiippppi<X<8uippp99p9p@iV<:upNNp6&&&%X%$$*==5hhhhhh5==*$$%X%&&&6pNNpu:<Vi@p9p99pppiu8<X<ippppiipNNVVpi7iiipppipi",
"piMpMMNpu7iDSVNppppnMMNp<%<uNNNM997nMp,VN<,uVNVp7&%&%X$o$*=55hhhhhh55=*$o$X%&%&7pVNVu,<NV,pMn799MNNNu<%<pNMMnppppNVSDi7upNMMpMip",
"tpMMMpppp<8CDCNippMMMppp<%<8uppppp7MMMMVp<:<7pNi76&&%.%Xo%==5ghkkhg5==%oX%.%&&67iNp7<:<pVMMMM7pppppu8<%<pppMMMppiNCDC8<ppppMMMpt",
"tpMppippi&7iCCpipNNNpipp<&<<tuuipNNNpiVV8<:7<iu726&&%.&Xo$$==5hkkh5==$$oX&.%&&627ui<7:<8VVipNNNpiuut<<&<ppipNNNpipCCi7&ippippMpt",
"-tiipiu7<<<%<t<<7888t87776<77&&67uuu99,<%::6uut%%%%%o.ooooo$oX=%%=Xo$ooooo.o%%%%%tuu6::%<,99uuu76&&77<67778t8887<<t<%<<<7uipiit-",
"f4oXoo%o%%ooooooXXoXoo<oXooXXXXX..X@@@@@@%%oooXooooooX%*4==h$=gggg=$h==4*%XooooooXooo%%@@@@@@X..XXXXXooXo<ooXoXXoooooo%%o%ooXo4f",
"fgVCVCDCVCVSppS&VCVCDCVCVSppt77,VC7tDC,t7t99t7V8&uu7%Xo$*=gh$=khhk=$hg=*$oX%7uu&8V7t99t7t,CDt7CV,77tppSVCVCDCVCV&SppSVCVCDCVCVgf",
"ftuipNNNpNppiip<uuiMVNNNppii997uuu9iN7777799iipi<7<&%X$o%=gh$gkkkkg$hg=%o$X%&<7<ipii9977777Ni9uuu799iippNNNVMiuu<piippNpNNNpiutf",
"j78tipppNNNpppp<ipppMMNMppppi99tip9p977M9p99iuiu286&%Xo$%*ghogzkkzgohg*%$oX%&682uiui99p9M779p9pit99ippppMNMMpppi<ppppNNNpppit87j",
"k8uuipppppiipNi<ppMpMpMMMpppui7uppMpp97pii9puipi<86<%Xoo*4gh$5zzzz5$hg4*ooX%<68<ipiup9iip79ppMppu7iupppMMMpMpMpp<iNpiipppppiuu8k",
"k6uuiipppiippVp<pNMMpppiipppiii7pNMpp99iipp9iiiu&86&%Xo$==gh$5hkkh5$hg==$oX%&68&uiii9ppii99ppMNp7iiipppiipppMMNp<pVppiipppiiuu6k",
"k7iuyipppiiNNNp7pppMpppppMMppp97pppMpi9ippnpNpit<66&%.o$%==go=hzzh=og==%$o.%&66<tipNpnppi9ipMppp79pppMMpppppMppp7pNNNiipppiyui7k",
"f2uuuipipNpNpVp<iipppppppM7Mp99<iipppppnMMMMpppu&66&%.$$=*=h$=hzzh=$h=*=$$.%&66&upppMMMMnpppppii<99pM7Mpppppppii<pVpNpNpipiuuu2f",
"46ttuiuipNNNp<<&uuiiuipN77999996uuiiuippMppipppu27&&%.XX$$o*=$%==%$=*o$$XX.%&&72upppippMppiuiiuu69999977Npiuiiuu&<<pNNNpiuiutt64",
"kh688tttuiii7<7%8uutttuiiipi9uut8uutttuiiipiuuu8%%%oXX$X$=5hgkhgghkgh5=$X$XXo%%%8uuuipiiiutttuu8tuu9ipiiiutttuu8%7<7iiiuttt886hk",
"jf%o%%%oX.X.oXi%%o%%%oXXoXoo<o%%%o%%%%XXoXoo<o%u&%oXXX%$$*=gkhgzzghkg=*$$%XXXo%&u%o<ooXoXX%%%%o%%%o<ooXoXXo%%%o%%iXo.X.Xo%%%o%fj",
"pVVSppSVV6iCVCDCVCppDDDVV6VCVCDCVCVSVNSVV6VCVCDiuit8%X&o$%%*hkzkkzkh*%%$o&X%8tiuiDCVCV6VVSNVSVCVCDCVCV6VVDDDppCVCDCVCi6VVSppSVVp",
"iMpppNpiN-6uiiiVNNCCiiiiNu6uiiiNpNppiiiuNu7uMMiut6&&%X%$%%*=4hkxxkh4=*%%$%X%&&6tuiMMu7uNuiiippNpNiiiu6uNiiiiCCNNViiiu6-NipNpppMi",
"pNNMMmpip-8ppNNCVVCCMpiup<8ppppppNNpppitp<8pppNi86&&%X$X%5=5ghhzzhhg5=5%X$X%&&68iNppp8<ptipppNNpppppp8<puipMCCVVCNNpp8-pipmMMNNp",
"ppNMMpiii7rppMpNNVCVNMuiN6rpppppppiipiuuN<tpMppu76&&%X*o%5g5ghhxxhhg5g5%o*X%&&67uppMpt<Nuuipiipppppppr6NiuMNVCVNNpMppr7iiipMMNpp",
"ippMpiii8<rNMpnnMNNVNNiii-rMMpiiiiippppui&tNMMpu7&%&%.&$$*ggfhhzzhhfgg*$$&.%&%&7upMMNt&iuppppiiiiipMMr-iiiNNVNNMnnpMNr<8iiipMppi",
"tuiiiupp6<rnpMppppMVNNNpu-rpMp8ipipMMpppu&tppMiut<6&%.oX$$*44gkkkkg44*$$Xo.%&6<tuiMppt&upppMMpipi8pMpr-upNNNVMppppMpnr<6ppuiiiut",
"1tiuuiipr%8ipppipMNNNNppp-8iprrippMMMMppi&8ippiu<7<&%.oXoXXoX*g==g*XoXXoXo.%&<7<uippi8&ippMMMMppirrpi8-pppNNNNMpipppi8%rpiiuuit1",
"kpuuuipp8%-uiiuipNNNpippi.-68iuuiipNpippu%<uuiu866&&%X%$44ggo5xzzx5ogg44$%X%&&668uiuu<%uppipNpiiuui86-.ippipNNNpiuiiu-%8ppiuuupk",
"xit<<ut<-&X%7666uiiipiuu6<O6#<<<<<<7t7<<<%o66&<&%%%XXX$$=4gh=fzkkzf=hg4=$$XXX%%%&<&66o%<<<7t7<<<<<<#6O<6uuipiiiu6667%X&-<tu<<tix",
"g&XXoX<oo%oo%%%oXXoXoo<o%%%oX%%oXXoXoo<o%%%...Xoooo.XX$%*=gk5=zkkz=5kg=*%$XX.ooooX...%%%o<ooXoXXo%%Xo%%%o<ooXoXXo%%%oo%oo<XoXX&g",
"j6VCVCDCVCVSppS16tuiiCVCVSppSVV6VCVCDCVCVSppSVV82uu<%XX$*=hho=hzzh=ohh=*$XX%<uu28VVSppSVCVCDCVCV6VVSppSVCVCiiut61SppSVCVCDCVCV6j",
"48ttiiiNpNppiip8tiMMNNpNppiiiiNuuuiiiNpNppiiiipi67&&%XX$*=hh$=hzzh=$hh=*$XX%&&76ipiiiippNpNiiiuuuNiiiippNpNNMMit8piippNpNiiitt84",
"fttuippMNMppppp8tippMMmMNppiiuptipippMMMppppiuiu68<&%Xo$*=5h$=gggg=$h5=*$oX%&<86uiuippppMMMppipitpuiippNMmMMppit8pppppMNMppiuttf",
"48uuppnppnpippi<uiMpppMpiipiuiNuppMppppMpippuipi&<<&%.o$$=4gX*5gg5*Xg4=$$o.%&<<&ipiuppipMppppMppuNiuipiipMpppMiu<ippipnppnppuu84",
"46uiippppiipppu18MMpuiiiipppiii7pMMMuiiiipppiiiuo&&&%.$$$==ho*gggg*oh==$$$.%&&&ouiiipppiiiiuMMMp7iiipppiiiiupMM81upppiippppiiu64",
"=1utpNpiiippMpu<uMMMNpppppMpNpu7ppMpNppippMMNpito&%&%.o$$Xo$$======$$oX$$o.%&%&otipNMMppippNpMpp7upNpMpppppNMMMu<upMppiiipNptu1=",
"jft7uiiippMMpNu-ippMpippMMMMppp<iiiMpipMMMMppppuo&%&%X%.%5gggghhhhgggg5%.%X%&%&ouppppMMMMpipMiii<pppMMMMppipMppi-uNpMMppiiiu7tfj",
"4h7<tttiipNppit$8ipiuipNNNpippi6u7iiuipNNNpipppu%%%%%X%%*45=gggkkggg=54*%%X%%%%%upppipNNNpiuii7u6ippipNNNpiuipi8$tippNpiittt<7h4",
"4h8887ttuiiiu&6&<7itttuiiipiuuut8<%t667uiipiuuut<%%&%X%%*==4ghkkkkhg4==*%%X%&%%<tuuuipiiu766t%<8tuuuipiiiuttti7<&6&uiiiutt7888h4",
"ff%o%%%oXXoXoou%%o%%%oXXoXoo<o%%%o%%%oXXoXoo<o%u&&%%%X$&===4ghkkkkhg4===&$X%%%&&u%o<ooXoXXo%%%o%%%o<ooXoXXo%%%o%%uooXoXXo%%%o%ff",
"pVVSppSVV6VCVCppiiiuuuSVV6VCVCDDSDSDSSSCD6VCVCDiuit8%X$$%*=4kkhkkhkk4=*%$$X%8tiuiDCVCV6DCSSSDSDSDDCVCV6VVSuuuiiippCVCV6VVSppSVVp",
"tpppiiiiN6uuiiNMNNNMp9iiN6uuiiiNpNppiiVCDu7uiiiutt7&%Xo$%==5hkhzzhkh5==%$oX%&7ttuiiiu7uDCViippNpNiiiuu6Nii9pMNNNMNiiuu6Niiiipppt",
"uNNpppiup<8ipppMm7Mpp9ipp<8pppnMMMppppMVNt7ppNNiu86&%.%$$%=55ghhhhg55=%$$%.%&68uiNNpp7tNVMppppMMMnppp8<ppi9ppM7mMpppi8<puipppNNu",
"upiippuiN6rppppppp9ppp9iN6rpppMnMppipiMMtu7pNiiuut<&%.%$$%%=4gghhgg4=%%$$%.%&<tuuiiNp7utMMipippMnMpppr6Ni9ppp9pppppppr6Niuppiipu",
"7uipppiii-rpMppiii9pppi9i-rNpMpppiipppp9p77Nppiu86<&%.o$o$$$$=g**g=$$$$o$o.%&<68uippN77p9ppppiipppMpNr-i9ippp9iiippMpr-iiipppiu7",
"uiiNNpNpu-#ppppppip7779@u-rpMpppppnnMM9pi7<pNNNit8&&%X=$%=ghoggggggohg=%$=X%&&8tiNNNp<7ip9MMnnpppppMpr-u@9777pipppppp#-upNpNNiiu",
"xMpNpNppp<#ipprr#r9uu7@@p-#ipppppMM7MM9p9<7ippput76&%X**=5gh$=gzzg=$hg5=**X%&67tupppi7<9p9MM7MMpppppi#-p@@7uu9r#rrppi#<pppNpNpMx",
"pMNNpippi--uiiuipNN9::99@:.6i99uipM7pi99u&<<uiiut6<&%XX%==gh$ghhhhg$hg==%XX%&<6tuiiu<<&u99ip7Mpiu99i6.:@99::9NNpiuiiu--ippipNNMp",
"k7<7<<<t6%o-6<<<688##O@:9:::::<<ui9i99@,<%%<<t62<&&&%Xo%*=ghoghhhhgohg=*%oX%&&&<26t<<%%<,@99i9iu<<:::::9:@O##886<<<6-o%6t<<<7<7k",
"j%X.XX<o%%%o%%%oXXoXoo<..%oo%%%oX@:X:o<o%%%o%%%%%%%%%X$$**5ho5kggk5oh5**$$X%%%%%%%%%o%%%o<o:X:@Xo%%%oo%..<ooXoXXo%%%o%%%o<XX.X%j",
"j6VCVCDCVCVSppS6VCVCDCVCVSppSCC6VCVCDCVCVSppSVp&&2u<%X$%===ho5hggh5oh===%$X%<u2&&pVSppSVCVCDCVCV6CCSppSVCVCDCVCV6SppSVCVCDCVCV6j",
"jtuuiiiNpNppiipuuuiiiNNppppiMVCuuuiiiNpNppiiiiN6&77<%.$===*h*hkhhkh*h*===$.%<77&6NiiiippNpNiiiuuuCVMippppNNiiiuuupiippNpNiiiuutj",
"jt8ippnnmMMpppp6ippNpnMmpppppMStiipppMNMppppiiii&68&%.$5545x5hhgghh5x5455$.%&86&iiiippppMNMpppiitSMpppppmMnpNppi6ppppMMmnnppi8tj",
"4tuuippMMppippi7ipMppppppppppMC6pippppMppippuui8%<7&%.o$$%=5%==**==%5=%$$o.%&7<%8iuuppippMppppip6CMppppppppppMpi7ippippMMppiuut4",
"kkuippupiuipppu7ipMppiiippppMNC7pppMuiiiippppiu7o&8&%X=o$=hzkgkzzkgkzh=$o=X%&8&o7uippppiiiiuMppp7CNMppppiiippMpi7upppiuipuppiukk",
"zhuuippiiuipMpu7ppppppppppMpMMC<ppppppppMNNNNNp7X%<<%X*o=555kkzzzzkk555=o*X%<<%X7pNNNNNMpppppppp<CMMpMpppppppppp7upMpiuiippiuuhz",
"kh86uiiiiipppN7<iiiipippMmMMpMp<iiippppMNVVVCSN<o%<&%X%$%%==gzxzzxzg==%%$%X%&<%o<NSCVVVNMppppiii<pMpMMmMppipiiii<7Npppiiiiiu68hk",
"kh7<887uippMp<7&uuiiuipNNNpipii<ttiiuuipCCVNVVu6oX%&%X%$$%=5gkvxxvkg5=%$$%X%&%Xo6uVVNVCCpiuuiitt<iipipNNNpiuiiuu&7<pMppiu788<7hk",
"zh8uutttuiiiStu&%77tttuiiipit7<<<66&77tuuuiuuu<6&Xo%%X=%$%=5hhkvvkhh5=%$%=X%%oX&6<uuuiuuut77&66<<<7tipiiiuttt77%&utSiiiutttuu8hz",
"k2%o%%%oXXoXooN%%oo%%oXXoXoo<o%%%X.ooX..X.XX&oou&oo%%X=$$*=5ghhxxhhg5=*$$=X%%oo&uoo&XX.X..Xoo.X%%%o<ooXoXXo%%oo%%NooXoXXo%%%o%2k",
"pMVSppSVV6VCVCDCVCVCCCCVV6iCVCDCVCVSppSCV6pNpCDiui76%.$oo%===ghzzhg===%oo$.%67iuiDCpNp6VCSppSVCVCDCVCi6VVCCCCVCVCDCVCV6VVSppSVMp",
"tpppiiiiNuuuiiiNpNppiiiiNu6uiiiNpNppiiiCN&<7iiiutu7&%.$oo$$**5hhhh5**$$oo$.%&7utuiii7<&NCiiippNpNiiiu6uNiiiippNpNiiiuuuNiiiipppt",
"7ippppiuu-tppppMmMNpppiup<8pppppMpppiiiuC%8pppNiuu8&%.oo$oooX======Xooo$oo.%&8uuiNppp8%CuiiipppMppppp8<puipppNMmMppppt-uuippppi7",
"pMpippuip-6pNppppMiippuiN6#pNMpMpppippiiCoupMMpuut6&%X$$**=h$kxkkxk$h=**$$X%&6tuupMMpuoCiippipppMpMNp#6NiuppiiMppppNp6-piuppipMp",
"lpipppiito6NMpppppipppiii-#NpMppiiipppiiCo7NpMpu88<&%X$$*=gh$4kzzk4$hg=*$$X%&<88upMpN7oCiipppiiippMpN#-iiipppipppppMN6otiipppipl",
"tippMpNpto<ipppiippMNpNpu-#pNMpppiiNMpNpC&8pMMNit8<&%X$$**ghogkkkkgohg**$$X%&<8tiNMMp8&CpNpMNiipppMNp#-upNpNMppiipppi<otpNpMppit",
"piMMMNppio-tippipMmMpNppp-#ipppipuipppiip&<ipppu86&&%X$$==ghogkzzkgohg==$$X%&&68upppi<&piipppiupipppi#-pppNpMmMpippit-oippNMMMip",
"ppppnippuo-8uiuuppMppippio-uiiuip8ppiuiii6<6uuu86&&&%Xo$*=ghX4kkkk4Xhg=*$oX%&&&68uuu6<6iiiuipp8piuiiu-oippippMppuuiu8-ouppinpppp",
"tuiipiuut-$tutttuiiipiuu<X-<<<ttutuuiutt<o%%&<<&&%&%%Xoo*=5h$fhzzhf$h5=*ooX%%&%&&<<&%%o<ttuiuututt<<<-X<uuipiiiutttut$-tuuipiiut",
"k&oXoo<o$.$o%%%oXXoXoo%o%ooo%%%oXXoXoo<o%%%o%%%%%%%%%.oo*=fg$5hzzh5$gf=*oo.%%%%%%%%%o%%%o<ooXoXXo%%%ooo%o%ooXoXXo%%%o$.$o<ooXo&k",
"k6VCVCDCNNNSppS6VCVCDCVCVSppSVV6VCVCDCDDDDDDDDV82<86%.$*%=4h$5hzzh5$h4=%*$.%68<28VDDDDDDDDCDCVCV6VVSppSVCVCDCVCV6SppSNNNCDCVCV6k",
"4tttiiiNpNppiiituuiiiNpNppiiMNC76VVVNNVVppiiiipi%t8<%.oXoXXo$=5gg5=$oXXoXo.%<8t%ipiiiippVVNNVVV67CNMiippNpNiiiuutiiippNpNiiittt4",
"kh7uippNNNNpppi-uppppMmMNppppMC%uVVMMMMpppppiuiu%78&%X%$$**=gkvzzvkg=**$$%X%&87%uiuipppppMMMMVVu%CMppppNMmMppppu-ipppNNNNppiu7hk",
"kh7uiippppiippu<ipNppMpMiippppC%rCNMMppMppppuipi%7<<%X%$$%=gghzzzzhgg=%$$%X%<<7%ipiuppppMppMMNCr%CppppiiMpMppNpi<uppiippppiiu7hk",
"kh6tuiiiiiipppt-uNpMpiiiipppppC%8CVMMMpiipppiiiu%86&%X$o$%==ghzzzzhg==%$o$X%&68%uiiipppiipMMMVC8%CpppppiiiipMpNu-tpppiiiiiiut6hk",
"kh6tuuuuuippMptXtppMpppiipnppMN%#VNVMNpippMMNpit%&7&%X%o$%*=5hkzzkh5=*%$o%X%&7&%tipNMMppipNMVNV#%NMppnpiipppMpptXtpMppiuuuuut6hk",
"kg<778ttuiiMpNtX8ipppippMMMMpMCoopMNMppMMMMppppuoo6&%X$o$%==5hzzzzh5==%$o$X%&6oouppppMMMMppMNMpooCMpMMMMppipppi8XtNpMiiutt877<gk",
"k417<78uiNpppi7X6uiiuippMnpipppo.tiipppNNNpippp8%%7&%X$o$*=4fhzzzzhf4=*$o$X%&7%%8pppipNNNpppiit.opppipnMppiuiiu6X7ipppNiu87<714k",
"k4688<<tuiuup8-XX<utttuiiipiuu7%i--uttuiiipiuuu6%&&&%.$$%%==4ghzzhg4==%%$$.%&&&%6uuuipiiiuttu--i%7uuipiiiutttu<XX-8puuiut<<8864k",
"22%o%%%oXXoXooXo$o%%%oXXoXoo<o%oo.X%%oXXoXoo<o%8%&%%%.o$o$%===kggk===%$o$o.%%%&%8%o<ooXoXXo%%X.oo%o<ooXoXXo%%%o$oXooXoXXo%%%o%22",
"tMVSppSVV6VCVCDCVCVVVVVVV<8iVCDDDDDDDDDCV<VCVCDiuiu8%.$ooXoo$======$ooXoo$.%8uiuiDCVCV<VCDDDDDDDDDCVi8<VVVVVVVCVCDCVCV6VVSppSVMt",
"pNppiiiiNuuuiiiNpNppiiiVi78pppVCVDDCNVNiN87uiiiutu<&%X$$*=ggo=zzzz=ogg=*$$X%&<utuiiiu78NiNVNCDDVCVppp87iViiippNpNiiiuuuNiiiippNp",
"pMNpppiui1uipNNNNN7pppiMi1<ipNNNNNVCMMppV&<ipNNiu86<%.X$*5hko=5zz5=okh5*$X.%<68uiNNpi<&VppMMCVNNNNNpi<1iMippp7NNNNNpiu1iuipppNMp",
"ipi99puii%tuptipp9ippppMu-<pppppppiiMMppN&<iNiiuu7<&%X$%**gkg=gzzg=gkg**%$X%&<7uuiiNi<&NppMMiippppppp<-uMppppi9ppitput%iiup99ipi",
"iuip9piitX6uiuuu9iyip9pNu-uppppppiipppiii%6uppiu8<<&%Xo$*=5g=ghkkhg=g5=*$oX%&<<8uippu6%iiipppiippppppu-uNp9piyi9uuuiu6Xtiip9piui",
"iui7,p79tX<ui9ii<yii9pMNu-upppNpiiiippNpu&<tiNNit<<&%Xo$%=gh**hxxh**hg=%$oX%&<<tiNNit<&upNppiiiipNpppu-uNMp9iiy<ii9iu<Xt97p,7iui",
"ppp79@9iso<tu@7@99ii99uNu$8iipuuuuuuuyppp&&8uiiu6&6&%XXo*5h9d9gzzg9d9h5*oXX%&6&6uiiu8&&pppyuuuuuuupii8$uNu99ii99@7@ut<osi9@97ppp",
"tMN9t@@i@4:a>,9@@iiu,99puo1tuuu788ttruupi&<<77876&&&%.$:&wg99:hxxh:99gw&:$.%&&&67877<<&ipuurtt887uuut1oup99,uii@@9,>a:4@i@@t9NMt",
"tq999@@>a>>>>@>q59a@ae::%X-88t<&&<77<67uu&&%%%<&<<<&%.$$0qagsa=hh=asgaq0$$.%&<<<&<%%%&&uu76<77<&&<t88-X%::ea@a95q>@>>>>a>@@999qt",
"$$9,,::o@>:@@@@90@@09&:o%Xoo%%%oXXoXoo<o%%%X.o%%%%%%%.XX::<$X==**==X$<::XX.%%%%%%%o.X%%%o<ooXoXXo%%%ooX%o:&90@@09@@@@:>@o::,,9$$",
"jhiCVCDi999999t0p7@pMp7CVSpCCVV6VCVCDCVCVSCCCVV8&tu7%X%$%*5ggkzzzzkgg5*%$%X%7ut&8VVCCCSVCVCDCVCV6VVCCpSVC7pMp@7p0t999999iDCVCihj",
"jiuuiiiN9Np99i90t,iiiNpNppiiiiN<tuiiiNpNppiiiiVV<<&&%X%%$*44ggkzzkgg44*$%%X%&&<<VViiiippNpNiiiut<NiiiippNpNiii,t09i99pN9Niiiuuij",
"kkippNNp9pNp9991t9pNNNNNNpppiui$6ppNNNNNNpppiiVV%&7&%X%$%*==ghzkkzhg==*%$%X%&7&%VViipppNNNNNNpp6$iuipppNNNNNNp9t1999pNp9pNNppikk",
"kiuuNiii9iiip99-up9pppNpiippuu8XtpNippNpiippuiVV&&<&%X*$$**ghhzzzzhhg**$$*X%&<&&VViuppiipNppiNptX8uuppiipNppp9pu-99piii9iiiNuuik",
"k7uiippiyuippp9oui9pppiiipppuu<XtpppppiiipppiiVV%%&%%X$o%=55ghkxxkhg55=%o$X%%&%%VViipppiiippppptX<uupppiiippp9iuo9pppiuyippiiu7k",
"k7uupNppuuiNN99-8uppppppppNit8X.6uNNNppiiNNpNNVV%&%&%X$$$%=5ghkzzkhg5=%$$$X%&%&%VVNNpNNiippNNNu6.X8tiNppppppppu8-99NNiuuppNpuu7k",
"47u6uppu8u8pp7u-68uiiippMMipuC8.61iiiuiMpNpNppVV%%%&%.$o$$==5hkzzkh5==$$o$.%&%%%VVppNpNpMiuiii16.8CupiMMppiiiu86-u7pp8u8uppu6u74",
"467&6ut8u88iuuiX1<tt8tiNNNiiVp<.1%tt8tuipiu8iiVV%%%%%.o$$%$**ggzzgg**$%$$o.%%%%%VVii8uipiut8tt%1.<pViiNNNit8tt<1Xiuui88u8tu6&764",
"$7688777t888uu%o-<6<<<6tiiiiuu&.X%&<<<7888u8ttVt<%%%%.$$o$ooo*g==g*ooo$o$$.%%%%<tVtt8u8887<<<&%X.&uuiiiit6<<<6<-o%uu888t7778867$",
"kf%o%%%oXXoXo.<%%o%%%oXXoXoo<oo%%o%ooX..X.oo<o%u&%%%%X%=5*=h==xzzx==h=*5=%X%%%%&u%o<oo.X..Xoo%o%%oo<ooXoXXo%%%o%%<.oXoXXo%%%o%fk",
"ANVSppSVV%VCVCDCVCVSViiiX%VCVCDCVCVDDDDVV6VCVCDit67<%.o$=ggh=5kzzk5=hgg=$o.%<76tiDCVCV6VVDDDDVCVCDCVCV%XiiiVSVCVCDCVCV%VVSppSVNA",
"ipppiiMNV7uuiiiNVVCViVVV.&uuiiiNpNppiiiiNuuuiiiu<<<&%.$$*5hh**gkkg**hh5*$$.%&<<<uiiiuuuNiiiippNpNiiiuu&.VVViVCVVNiiiuu7VNMiipppi",
"ipNppipNS%uipNCCVNVp7NVCp&tuiippppppuuiup6uipNNi6<&&%.o$==gh=*hkkh*=hg==$o.%&&<6iNNpiu6puiuuppppppiiut&pCVN7pVNVCCNpiu%SNpippNpi",
"puipppMNS<77NiipNNptCNNNp<t7tipiiippttuiN7itiuiu6&%%oXX$==5f5=hkkh=5f5==$XXo%%&6uiuiti7Niuttppiiipit7t<pNNNCtpNNpiiN77<SNMpppiup",
"luuiipMMS%<7iituVuipNNppu%77tuitutuu<7iii<uttuut&%%ooX..$=f455hkkh554f=$..Xoo%%&tuuttu<iii7<uututiut77%uppNNpiuVutii7<%SMMpiiuul",
"ktiuiiiup%11uuuuuuuippiit%77tuuu78tt<<ipu<t7uiu8&%%&=%&o$%&24gkzzkg42&%$o&%=&%%&8uiu7t<upi<<tt87uuut77%tiippiuuuuuuu11%puiiiuitk",
"GzutiuttN.<17tt<<utuuuuiiX<<<<t<<7877t7up%<<7886%o%gkcc5&Xo5zccccccz5oX&5cckg%o%6887<<%pu7t7787<<t<<<<Xiiuuuutu<<tt71<.NttuituzG",
"zkuttu77tX$1<877<77ttuuuuX&<<<<<<<<<<<tu<X<<6<<%%o%gxzzh3%=hxGGGGGGxh=%3hzzxg%o%%<<6<<X<ut<<<<<<<<<<<&Xuuuutt77<778<1$Xt77uttukz",
"lh<7776<X%$<11<67tttiutuoX.<6<<<77<7tt7<.%%88&o%%o%hckkhg=kxzzcccczzxk=ghkkch%o%%o&88%%.<7tt7<77<<<6<.Xoutuittt76<11<$%X<6777<hl",
"x2oXoo<X%%oo%%%oXXoXoo<o%%%o%%%oXXoXoo%..%%o%oo%%%%5zkhk2xcFczzGGzzcFcx2khkz5%%%%oo%o%%..%ooXoXXo%%%o%%%o<ooXoXXo%%%oo%%X<ooXo2x",
"hNCCCVpSV<<C9>aVNSC66CCCCVNS6CCCNC66NCCCVNSC66Cii%%5khh5xccccxzkkzxccccx5hhk5%%iiC66CSNVCCCN66CNCCC6SNVCCCC66CSNVa>9C<<VSpVCCCNh",
"lipVuiuiN<tud9s9>aV7uuMMNppi7uNNpV7uuiNNppiV777&&<$5kgfxFGcccczzzzccccGFxfgk5$<&&777VippNNiuu7VpNNu7ippNMMuu7Va>9s9dut<NiuiuVpil",
"li<itipuN<tp99gd9sN6upippipu6ppppN67pippipuN67u<&%$gzgkxFcccccGzzGcccccFxkgzg$%&<u76Nupippip76Npppp6upippipu6Ns9dg99pt<Nupiti<il",
"zMiiuipii1<tuga<9gi<7uuiiipi<uippi<%uuiiipii<<8<%%$gkkkzccxxxcGccGcxxxcczkkkg$%%<8<<iipiiiuu%<ippiu<ipiiiuu7<ig9<agut<1iipiuiiMz",
"kpiuuiiiu%<8uwq:ga<%7tuuiipN%tiiiu%%6uiiiNNu%<7&%%$ghkkzxxzzzzcGGczzzzxxzkkhg$%%&7<%uNNiiiu6%%uiiit%Npiiuut7%<ag:qwu8<%uiiiuuipk",
"hiiutuipp%1tt&0@wq:%<uttiiii%utiip%%76tiiiip%%<&%%%ghkkzzzzkkkkkkkkkkzzzzkkhg%%%&<%%piiiit67%%piitu%iiiittu<%:qw@0&tt1%ppiutuiih",
"6uttuupuu%%<t,uu&0@%%<t7uuiu%<7ui7%%%&<uuiuu%%%&%X%hkkzxxzzkjjh55hjjkzzxxzkkh%X%&%%%uuiuu<&%%%7iu7<%uiuu7t<%%@0&uu,t<%%uupuuttu6",
"h&%oXoo<%%%o%oXo,<%%%o%oXoo<%ooXo%%%o%oXoo<%%%o%%XXkkzcccczkkggkkggkkzcccczkkXX%%o%%%<ooXo%o%%%oXoo%<ooXo%o%%%<,oXo%o%%%<ooXo%&h",
"<%%%%+%%%+%+++%%%%%%%+%%%%%%%%%<o<%%%%%%%%%+%%%%%%%+++%+%%%+%%%%%%%%+%%%+%+++%%%%%%%+%%%%%%%%%<o<%%%%%%%%%+%%%%%%%+++%+%%%+%%%%<",
"6MuitttuuiipyiiiiiiNppiiupppiuuD&68uiiipCpNppppNpiiNppiiiiuippCVVCppiuiiiippNiipNppppNpCpiiiu86&DuuipppuiippNiiiiiiypiiuutttiuM6",
"6MuuuuuuiiiipNNpppMVNVNNMpp9>aMD&&7tuiNNCCVCCCCCVNNNNNNVNNNNNVVSSVVNNNNNVNNNNNNVCCCCCVCCNNiut7&&DMa>9ppMNNVNVMpppNNpiiiiuuuuuuM6",
"<btuuipMCi8u66888uiMNVCVNNMd9sNS%&<tippNNNNNNNNNppNNNNNNNNVNiVZBBZViNVNNNNNNNNppNNNNNNNNNppit<&%SNs9dMNNVCVNMiu88866u8iCMpiuutb<",
"<bttuiMNVCVVMMCCVVuuiVVVVVN99gNS%%<uiVVNpiipNpppiiuuiipppppNpVCZZCVpNpppppiiuuiipppNpiipNVViu<%%SNg99NVVVVViuuVVCCMMVVCVNMiuttb<",
"ou7uuipMNVVVCSSSSCV78uiNVVVNga<VX<7iiupiuuippppiiuuuuiiiiipNNVCCCCVNNpiiiiiuuuuiippppiuuipuii7<XV<agNVVVNiu87VCSSSSCVVVNMpiuu7uo"
};
