/* XPM */
static char *_0708_531428508b8100631b43f0635c30f9b8a39c936131571fe2bc3eb6e9b5231795[] = {
/* columns rows colors chars-per-pixel */
"128 128 72 1 ",
"  c #131313",
". c gray9",
"X c #1B1B1B",
"o c gray12",
"O c #2F1F0F",
"+ c #1E371E",
"@ c #232323",
"# c gray15",
"$ c #282828",
"% c #282F28",
"& c #2E2C2E",
"* c #322D22",
"= c #392B27",
"- c #223322",
"; c #273C27",
": c #2B3827",
"> c #263328",
", c #3D3626",
"< c #363228",
"1 c #303032",
"2 c #323737",
"3 c #35353B",
"4 c #3A3A3A",
"5 c #453C15",
"6 c #633F1F",
"7 c #423629",
"8 c #453F2A",
"9 c #4F3F2B",
"0 c #2D4025",
"q c #334B23",
"w c #344D2D",
"e c #355722",
"r c #3D5935",
"t c #5B4326",
"y c #53472C",
"u c #674027",
"i c #704628",
"p c #604C33",
"a c #6D5536",
"s c #7B5C3C",
"d c #416225",
"f c #4C6C2A",
"g c #547630",
"h c #3D3D43",
"j c #434343",
"k c #4E4E4E",
"l c #444450",
"z c #4B4B55",
"x c gray34",
"c c #7E5159",
"v c #5E5E6D",
"b c gray39",
"n c gray43",
"m c #676774",
"M c #777777",
"N c #72727F",
"B c #8C5637",
"V c #866741",
"C c #976E45",
"Z c #A76743",
"A c #A0764A",
"S c #AD7F4E",
"D c #B3734F",
"F c #8F5E61",
"G c #B78C58",
"H c #C49A69",
"J c #848484",
"K c #878795",
"L c #939393",
"P c #A2A2A2",
"I c #A5A5AE",
"U c #D5AE80",
/* pixels */
"X9797ppppppppppppaapppppppppsAGGX,,pp8ppppaCCsssappppppppppasSSSX9797ppppppppppppaapppppppppsAGGX,,pp8ppppaCCsssappppppppppasSSS",
"X9,7797789yyyyyppppyyyyppppasGAp.,pp88pppy88,,8pyyyyyyypy88asCASX9,7797789yyyyyppppyyyyppppasGAp.,pp88pppy88,,8pyyyyyyypy88asCAS",
"X,paaappaassssssssCCCCCCAAAACA8$XX$pAAAAAsaayyassssssssssaassssAX,paaappaassssssssCCCCCCAAAACA8$XX$pAAAAAsaayyassssssssssaassssA",
"##,9764p$,.............$$..X.........................o2#ooOX<@82##,9764p$,.............$$..X.........................o2#ooOX<@82",
"bMzkbJJJj#,$$$$$#######$qX.77,,,8,.##################o12121&&&&3bMzkbJJJj#,$$$$$#######$qX.77,,,8,.##################o12121&&&&3",
"bnjjxbnJb&71<,<,<<<@@@qq$$,,y,,,,,<X@<<7#@@@@@@@@@####o&&112jkbjbnjjxbnJb&71<,<,<<<@@@qq$$,,y,,,,,<X@<<7#@@@@@@@@@####o&&112jkbj",
"xn&3jxbMKj,<<,,,,<,4<rrrwyVVVXXpypaV9@<78@@77<<@@@####&#21&&&jbkxn&3jxbMKj,<<,,,,<,4<rrrwyVVVXXpypaV9@<78@@77<<@@@####&#21&&&jbk",
"bn#1jxnMKk788,,,,<r<4r0waGGS@@@XyyVCCCC<,@#yy,y9<@####&2j4223jjkbn#1jxnMKk788,,,,<r<4r0waGGS@@@XyyVCCCC<,@#yy,y9<@####&2j4223jjk",
"xn&1jxnJMnpsAAsay8d0qqwySGS@@,.@X.yaASSp##<8CCCs92$$#o#&44313jjjxn&1jxnJMnpsAAsay8d0qqwySGS@@,.@X.yaASSp##<8CCCs92$$#o#&44313jjj",
"bb&j&xM0g0CGAAsyr8w0rd-VGG@@O...,X.9pVAp@@#<sCAay2#$#####4243jjjbb&j&xM0g0CGAAsyr8w0rd-VGG@@O...,X.9pVAp@@#<sCAay2#$#####4243jjj",
"jb#:$ej00;aASVp8dwwraa@,y@,O.....O@@.p,@pSp,#9ssy,$$#o#o#4422jkkjb#:$ej00;aASVp8dwwraa@,y@,O.....O@@.p,@pSp,#9ssy,$$#o#o#4422jkk",
"jn1jqwdjfdppVsjdd0rVVsy@@@O.......OOXXX,SGGp,<9y2,$$#o&@@j4221jkjn1jqwdjfdppVsjdd0rVVsy@@@O.......OOXXX,SGGp,<9y2,$$#o&@@j4221jk",
"@141+-,jbj,@jdr0:8pSSGS@OO.........OO@XyaGGGV,<#@@##o@@&@@3&@X2$@141+-,jbj,@jdr0:8pSSGS@OO.........OO@XyaGGGV,<#@@##o@@&@@3&@X2$",
"knbnnbb1MMX4$qq:8VSGGG,OOO.........@OOO<9CAGGS,,@Xoooo#4h2jko1kjknbnnbb1MMX4$qq:8VSGGG,OOO.........@OOO<9CAGGS,,@Xoooo#4h2jko1kj",
"kxxbnnb1MMysd4,dVSGGS,OO@@O.......@@O.OO<,VSGGy,@,p8##&14jkko3bkkxxbnnb1MMysd4,dVSGGS,OO@@O.......@@O.OO<,VSGGy,@,p8##&14jkko3bk",
"kjjkbbn1Mj*dw@pySGGSOOO..@@O.....@@O...OOOyVCGGy@<,$#&&@&4kxojbxkjjkbbn1Mj*dw@pySGGSOOO..@@O.....@@O...OOOyVCGGy@<,$#&&@&4kxojbx",
"xjjjxbb1nb88<XyaGGSOOO....@@O...OOO.....OOO9CGGSp&7$#X###1kk&jxbxjjjxbb1nb88<XyaGGSOOO....@@O...OOO.....OOO9CGGSp&7$#X###1kk&jxb",
"bjjjxnx1nx09X@pAGSOOO......@@O.OOO.......OOOpaSGG@7,#XX#&&jjojxbbjjjxnx1nx09X@pAGSOOO......@@O.OOO.......OOOpaSGG@7,#XX#&&jjojxb",
"bjjjxbx1Mn:7<<pSGOOO........@OOOO.........OOO9AGG<7$#oo#1&jjXhxbbjjjxbx1Mn:7<<pSGOOO........@OOOO.........OOO9AGG<7$#oo#1&jjXhxb",
"bkjxxbn1xx#7X<aGGOOOOOOOOOOOOOOOOOOOOOOOOOOOOuaGG@7$#o@@&22jo2xbbkjxxbn1xx#7X<aGGOOOOOOOOOOOOOOOOOOOOOOOOOOOOuaGG@7$#o@@&22jo2xb",
"kjjjxjj&xb#<.,pGGOOOOOOOOOOOOOOOOOOOOOOOOOOOO,aGG@7$#o@o#22jX2knkjjjxjj&xb#<.,pGGOOOOOOOOOOOOOOOOOOOOOOOOOOOO,aGG@7$#o@o#22jX2kn",
"jjjjj&j&&@#<.<aGGOO....OOO....OOOOO.....OOOOO5pGG@$$#ooXXo@#&X#1jjjjj&j&&@#<.<aGGOO....OOO....OOOOO.....OOOOO5pGG@$$#ooXXo@#&X#1",
"bMkjnnJJLn#@.<aGGOO...OOOOO..OOO.OOO...OOO.OO5pGG@#oXo#o@#2jjxjjbMkjnnJJLn#@.<aGGOO...OOOOO..OOO.OOO...OOO.OO5pGG@#oXo#o@#2jjxjj",
"xnxkkxnnnb...<aAGOO..OOO.OOOOOO...OOO.OOO..OO<pGG@oXX@#@#%23jjjbxnxkkxnnnb...<aAGOO..OOO.OOOOOO...OOO.OOO..OO<pGG@oXX@#@#%23jjjb",
"xnxhjkbMMb,7X,aAGOOOOOO...OOOO.....OOOOO...OO,yGG@y9#o#@##&1jkxxxnxhjkbMMb,7X,aAGOOOOOO...OOOO.....OOOOO...OO,yGG@y9#o#@##&1jkxx",
"xbxjjjnMMn#@.9ySGOOOOO....OOOO......OOOO...OO,yAA@$$#X#o#&1&3jkxxbxjjjnMMn#@.9ySGOOOOO....OOOO......OOOO...OO,yAA@$$#X#o#&1&3jkx",
"bnxljknMMn#<..XXOOOOOO...OOOOOO....OOOOOO..OOOXXX@$$#2#X#1&134jbbnxljknMMn#<..XXOOOOOO...OOOOOO....OOOOOO..OOOXXX@$$#2#X#1&134jb",
"bnkhxknMMn#@.<aGGOO.OOO.OOO..OOO..OOO..OOO.OO99GG#$$#jj441#234jxbnkhxknMMn#@.<aGGOO.OOO.OOO..OOO..OOO..OOO.OO99GG#$$#jj441#234jx",
"xnjkxbMMnn#<.<aSGOO..OOOOO....OOOOOO....OOOOO,pGG##$#@#&jh4114kbxnjkxbMMnn#<.<aSGOO..OOOOO....OOOOOO....OOOOO,pGG##$#@#&jh4114kb",
"jj&hxxnJnM#@X<pSGOO...OOO......OOOO......OOOO,pGG@7$#XXX@#jhhjxxjj&hxxnJnM#@X<pSGOO...OOO......OOOO......OOOO,pGG@7$#XXX@#jhhjxx",
"#&&#1h14jx#@@<aAGOO..OOOOO.....OOOOO....OOOOO,pGG<,$#XXXoXX@&4j&#&&#1h14jx#@@<aAGOO..OOOOO.....OOOOO....OOOOO,pGG<,$#XXXoXX@&4j&",
"xnjbbJLjKJ#@X9aCGOO.OOO.OOO...OOO.OOO..OOO.OO,pGG@$$###@30;dojnnxnjbbJLjKJ#@X9aCGOO.OOO.OOO...OOO.OOO..OOO.OO,pGG@$$###@30;dojnn",
"nnxkbMMjMn..X9aAGOOOOO...OOO.OOO...OOOOOO..OO,pGG@#XXoo#1g0f13xbnnxkbMMjMn..X9aAGOOOOO...OOO.OOO...OOOOOO..OO,pGG@#XXoo#1g0f13xb",
"xkjknnbjnj..X9aAGOOOO.....OOOOO.....OOOO...OO,pGG@o.X@@#&00j&&bxxkjknnbjnj..X9aAGOOOO.....OOOOO.....OOOO...OO,pGG@o.X@@#&00j&&bx",
"xjkjxMMjnksyX9aAGOOOO......OOO......OOOO...OO,pGG@p,#@@#&2jd,&kbxjkjxMMjnksyX9aAGOOOO......OOO......OOOO...OO,pGG@p,#@@#&2jd,&kb",
"jjjjxnMjMk,@.9aAGOOOOO....OOOOO....OOOOOO..OO,pGG@$$#@X#22ew-&kxjjjjxnMjMk,@.9aAGOOOOO....OOOOO....OOOOOO..OO,pGG@$$#@X#22ew-&kx",
"kkjkbMn1nx,@X9aAGOO.OOO..OOO.OOO..OOO..OOO.OO,yGG@,$#&o#22$q+&jjkkjkbMn1nx,@X9aAGOO.OOO..OOO.OOO..OOO..OOO.OO,yGG@,$#&o#22$q+&jj",
"jjjxxnb4nj,@.ypGGOO..OOOOOO...OOOOOO....OOOOO,aCA@,$#@4#@&:jo#jjjjjxxnb4nj,@.ypGGOO..OOOOOO...OOOOOO....OOOOO,aCA@,$#@4#@&:jo#jj",
"jjjjjjj1jj,@..XXOOO...OOOO.....OOOO......OOOOOXXX@$$#oo#o&1k@&4jjjjjjjj1jj,@..XXOOO...OOOO.....OOOO......OOOOOXXX@$$#oo#o&1k@&4j",
"1#&&1&111&,,.9ASGOO...OOOO.....OOOO.......OOOyyGG##$#o.ooXXoo&##1#&&1&111&,,.9ASGOO...OOOO.....OOOO.......OOOyyGG##$#o.ooXXoo&##",
"xb&jjMJJnb,,.,VSGOO..OOOOOO...OOOOOO.....OOOO,ySG##$#X#@&1jjjjkjxb&jjMJJnb,,.,VSGOO..OOOOOO...OOOOOO.....OOOO,ySG##$#X#@&1jjjjkj",
"jn&jkxbnMM,,.<aGGOO.OOO..OOO.OOO..OOO...OOOOO,yFG@###X##&341jkkbjn&jkxbnMM,,.<aGGOO.OOO..OOO.OOO..OOO...OOOOO,yFG@###X##&341jkkb",
"jn13jkknMn,@.,aGGOOOOO....OOOOO....OOO.OOO.OO,pSG<#$#X##@14&4jkxjn13jkknMn,@.,aGGOOOOO....OOOOO....OOO.OOO.OO,pSG<#$#X##@14&4jkx",
"kn&3jjxnMn...,aGGOOOO......OOO......OOOOO..OO,pFG@###o##&#433jkxkn&3jjxnMn...,aGGOOOO......OOO......OOOOO..OO,pFG@###o##&#433jkx",
"bn&3jjbnMn8y.,aGGOOOO.....OOOOO......OOO...OO,pSG@y9######13jjkxbn&3jjbnMn8y.,aGGOOOO.....OOOOO......OOO...OO,pSG@y9######13jjkx",
"jj&4jknMMb,@.<aGGOOOOO...OOO.OOO....OOOOO..OO,pFG@8$#####11hkjjxjj&4jknMMb,@.<aGGOOOOO...OOO.OOO....OOOOO..OO,pFG@8$#####11hkjjx",
"jn&1jknMbx,@.<aGGOO.OOO.OOO...OOO..OOO.OOO.OO9pSG@7$#o22##24hkkjjn&1jknMbx,@.<aGGOO.OOO.OOO...OOO..OOO.OOO.OO9pSG@7$#o22##24hkkj",
"jn&&1jjnjj,@.<yGGOO..OOOOO.....OOOOOO...OOOOO9jSG@,$#@&####2hkkkjn&&1jjnjj,@.<yGGOO..OOOOO.....OOOOOO...OOOOO9jSG@,$#@&####2hkkk",
"4j&jjX&&&4,@.<yGGOO...OOO.......OOOO.....OOOOyySG@,$#Xo@&####2j14j&jjX&&&4,@.<yGGOO...OOO.......OOOO.....OOOOyySG@,$#Xo@&####2j1",
"kbbnnMKjMM,@.<pGGOO..OOOOO......OOOO......OOOy9AA@$$#@&14jkx@jkxkbbnnMKjMM,@.<pGGOO..OOOOO......OOOO......OOOy9AA@$$#@&14jkx@jkx",
"nbkjbMn1Mn,@..XXOOO.OOO.OOO....OOOOOO....OOOOOXXX@,##@#4kkkk#3kbnbkjbMn1Mn,@..XXOOO.OOO.OOO....OOOOOO....OOOOOXXX@,##@#4kkkk#3kb",
"bbxjxnn1Jj,@.9aGGOOOOO...OOO..OOO..OOO..OOOOOpyGG#,###&2jjxko&jjbbxjxnn1Jj,@.9aGGOOOOO...OOO..OOO..OOO..OOOOOpyGG#,###&2jjxko&jj",
"xkjkxnn4Mj,@.,pGGOOOO.....OOOOOO....OOOOOO.OOyyCG######213kx#4jjxkjkxnn4Mj,@.,pGGOOOO.....OOOOOO....OOOOOO.OOyyCG######213kx#4jj",
"xjkkbnn1Mx...,pGGOOOO......OOOO......OOOO..OOyySG@#o#@#&11hxo4kjxjkkbnn1Mx...,pGGOOOO......OOOO......OOOO..OOyySG@#o#@#&11hxo4kj",
"xjjjxMb1MkspX&pGGOOOOO.....OOOO......OOOO..OOyySG<9,#@#&123k#4kjxjjjxMb1MkspX&pGGOOOOO.....OOOO......OOOO..OOyySG<9,#@#&123k#4kj",
"xjjjbbk1njyy.1pGGOO.OOO...OOOOOO....OOOOOO.OO9yFG@,,#@@#124k#jkkxjjjbbk1njyy.1pGGOO.OOO...OOOOOO....OOOOOO.OO9yFG@,,#@@#124k#jkk",
"xj4jxbn4bby,.4aGGOO..OOO.OOO..OOO..OOO..OOOOO9yFG@7##@@1114ko4xkxj4jxbn4bby,.4aGGOO..OOO.OOO..OOO..OOO..OOOOO9yFG@7##@@1114ko4xk",
"j1&@##&jj&,<X9yCGOO...OOOOO....OOOOOO....OOOO9yFG@,##o@ooooX#14&j1&@##&jj&,<X9yCGOO...OOOOO....OOOOOO....OOOO9yFG@,##o@ooooX#14&",
"nL&4nnJMJn8@X,VCGOO....OOO......OOOO......OOO9yAG@7##o4@&1jjkkbnnL&4nnJMJn8@X,VCGOO....OOO......OOOO......OOO9yAG@7##o4@&1jjkkbn",
"Mb1&kkbMJny@X,VCGOO...OOOOO.....OOOO.......OO9ySG@,,##&#&2240;dbMb1&kkbMJny@X,VCGOO...OOOOO.....OOOO.......OO9ySG@,,##&#&2240;db",
"nn13jjbMJM,<X<VSGOOOOOOOOOOOOOOOOOOOOOOOOOOOO,ySG@,###&@##12g0fbnn13jjbMJM,<X<VSGOOOOOOOOOOOOOOOOOOOOOOOOOOOO,ySG@,###&@##12g0fb",
"nn&1jjbKLM8<X<CGGOOOOOOOOOOOOOOOOOOOOOOOOOOOOyaAG@o##o##&#1400jnnn&1jjbKLM8<X<CGGOOOOOOOOOOOOOOOOOOOOOOOOOOOOyaAG@o##o##&#1400jn",
"Mn1&jjbJMJ,@@@GGGUUUUUUUUOUUUUUUUUUUOOUUUUUUUyyAA<o##@#@&#12jjd,Mn1&jjbJMJ,@@@GGGUUUUUUUUOUUUUUUUUUUOOUUUUUUUyyAA<o##@#@&#12jjd,",
"bj&&jjbJMn...@GGyaCVVCCVSXSSCVVCCVVcAXaVCVVCayppV7o##&&o@&20gew-bj&&jjbJMn...@GGyaCVVCCVSXSSCVVCCVVcAXaVCVVCayppV7o##&&o@&20gew-",
"bj#&&jnJJJpy@<X,,,,,,,,pyX<,,,,,,,,,,X,,,,<yy,,yyy,7###:$ej00$q+bj#&&jnJJJpy@<X,,,,,,,,pyX<,,,,,,,,,,X,,,,<yy,,yyy,7###:$ej00$q+",
"j3&&14jnbM,@...@@@@@@@@@<.@@@@@@@@@@@.@@<<XX@@@<<y,$##ooqwdjf:jjj3&&14jnbM,@...@@@@@@@@@<.@@@@@@@@@@@.@@<<XX@@@<<y,$##ooqwdjf:jj",
"&j14&&114&,##oo,,,,oooo,7#ooo,,,,,,#####,.###,,#,p9$#2#X+-,##4#1&j14&&114&,##oo,,,,oooo,7#ooo,,,,,,#####,.###,,#,p9$#2#X+-,##4#1",
"bnbnnbb1LK,,,,,,,,,,,,,,,,,,,,,,,,,,,,,,y.,,,,,,9y7$#@4#&&2jo4xnbnbnnbb1LK,,,,,,,,,,,,,,,,,,,,,,,,,,,,,,y.,,,,,,9y7$#@4#&&2jo4xn",
"bnbxMKb1MMpp9p,8888yyy888,,yypyy,,yyyy88s.,pyyy,79,$#o&414jkXjkbbnbxMKb1MMpp9p,8888yyy888,,yypyy,,yyyy88s.,pyyy,79,$#o&414jkXjkb",
"jjxx0;d4MnppaCsaappassasp8ppyppy9yassaaaA#9sCCCay9,$##o#21jkojkxjjxx0;d4MnppaCsaappassasp8ppyppy9yassaaaA#9sCCCay9,$##o#21jkojkx",
"bjjjg0f4MnppassasssVVssss,pypppy9yassaaas$,asssp97$$###@42jjX4xbbjjjg0f4MnppassasssVVssss,pypppy9yassaaas$,asssp97$$###@42jjX4xb",
"bnjj00j4MnpppapassVssassa$889ypy9yasapaaa7,7ppp97$$$###1k4jko3jbbnjj00j4MnpppapassVssassa$889ypy9yasapaaa7,7ppp97$$$###1k4jko3jb",
"jj3jjjd,Mn9ppyyypaaasapp,#,,,,999yppapyy,o##$,,$$#$##o@#jhhko2jxjj3jjjd,Mn9ppyyypaaasapp,#,,,,999yppapyy,o##$,,$$#$##o@#jhhko2jx",
"bjjkjew-nnoo###oXXoXoo#o###o###oXXoXoo,o###o#########@@#2hhjX&jxbjjkjew-nnoo###oXXoXoo#o###o###oXXoXoo,o###o#########@@#2hhjX&jx",
"bj4kb$q+MnaSssG7sSASHHHHHHsHHHA78SASHSHHHSSCSHA91,97#o@12jhko1kbbj4kb$q+MnaSssG7sSASHHHHHHsHHHA78SASHSHHHSSCSHA91,97#o@12jhko1kb",
"j1hjj:j4419p9ps9$paaaAAAssaaASS,pAAACCsCpp99pasa#0;d#o@@@41@@&12j1hjj:j4419p9ps9$paaaAAAssaaASS,pAAACCsCpp99pasa#0;d#o@@@41@@&12",
"nn4jjbJMLnppyas$yAsCCVVVssssVAV#aACVVCCsa9aaapap#g0f##&2$2ljjxMbnn4jjbJMLnppyas$yAsCCVVVssssVAV#aACVVCCsa9aaapap#g0f##&2$2ljjxMb",
"nn14kbnMMnpaaaa7ysVCss8VsassVsxXaSCVasCp97aspasa#00j#o#&&&hkjknbnn14kbnMMnpaaaa7ysVCss8VsassVsxXaSCVasCp97aspasa#00j#o#&&&hkjknb",
"nn&&jknMJnpassp$ysVA88ssasssVaaXpSAVVsa99sssaaap#9jd,#2#1444jknbnn&&jknMJnpassp$ysVA88ssasssVaaXpSAVVsa99sssaaap#9jd,#2#1444jknb",
"nn&&jkbMMbpsVsp oyAyACCVVsVVVsaX8VACVsappCVsssay#$ew-&2o#1h43kbbnn&&jkbMMbpsVsp oyAyACCVVsVVVsaX8VACVsappCVsssay#$ew-&2o#1h43kbb",
"nb&&1jbnMnasVa9 Xo:sCAACV0sBVVSX7aVACVaasVVVssspoo$q+X&#@&23lkxbnb&&1jbnMnasVa9 Xo:sCAACV0sBVVSX7aVACVaasVVVssspoo$q+X&#@&23lkxb",
"nb&&1jxnMbCCsp7.X-oy0C8As0a000so$yaassaasVsssss9##:$#X@###1%3xxbnb&&1jxnMbCCsp7.X-oy0C8As0a000so$yaassaasVsssss9##:$#X@###1%3xxb",
"nn&&3jxnMbpasaXX@+o*:0880+:0008XO,7pyypppppappp7#$$$#o###@1#%kxbnn&&3jxnMbpasaXX@+o*:0880+:0008XO,7pyypppppappp7#$$$#o###@1#%kxb",
"4k#&1jxMbjXXooX##.+-#-X++X-o,o#ooo###oXXoXoo,o#9#$###o@o@##&&2bk4k#&1jxMbjXXooX##.+-#-X++X-o,o#ooo###oXXoXoo,o#9#$###o@o@##&&2bk",
"41&&&&&13jsSAAGSASAGs0y-:,sSASHHHHHHHHHSA,ASAaaapap9#ooXXooXX&2j41&&&&&13jsSAAGSASAGs0y-:,sSASHHHHHHHHHSA,ASAaaapap9#ooXXooXX&2j",
"bnbnbnJ#nJ9pVVCCCCCVa08089ysssASSGGGSSCCC98paVVpyp,$#@#o@&jjX#xbbnbnbnJ#nJ9pVVCCCCCVa08089ysssASSGGGSSCCC98paVVpyp,$#@#o@&jjX#xb",
"bbbbbbn&bMppassVVVsssas00,7asCVCCACCVysVA$,asCCap97,#o@##1jjo&3xbbbbbbn&bMppassVVVsssas00,7asCVCCACCVysVA$,asCCap97,#o@##1jjo&3x",
"xxxbbbb3nnppaassssssas00877pssVsssaasyasC$,aCaapp8,$#@@#&%jj&&jxxxxbbbb3nnppaassssssas00877pssVsssaasyasC$,aCaapp8,$#@@#&%jj&&jx",
"xjxkbbn1xbppaasssaassa0a0$7iassysaasss8a8#7pssap9,,$#oo@&1jj&1jxxjxkbbn1xbppaasssaassa0a0$7iassysaasss8a8#7pssap9,,$#oo@&1jj&1jx",
"xjxxxnb4xnpaaaaassssssss0$7tpasa8aaassy88$,yaCspy,,$#XX@#2jj&&jxxjxxxnb4xnpaaaaassssssss0$7tpasa8aaassy88$,yaCspy,,$#XX@#2jj&&jx",
"bjxxbbn1bnppasasassVsVss0#<8papp808p8asyy$$9paay7$7$#2Xo#1jj&%jbbjxxbbn1bnppasasassVsVss0#<8papp808p8asyy$$9paay7$7$#2Xo#1jj&%jb",
"jkkkxbkjkb7paaapssBVsassao$,pp9yy08p8yay8$,,88987$$$#44441&j&%4xjkkkxbkjkb7paaapssBVsassao$,pp9yy08p8yay8$,,88987$$$#44441&j&%4x",
"jjjxkxk4j4,,9yyypaaasa8,#X$998:>000ya0008$$###,$,,,$#@@&jh4jX#2jjjjxkxk4j4,,9yyypaaasa8,#X$998:>000ya0008$$###,$,,,$#@@&jh4jX#2j",
"@&#1j4444&o.###oXXoXoo,o###o###oXX-Xoo,o###X.o#######X..X@&&@&##@&#1j4444&o.###oXXoXoo,o###o###oXX-Xoo,o###X.o#######X..X@&&@&##",
"xn#1nnnJMMsGssG7ASASHSAHHHHHSAA7ASASHSASAGSSSAA9$yp8#o#o##jjknbbxn#1nnnJMMsGssG7ASASHSAHHHHHSAA7ASASHSASAGSSSAA9$yp8#o#o##jjknbb",
"xn#14nJPJMpppas8ppaaaCsCssaaaaC,ypaaaCsCssaaaasp,,$$#####&33jkbnxn#14nJPJMpppas8ppaaaCsCssaaaaC,ypaaaCsCssaaaasp,,$$#####&33jkbn",
"nJ41jbKInnpppss7ppsCCVVCCsssaps$9ssCCCVCCssyaaap#$8$#o#@#121jkxbnJ41jbKInnpppss7ppsCCVVCCsssaps$9ssCCCVCCssyaaap#$8$#o#@#121jkxb",
"bn&1kbJLnnpppsa,ppssssVsaasspps$psssVyVsaasypasp$$,$#@#@#112jjbbbn&1kbJLnnpppsa,ppssssVsaasspps$psssVyVsaasypasp$$,$#@#@#112jjbb",
"nj&&jxJPnnpppsp#passsssaasssppp$pCVVssy8asyyaaap##$##@#@#&&2jjxbnj&&jxJPnnpppsp#passsssaasssppp$pCVVssy8asyyaaap##$##@#@#&&2jjxb",
"nj&&jjMJMnpaasp,ppasssaasssaap,#pssVsssysyyy8psp#$#$#@@#%#&1jkxbnj&&jjMJMnpaasp,ppasssaasssaap,#pssVsssysyyy8psp#$#$#@@#%#&1jkxb",
"jk&&jjnMbbpCsCp,pypaaaassVsasaCo9yss0say00sVs0;p###$###o##1&1jxbjk&&jjnMbbpCsCp,pypaaaassVsasaCo9yss0say00sVs0;p###$###o##1&1jxb",
"jj&&1jnkjjaCsay#y9pypppasssassy.,,aa08ayy008yy;p#####@4oo##&&4jbjj&&1jnkjjaCsay#y9pypppasssassy.,,aa08ayy008yy;p#####@4oo##&&4jb",
"@&&&&&j3&Xpas9<#,998877yaaaapp,..#,y;;00800a080y,####oo@XXXo@&4&@&&&&&j3&Xpas9<#,998877yaaaapp,..#,y;;00800a080y,####oo@XXXo@&4&",
"nnbnnnb1jbX   XX#o###oXXoXoo,o###o###oX@o@o-:o#p$####@@&3%&k&1bxnnbnnnb1jbX   XX#o###oXXoXoo,o###o###oX@o@o-:o#p$####@@&3%&k&1bx",
"nxjjbMnjnbss9*o=9SAGAaHHX#ASASHSASAHHHHAA7ASASHay78,#X@&22jj14xbnxjjbMnjnbss9*o=9SAGAaHHX#ASASHSASAHHHHAA7ASASHay78,#X@&22jj14xb",
"xjjjxMb1nb89po.o=VSCVCAHX,ppaaaCsCssaaaaCpppaaap,,,$#Xo@&4kj&1kbxjjjxMb1nb89po.o=VSCVCAHX,ppaaaCsCssaaaaCpppaaap,,,$#Xo@&4kj&1kb",
"xjjjxnnjnx8paa7.oaCVVCASH$8paasssssspppps7pasCCa7,$$#Xo@#10g0&jxxjjjxnnjnx8paa7.oaCVVCASH$8paasssssspppps7pasCCa7,$$#Xo@#10g0&jx",
"bjjjknn1nx,7ssa#o77aaCCCA,8,ypaapssskypaC8ayapap7$##oo:$ej00;#kxbjjjknn1nx,7ssa#o77aaCCCA,8,ypaapssskypaC8ayapap7$##oo:$ej00;#kx",
"bjjjbnn1nb,8ppp7===7pppsa$$$8ppypakkddpaa,p8dppy$#&&o#oqwdjfd&jxbjjjbnn1nb,8ppp7===7pppsa$$$8ppypakkddpaa,p8dppy$#&&o#oqwdjfd&jx",
"xjkxbMMjnx,,pppp97*9779p9$$$8y9y<8djddjyfw8dypp9h$w##&&w2yjjjhkbxjkxbMMjnx,,pppp97*9779p9$$$8y9y<8djddjyfw8dypp9h$w##&&w2yjjjhkb",
"LLLLLLLLLLLJxyy999yp9=7pao$#$$8,ddrd4ddfawdww8drwq04xMJJMMJJLLLLLLLLLLLLLLLJxyy999yp9=7pao$#$$8,ddrd4ddfawdww8drwq04xMJJMMJJLLLL",
"mJJMMMKKMMMLJy88888y7=9pao##,$$qww0,,qryw0wwwdd0w0$knbbnnNNKMLLLmJJMMMKKMMMLJy88888y7=9pao##,$$qww0,,qryw0wwwdd0w0$knbbnnNNKMLLL",
"vMnnxbbxxbnMJ,,78yyyp78p##o#$#0:88,8880w-0#9ywq0000xMxbbbmbbkbMMvMnnxbbxxbnMJ,,78yyyp78p##o#$#0:88,8880w-0#9ywq0000xMxbbbmbbkbMM",
"JbbbbbbxxxbbJ##oXXoXoo,o###o###oXXoXoo#..##oq::###@kbkkxxxk4bbbJJbbbbbbxxxbbJ##oXXoXoo,o###o###oXXoXoo#..##oq::###@kbkkxxxk4bbbJ",
"xxbMJbbxxxbJLCSACGS77SSSSACG7SSSCS77CSSSACGS77Saa#@jbxxkj&4JMbbxxxbMJbbxxxbJLCSACGS77SSSSACG7SSSCS77CSSSACGS77Saa#@jbxxkj&4JMbbx",
"bbMMMMbxkxbJJVCssaA8paVCVssa88CCsA8ppaCCssaA888$$,@jbxxkj4MMMMbbbbMMMMbxkxbJJVCssaA8paVCVssa88CCsA8ppaCCssaA888$$,@jbxxkj4MMMMbb",
"bbMMbbbxkxbMJssaspC78passasp7psssC78sassaspC78p,$#@4bbb44xbbMJJbbbMMbbbxkxbMJssaspC78passasp7psssC78sassaspC78p,$#@4bbb44xbbMJJb",
"MbMbbbbxbbbMJaaassa,,ypaaasa,8aasa,#ppaaasaa,,9,##@4bbx4kbbkbMJMMbMbbbbxbbbMJaaassa,,ypaaasa,8aasa,#ppaaasaa,,9,##@4bbx4kbbkbMJM",
"bbbbbbbbbbbMLaaasap#,89paasC#$aaap##7paaassp#,8$###kbbkxbxbbkbMJbbbbbbbbbbbMLaaasap#,89paasC#$aaap##7paaassp#,8$###kbbkxbxbbkbMJ",
"xxxxxbbbbbbJLyaaaps##88yppaa#,ypas##87yaaaas##,$###xbbxbbbbxjkxxxxxxxbbbbbbJLyaaaps##88yppaa#,ypas##87yaaaas##,$###xbbxbbbbxjkxx",
"4kllxbbbbbbJL888p8p#o#$#8pap#o,8p8###$,ppapp###$#X#jbbbbbbbxllj44kllxbbbbbbJL888p8p#o#$#8pap#o,8p8###$,ppapp###$#X#jbbbbbbbxllj4",
"xjjxxbMMMMMJJoXoo,###oXXXoo,#ooXo###o#oXoo,###o##XXjbMMMMMbxxjjxxjjxxbMMMMMJJoXoo,###oXXXoo,#ooXo###o#oXoo,###o##XXjbMMMMMbxxjjx",
",####O###O#OOO#######O#########,o,#########O#######OOO#O###O####,####O###O#OOO#######O#########,o,#########O#######OOO#O###O####",
"7p,9,7899pasiaaaaaaCssaapsssapsH$79paaasSsCssssCsaaCssaaaapassSA7p,9,7899pasiaaaaaaCssaapsssapsH$79paaasSsCssssCsaaCssaaaapassSA",
"7p7989ppppaasCCsssCSCCCCssssasAG$$8ypaCCSSASSSSSACCCCCCACCCCCAAG7p7989ppppaasCCsssCSCCCCssssasAG$$8ypaCCSSASSSSSACCCCCCACCCCCAAG",
",u8799ppaassaaaaaaaaaaasaaaasCAG#$,yassCCCCCCCCCssCCCCCCCCACaADZ,u8799ppaassaaaaaaaaaaasaaaasCAG#$,yassCCCCCCCCCssCCCCCCCCACaADZ",
",u7,8pppaasaappassaaaapappapsCSG##,paAACsaasCsssaappaasssssCsASD,u7,8pppaasaappassaaaapappapsCSG##,paAACsaasCsssaappaasssssCsASD",
"X9777pppppaappppasssaappppppsCGGX,8aapsappassssaappppaaaaasCCASSX9777pppppaappppasssaappppppsCGGX,8aapsappassssaappppaaaaasCCASS"
};
